G04 #@! TF.GenerationSoftware,KiCad,Pcbnew,8.0.8*
G04 #@! TF.CreationDate,2025-07-12T12:58:50+02:00*
G04 #@! TF.ProjectId,main,6d61696e-2e6b-4696-9361-645f70636258,rev?*
G04 #@! TF.SameCoordinates,Original*
G04 #@! TF.FileFunction,Paste,Top*
G04 #@! TF.FilePolarity,Positive*
%FSLAX46Y46*%
G04 Gerber Fmt 4.6, Leading zero omitted, Abs format (unit mm)*
G04 Created by KiCad (PCBNEW 8.0.8) date 2025-07-12 12:58:50*
%MOMM*%
%LPD*%
G01*
G04 APERTURE LIST*
G04 Aperture macros list*
%AMRoundRect*
0 Rectangle with rounded corners*
0 $1 Rounding radius*
0 $2 $3 $4 $5 $6 $7 $8 $9 X,Y pos of 4 corners*
0 Add a 4 corners polygon primitive as box body*
4,1,4,$2,$3,$4,$5,$6,$7,$8,$9,$2,$3,0*
0 Add four circle primitives for the rounded corners*
1,1,$1+$1,$2,$3*
1,1,$1+$1,$4,$5*
1,1,$1+$1,$6,$7*
1,1,$1+$1,$8,$9*
0 Add four rect primitives between the rounded corners*
20,1,$1+$1,$2,$3,$4,$5,0*
20,1,$1+$1,$4,$5,$6,$7,0*
20,1,$1+$1,$6,$7,$8,$9,0*
20,1,$1+$1,$8,$9,$2,$3,0*%
G04 Aperture macros list end*
%ADD10C,0.010000*%
%ADD11RoundRect,0.079500X0.100500X-0.079500X0.100500X0.079500X-0.100500X0.079500X-0.100500X-0.079500X0*%
%ADD12RoundRect,0.140000X0.170000X-0.140000X0.170000X0.140000X-0.170000X0.140000X-0.170000X-0.140000X0*%
%ADD13R,0.900000X1.700000*%
%ADD14R,0.800000X3.000000*%
%ADD15RoundRect,0.135000X-0.185000X0.135000X-0.185000X-0.135000X0.185000X-0.135000X0.185000X0.135000X0*%
%ADD16RoundRect,0.500000X0.500000X-0.875000X0.500000X0.875000X-0.500000X0.875000X-0.500000X-0.875000X0*%
%ADD17RoundRect,0.275000X-0.975000X-0.275000X0.975000X-0.275000X0.975000X0.275000X-0.975000X0.275000X0*%
%ADD18C,1.700000*%
%ADD19RoundRect,0.140000X-0.170000X0.140000X-0.170000X-0.140000X0.170000X-0.140000X0.170000X0.140000X0*%
%ADD20RoundRect,0.150000X-0.587500X-0.150000X0.587500X-0.150000X0.587500X0.150000X-0.587500X0.150000X0*%
%ADD21RoundRect,0.033750X0.336250X0.101250X-0.336250X0.101250X-0.336250X-0.101250X0.336250X-0.101250X0*%
%ADD22R,0.500000X0.300000*%
%ADD23RoundRect,0.135000X0.185000X-0.135000X0.185000X0.135000X-0.185000X0.135000X-0.185000X-0.135000X0*%
%ADD24RoundRect,0.300000X-0.500000X-0.000010X0.500000X-0.000010X0.500000X0.000010X-0.500000X0.000010X0*%
%ADD25RoundRect,0.140000X0.140000X0.170000X-0.140000X0.170000X-0.140000X-0.170000X0.140000X-0.170000X0*%
%ADD26RoundRect,0.135000X0.135000X0.185000X-0.135000X0.185000X-0.135000X-0.185000X0.135000X-0.185000X0*%
%ADD27RoundRect,0.087500X0.187500X0.087500X-0.187500X0.087500X-0.187500X-0.087500X0.187500X-0.087500X0*%
%ADD28RoundRect,0.087500X0.087500X0.187500X-0.087500X0.187500X-0.087500X-0.187500X0.087500X-0.187500X0*%
G04 APERTURE END LIST*
D10*
X149060000Y-65905000D02*
X148640000Y-65905000D01*
X148640000Y-65045000D01*
X149060000Y-65045000D01*
X149060000Y-65905000D01*
G36*
X149060000Y-65905000D02*
G01*
X148640000Y-65905000D01*
X148640000Y-65045000D01*
X149060000Y-65045000D01*
X149060000Y-65905000D01*
G37*
D11*
X153750000Y-56795000D03*
X153750000Y-56105000D03*
D12*
X157600000Y-71760000D03*
X157600000Y-70800000D03*
D13*
X132450000Y-55862500D03*
X135850000Y-55862500D03*
D14*
X168233000Y-60750000D03*
X166633000Y-60750000D03*
X163733000Y-60750000D03*
X162133000Y-60750000D03*
X160533000Y-60750000D03*
X160533000Y-71750000D03*
X162133000Y-71750000D03*
X163733000Y-71750000D03*
X166633000Y-71750000D03*
X168233000Y-71750000D03*
D15*
X137925000Y-54612500D03*
X137925000Y-55632500D03*
D16*
X124031500Y-77196600D03*
X126571500Y-77196600D03*
X129111500Y-77196600D03*
X131651500Y-77196600D03*
X134191500Y-77196600D03*
X136731500Y-77196600D03*
X139271500Y-77196600D03*
X139271500Y-61031600D03*
X136731500Y-61031600D03*
X134191500Y-61031600D03*
X131651500Y-61031600D03*
X129111500Y-61031600D03*
X126571500Y-61031600D03*
X124031500Y-61031600D03*
D17*
X137183200Y-70923000D03*
X137183200Y-68383000D03*
D18*
X123010000Y-70415000D03*
X123010000Y-67875000D03*
X125550000Y-70415000D03*
X125550000Y-67875000D03*
X128090000Y-70415000D03*
X128090000Y-67875000D03*
X130630000Y-70415000D03*
X130573200Y-67967600D03*
D15*
X152275000Y-59705000D03*
X152275000Y-60725000D03*
X151250000Y-65550000D03*
X151250000Y-66570000D03*
D19*
X137925000Y-56777500D03*
X137925000Y-57737500D03*
D20*
X147825000Y-58775000D03*
X147825000Y-60675000D03*
X149700000Y-59725000D03*
D19*
X129925000Y-83225000D03*
X129925000Y-84185000D03*
D21*
X149845000Y-66125000D03*
X149845000Y-65475000D03*
X149845000Y-64825000D03*
X147855000Y-64825000D03*
X147855000Y-65475000D03*
X147855000Y-66125000D03*
D19*
X132375000Y-83225000D03*
X132375000Y-84185000D03*
D15*
X155925000Y-55517500D03*
X155925000Y-56537500D03*
D22*
X160250000Y-76700000D03*
X160250000Y-77500000D03*
X158850000Y-77500000D03*
X158850000Y-76700000D03*
D12*
X153075000Y-64860000D03*
X153075000Y-63900000D03*
D23*
X145850000Y-67170000D03*
X145850000Y-66150000D03*
X145550000Y-61660000D03*
X145550000Y-60640000D03*
D24*
X145350000Y-74708750D03*
X145350000Y-75978750D03*
X145350000Y-77248750D03*
X145350000Y-78518750D03*
X145350000Y-79788750D03*
X145350000Y-81058750D03*
X145350000Y-82328750D03*
X145350000Y-83598750D03*
X155750000Y-79788750D03*
X155750000Y-78518750D03*
X155750000Y-77248750D03*
X155750000Y-75978750D03*
D25*
X160260000Y-79200000D03*
X159300000Y-79200000D03*
D26*
X125050000Y-81100000D03*
X124030000Y-81100000D03*
D19*
X145575000Y-58365000D03*
X145575000Y-59325000D03*
D27*
X158125000Y-67900000D03*
X158125000Y-67400000D03*
X158125000Y-66900000D03*
X158125000Y-66400000D03*
X158125000Y-65900000D03*
D28*
X157400000Y-65675000D03*
X156900000Y-65675000D03*
X156400000Y-65675000D03*
D27*
X155675000Y-65900000D03*
X155675000Y-66400000D03*
X155675000Y-66900000D03*
X155675000Y-67400000D03*
X155675000Y-67900000D03*
D28*
X156400000Y-68125000D03*
X156900000Y-68125000D03*
X157400000Y-68125000D03*
M02*
