M48
; DRILL file {KiCad 8.0.8} date 2025-07-12T12:59:06+0200
; FORMAT={-:-/ absolute / metric / decimal}
; #@! TF.CreationDate,2025-07-12T12:59:06+02:00
; #@! TF.GenerationSoftware,Kicad,Pcbnew,8.0.8
; #@! TF.FileFunction,Plated,1,4,PTH
FMAT,2
METRIC
; #@! TA.AperFunction,Plated,PTH,ViaDrill
T1C0.300
; #@! TA.AperFunction,Plated,PTH,ViaDrill
T2C0.500
; #@! TA.AperFunction,Plated,PTH,ViaDrill
T3C0.700
; #@! TA.AperFunction,Plated,PTH,ComponentDrill
T4C0.800
%
G90
G05
T1
X123.025Y-66.375
X123.025Y-72.05
X123.15Y-57.175
X124.4Y-83.3
X125.525Y-66.35
X126.65Y-63.3
X128.125Y-72.15
X129.025Y-74.975
X129.112Y-63.375
X129.925Y-82.25
X130.175Y-79.625
X130.5Y-72.1
X130.575Y-66.15
X131.125Y-84.575
X131.651Y-63.051
X132.375Y-82.2
X133.675Y-84.525
X133.887Y-71.787
X134.1Y-62.9
X134.125Y-75.125
X135.175Y-68.383
X135.375Y-63.375
X135.85Y-57.987
X136.375Y-79.45
X136.712Y-63.35
X136.725Y-75.125
X139.275Y-63.2
X139.425Y-54.6
X140.325Y-72.375
X141.1Y-71.65
X141.275Y-76.649
X142.55Y-75.309
X142.65Y-81.05
X143.25Y-83.6
X143.3Y-75.95
X143.925Y-75.35
X145.525Y-71.6
X145.525Y-71.6
X145.845Y-68.24
X146.75Y-64.85
X147.075Y-75.75
X148.475Y-74.875
X151.25Y-67.475
X151.675Y-71.7
X151.875Y-57.637
X152.175Y-65.725
X153.02Y-66.745
X153.05Y-62.95
X153.6Y-77.25
X153.625Y-67.525
X153.737Y-76.062
X153.825Y-71.25
X154.425Y-60.725
X154.8Y-68.85
X155.925Y-57.462
X156.15Y-71.5
X156.75Y-64.475
X156.8Y-62.475
X157.537Y-77.638
X157.6Y-69.625
X157.725Y-76.6
X157.949Y-62.174
X158.175Y-64.45
X160.225Y-80.425
X162.133Y-69.45
X164.325Y-54.775
X166.45Y-57.675
X166.625Y-74.65
X168.175Y-56.875
X168.25Y-74.675
T2
X137.183Y-68.383
X137.25Y-70.9
T3
X123.01Y-67.875
X123.01Y-70.415
X125.55Y-67.875
X128.09Y-67.875
X128.09Y-70.415
X130.575Y-67.975
X130.63Y-70.415
T4
X167.075Y-78.95
X169.075Y-78.95
M30
