G04 #@! TF.GenerationSoftware,KiCad,Pcbnew,8.0.8*
G04 #@! TF.CreationDate,2025-07-12T12:58:50+02:00*
G04 #@! TF.ProjectId,main,6d61696e-2e6b-4696-9361-645f70636258,rev?*
G04 #@! TF.SameCoordinates,Original*
G04 #@! TF.FileFunction,Legend,Top*
G04 #@! TF.FilePolarity,Positive*
%FSLAX46Y46*%
G04 Gerber Fmt 4.6, Leading zero omitted, Abs format (unit mm)*
G04 Created by KiCad (PCBNEW 8.0.8) date 2025-07-12 12:58:50*
%MOMM*%
%LPD*%
G01*
G04 APERTURE LIST*
G04 Aperture macros list*
%AMRoundRect*
0 Rectangle with rounded corners*
0 $1 Rounding radius*
0 $2 $3 $4 $5 $6 $7 $8 $9 X,Y pos of 4 corners*
0 Add a 4 corners polygon primitive as box body*
4,1,4,$2,$3,$4,$5,$6,$7,$8,$9,$2,$3,0*
0 Add four circle primitives for the rounded corners*
1,1,$1+$1,$2,$3*
1,1,$1+$1,$4,$5*
1,1,$1+$1,$6,$7*
1,1,$1+$1,$8,$9*
0 Add four rect primitives between the rounded corners*
20,1,$1+$1,$2,$3,$4,$5,0*
20,1,$1+$1,$4,$5,$6,$7,0*
20,1,$1+$1,$6,$7,$8,$9,0*
20,1,$1+$1,$8,$9,$2,$3,0*%
G04 Aperture macros list end*
%ADD10C,0.187500*%
%ADD11C,0.300000*%
%ADD12C,0.100000*%
%ADD13C,0.150000*%
%ADD14C,0.106680*%
%ADD15C,0.120000*%
%ADD16C,0.127000*%
%ADD17C,0.504000*%
%ADD18C,0.200000*%
%ADD19RoundRect,0.100000X0.100000X-0.130000X0.100000X0.130000X-0.100000X0.130000X-0.100000X-0.130000X0*%
%ADD20RoundRect,0.140000X0.170000X-0.140000X0.170000X0.140000X-0.170000X0.140000X-0.170000X-0.140000X0*%
%ADD21C,0.800000*%
%ADD22R,0.900000X1.700000*%
%ADD23C,3.000000*%
%ADD24R,0.800000X3.000000*%
%ADD25RoundRect,0.135000X-0.185000X0.135000X-0.185000X-0.135000X0.185000X-0.135000X0.185000X0.135000X0*%
%ADD26RoundRect,0.525400X0.525400X-0.900400X0.525400X0.900400X-0.525400X0.900400X-0.525400X-0.900400X0*%
%ADD27RoundRect,0.300400X-1.000400X-0.300400X1.000400X-0.300400X1.000400X0.300400X-1.000400X0.300400X0*%
%ADD28C,1.700000*%
%ADD29RoundRect,0.140000X-0.170000X0.140000X-0.170000X-0.140000X0.170000X-0.140000X0.170000X0.140000X0*%
%ADD30RoundRect,0.150000X-0.587500X-0.150000X0.587500X-0.150000X0.587500X0.150000X-0.587500X0.150000X0*%
%ADD31RoundRect,0.059250X0.412750X0.177750X-0.412750X0.177750X-0.412750X-0.177750X0.412750X-0.177750X0*%
%ADD32RoundRect,0.102000X0.325000X0.675000X-0.325000X0.675000X-0.325000X-0.675000X0.325000X-0.675000X0*%
%ADD33R,0.500000X0.300000*%
%ADD34R,1.350000X1.350000*%
%ADD35O,1.350000X1.350000*%
%ADD36RoundRect,0.135000X0.185000X-0.135000X0.185000X0.135000X-0.185000X0.135000X-0.185000X-0.135000X0*%
%ADD37RoundRect,0.300000X-0.500000X-0.000010X0.500000X-0.000010X0.500000X0.000010X-0.500000X0.000010X0*%
%ADD38RoundRect,0.140000X0.140000X0.170000X-0.140000X0.170000X-0.140000X-0.170000X0.140000X-0.170000X0*%
%ADD39RoundRect,0.135000X0.135000X0.185000X-0.135000X0.185000X-0.135000X-0.185000X0.135000X-0.185000X0*%
%ADD40RoundRect,0.087500X0.187500X0.087500X-0.187500X0.087500X-0.187500X-0.087500X0.187500X-0.087500X0*%
%ADD41RoundRect,0.087500X0.087500X0.187500X-0.087500X0.187500X-0.087500X-0.187500X0.087500X-0.187500X0*%
G04 APERTURE END LIST*
D10*
X160241212Y-80406678D02*
X160741212Y-81906678D01*
X160741212Y-81906678D02*
X161241212Y-80406678D01*
X162455497Y-80406678D02*
X161741211Y-80406678D01*
X161741211Y-80406678D02*
X161669783Y-81120964D01*
X161669783Y-81120964D02*
X161741211Y-81049535D01*
X161741211Y-81049535D02*
X161884069Y-80978107D01*
X161884069Y-80978107D02*
X162241211Y-80978107D01*
X162241211Y-80978107D02*
X162384069Y-81049535D01*
X162384069Y-81049535D02*
X162455497Y-81120964D01*
X162455497Y-81120964D02*
X162526926Y-81263821D01*
X162526926Y-81263821D02*
X162526926Y-81620964D01*
X162526926Y-81620964D02*
X162455497Y-81763821D01*
X162455497Y-81763821D02*
X162384069Y-81835250D01*
X162384069Y-81835250D02*
X162241211Y-81906678D01*
X162241211Y-81906678D02*
X161884069Y-81906678D01*
X161884069Y-81906678D02*
X161741211Y-81835250D01*
X161741211Y-81835250D02*
X161669783Y-81763821D01*
X163169782Y-81763821D02*
X163241211Y-81835250D01*
X163241211Y-81835250D02*
X163169782Y-81906678D01*
X163169782Y-81906678D02*
X163098354Y-81835250D01*
X163098354Y-81835250D02*
X163169782Y-81763821D01*
X163169782Y-81763821D02*
X163169782Y-81906678D01*
X164169783Y-80406678D02*
X164312640Y-80406678D01*
X164312640Y-80406678D02*
X164455497Y-80478107D01*
X164455497Y-80478107D02*
X164526926Y-80549535D01*
X164526926Y-80549535D02*
X164598354Y-80692392D01*
X164598354Y-80692392D02*
X164669783Y-80978107D01*
X164669783Y-80978107D02*
X164669783Y-81335250D01*
X164669783Y-81335250D02*
X164598354Y-81620964D01*
X164598354Y-81620964D02*
X164526926Y-81763821D01*
X164526926Y-81763821D02*
X164455497Y-81835250D01*
X164455497Y-81835250D02*
X164312640Y-81906678D01*
X164312640Y-81906678D02*
X164169783Y-81906678D01*
X164169783Y-81906678D02*
X164026926Y-81835250D01*
X164026926Y-81835250D02*
X163955497Y-81763821D01*
X163955497Y-81763821D02*
X163884068Y-81620964D01*
X163884068Y-81620964D02*
X163812640Y-81335250D01*
X163812640Y-81335250D02*
X163812640Y-80978107D01*
X163812640Y-80978107D02*
X163884068Y-80692392D01*
X163884068Y-80692392D02*
X163955497Y-80549535D01*
X163955497Y-80549535D02*
X164026926Y-80478107D01*
X164026926Y-80478107D02*
X164169783Y-80406678D01*
D11*
X160654510Y-83850828D02*
X160654510Y-82350828D01*
X160654510Y-82350828D02*
X161154510Y-83422257D01*
X161154510Y-83422257D02*
X161654510Y-82350828D01*
X161654510Y-82350828D02*
X161654510Y-83850828D01*
X162368796Y-83850828D02*
X162368796Y-82850828D01*
X162368796Y-82350828D02*
X162297368Y-82422257D01*
X162297368Y-82422257D02*
X162368796Y-82493685D01*
X162368796Y-82493685D02*
X162440225Y-82422257D01*
X162440225Y-82422257D02*
X162368796Y-82350828D01*
X162368796Y-82350828D02*
X162368796Y-82493685D01*
X163083082Y-82850828D02*
X163083082Y-83850828D01*
X163083082Y-82993685D02*
X163154511Y-82922257D01*
X163154511Y-82922257D02*
X163297368Y-82850828D01*
X163297368Y-82850828D02*
X163511654Y-82850828D01*
X163511654Y-82850828D02*
X163654511Y-82922257D01*
X163654511Y-82922257D02*
X163725940Y-83065114D01*
X163725940Y-83065114D02*
X163725940Y-83850828D01*
X164440225Y-83850828D02*
X164440225Y-82850828D01*
X164440225Y-82350828D02*
X164368797Y-82422257D01*
X164368797Y-82422257D02*
X164440225Y-82493685D01*
X164440225Y-82493685D02*
X164511654Y-82422257D01*
X164511654Y-82422257D02*
X164440225Y-82350828D01*
X164440225Y-82350828D02*
X164440225Y-82493685D01*
X165868797Y-83850828D02*
X165154511Y-83850828D01*
X165154511Y-83850828D02*
X165154511Y-82350828D01*
X166583083Y-83850828D02*
X166440226Y-83779400D01*
X166440226Y-83779400D02*
X166368797Y-83707971D01*
X166368797Y-83707971D02*
X166297369Y-83565114D01*
X166297369Y-83565114D02*
X166297369Y-83136542D01*
X166297369Y-83136542D02*
X166368797Y-82993685D01*
X166368797Y-82993685D02*
X166440226Y-82922257D01*
X166440226Y-82922257D02*
X166583083Y-82850828D01*
X166583083Y-82850828D02*
X166797369Y-82850828D01*
X166797369Y-82850828D02*
X166940226Y-82922257D01*
X166940226Y-82922257D02*
X167011655Y-82993685D01*
X167011655Y-82993685D02*
X167083083Y-83136542D01*
X167083083Y-83136542D02*
X167083083Y-83565114D01*
X167083083Y-83565114D02*
X167011655Y-83707971D01*
X167011655Y-83707971D02*
X166940226Y-83779400D01*
X166940226Y-83779400D02*
X166797369Y-83850828D01*
X166797369Y-83850828D02*
X166583083Y-83850828D01*
X168583083Y-83850828D02*
X168083083Y-83136542D01*
X167725940Y-83850828D02*
X167725940Y-82350828D01*
X167725940Y-82350828D02*
X168297369Y-82350828D01*
X168297369Y-82350828D02*
X168440226Y-82422257D01*
X168440226Y-82422257D02*
X168511655Y-82493685D01*
X168511655Y-82493685D02*
X168583083Y-82636542D01*
X168583083Y-82636542D02*
X168583083Y-82850828D01*
X168583083Y-82850828D02*
X168511655Y-82993685D01*
X168511655Y-82993685D02*
X168440226Y-83065114D01*
X168440226Y-83065114D02*
X168297369Y-83136542D01*
X168297369Y-83136542D02*
X167725940Y-83136542D01*
X169868798Y-83850828D02*
X169868798Y-83065114D01*
X169868798Y-83065114D02*
X169797369Y-82922257D01*
X169797369Y-82922257D02*
X169654512Y-82850828D01*
X169654512Y-82850828D02*
X169368798Y-82850828D01*
X169368798Y-82850828D02*
X169225940Y-82922257D01*
X169868798Y-83779400D02*
X169725940Y-83850828D01*
X169725940Y-83850828D02*
X169368798Y-83850828D01*
X169368798Y-83850828D02*
X169225940Y-83779400D01*
X169225940Y-83779400D02*
X169154512Y-83636542D01*
X169154512Y-83636542D02*
X169154512Y-83493685D01*
X169154512Y-83493685D02*
X169225940Y-83350828D01*
X169225940Y-83350828D02*
X169368798Y-83279400D01*
X169368798Y-83279400D02*
X169725940Y-83279400D01*
X169725940Y-83279400D02*
X169868798Y-83207971D01*
D12*
X161752693Y-74520038D02*
X161657455Y-74472419D01*
X161657455Y-74472419D02*
X161514598Y-74472419D01*
X161514598Y-74472419D02*
X161371741Y-74520038D01*
X161371741Y-74520038D02*
X161276503Y-74615276D01*
X161276503Y-74615276D02*
X161228884Y-74710514D01*
X161228884Y-74710514D02*
X161181265Y-74900990D01*
X161181265Y-74900990D02*
X161181265Y-75043847D01*
X161181265Y-75043847D02*
X161228884Y-75234323D01*
X161228884Y-75234323D02*
X161276503Y-75329561D01*
X161276503Y-75329561D02*
X161371741Y-75424800D01*
X161371741Y-75424800D02*
X161514598Y-75472419D01*
X161514598Y-75472419D02*
X161609836Y-75472419D01*
X161609836Y-75472419D02*
X161752693Y-75424800D01*
X161752693Y-75424800D02*
X161800312Y-75377180D01*
X161800312Y-75377180D02*
X161800312Y-75043847D01*
X161800312Y-75043847D02*
X161609836Y-75043847D01*
X162228884Y-75472419D02*
X162228884Y-74472419D01*
X162228884Y-74472419D02*
X162609836Y-74472419D01*
X162609836Y-74472419D02*
X162705074Y-74520038D01*
X162705074Y-74520038D02*
X162752693Y-74567657D01*
X162752693Y-74567657D02*
X162800312Y-74662895D01*
X162800312Y-74662895D02*
X162800312Y-74805752D01*
X162800312Y-74805752D02*
X162752693Y-74900990D01*
X162752693Y-74900990D02*
X162705074Y-74948609D01*
X162705074Y-74948609D02*
X162609836Y-74996228D01*
X162609836Y-74996228D02*
X162228884Y-74996228D01*
X163181265Y-75424800D02*
X163324122Y-75472419D01*
X163324122Y-75472419D02*
X163562217Y-75472419D01*
X163562217Y-75472419D02*
X163657455Y-75424800D01*
X163657455Y-75424800D02*
X163705074Y-75377180D01*
X163705074Y-75377180D02*
X163752693Y-75281942D01*
X163752693Y-75281942D02*
X163752693Y-75186704D01*
X163752693Y-75186704D02*
X163705074Y-75091466D01*
X163705074Y-75091466D02*
X163657455Y-75043847D01*
X163657455Y-75043847D02*
X163562217Y-74996228D01*
X163562217Y-74996228D02*
X163371741Y-74948609D01*
X163371741Y-74948609D02*
X163276503Y-74900990D01*
X163276503Y-74900990D02*
X163228884Y-74853371D01*
X163228884Y-74853371D02*
X163181265Y-74758133D01*
X163181265Y-74758133D02*
X163181265Y-74662895D01*
X163181265Y-74662895D02*
X163228884Y-74567657D01*
X163228884Y-74567657D02*
X163276503Y-74520038D01*
X163276503Y-74520038D02*
X163371741Y-74472419D01*
X163371741Y-74472419D02*
X163609836Y-74472419D01*
X163609836Y-74472419D02*
X163752693Y-74520038D01*
X148505074Y-72547419D02*
X148028884Y-72547419D01*
X148028884Y-72547419D02*
X148028884Y-71547419D01*
X148981265Y-72547419D02*
X148886027Y-72499800D01*
X148886027Y-72499800D02*
X148838408Y-72452180D01*
X148838408Y-72452180D02*
X148790789Y-72356942D01*
X148790789Y-72356942D02*
X148790789Y-72071228D01*
X148790789Y-72071228D02*
X148838408Y-71975990D01*
X148838408Y-71975990D02*
X148886027Y-71928371D01*
X148886027Y-71928371D02*
X148981265Y-71880752D01*
X148981265Y-71880752D02*
X149124122Y-71880752D01*
X149124122Y-71880752D02*
X149219360Y-71928371D01*
X149219360Y-71928371D02*
X149266979Y-71975990D01*
X149266979Y-71975990D02*
X149314598Y-72071228D01*
X149314598Y-72071228D02*
X149314598Y-72356942D01*
X149314598Y-72356942D02*
X149266979Y-72452180D01*
X149266979Y-72452180D02*
X149219360Y-72499800D01*
X149219360Y-72499800D02*
X149124122Y-72547419D01*
X149124122Y-72547419D02*
X148981265Y-72547419D01*
X150314598Y-72547419D02*
X149981265Y-72071228D01*
X149743170Y-72547419D02*
X149743170Y-71547419D01*
X149743170Y-71547419D02*
X150124122Y-71547419D01*
X150124122Y-71547419D02*
X150219360Y-71595038D01*
X150219360Y-71595038D02*
X150266979Y-71642657D01*
X150266979Y-71642657D02*
X150314598Y-71737895D01*
X150314598Y-71737895D02*
X150314598Y-71880752D01*
X150314598Y-71880752D02*
X150266979Y-71975990D01*
X150266979Y-71975990D02*
X150219360Y-72023609D01*
X150219360Y-72023609D02*
X150124122Y-72071228D01*
X150124122Y-72071228D02*
X149743170Y-72071228D01*
X150695551Y-72261704D02*
X151171741Y-72261704D01*
X150600313Y-72547419D02*
X150933646Y-71547419D01*
X150933646Y-71547419D02*
X151266979Y-72547419D01*
D13*
X153154819Y-57188094D02*
X152154819Y-57188094D01*
X152154819Y-57188094D02*
X152154819Y-56949999D01*
X152154819Y-56949999D02*
X152202438Y-56807142D01*
X152202438Y-56807142D02*
X152297676Y-56711904D01*
X152297676Y-56711904D02*
X152392914Y-56664285D01*
X152392914Y-56664285D02*
X152583390Y-56616666D01*
X152583390Y-56616666D02*
X152726247Y-56616666D01*
X152726247Y-56616666D02*
X152916723Y-56664285D01*
X152916723Y-56664285D02*
X153011961Y-56711904D01*
X153011961Y-56711904D02*
X153107200Y-56807142D01*
X153107200Y-56807142D02*
X153154819Y-56949999D01*
X153154819Y-56949999D02*
X153154819Y-57188094D01*
X153154819Y-55664285D02*
X153154819Y-56235713D01*
X153154819Y-55949999D02*
X152154819Y-55949999D01*
X152154819Y-55949999D02*
X152297676Y-56045237D01*
X152297676Y-56045237D02*
X152392914Y-56140475D01*
X152392914Y-56140475D02*
X152440533Y-56235713D01*
X156799580Y-71446666D02*
X156847200Y-71494285D01*
X156847200Y-71494285D02*
X156894819Y-71637142D01*
X156894819Y-71637142D02*
X156894819Y-71732380D01*
X156894819Y-71732380D02*
X156847200Y-71875237D01*
X156847200Y-71875237D02*
X156751961Y-71970475D01*
X156751961Y-71970475D02*
X156656723Y-72018094D01*
X156656723Y-72018094D02*
X156466247Y-72065713D01*
X156466247Y-72065713D02*
X156323390Y-72065713D01*
X156323390Y-72065713D02*
X156132914Y-72018094D01*
X156132914Y-72018094D02*
X156037676Y-71970475D01*
X156037676Y-71970475D02*
X155942438Y-71875237D01*
X155942438Y-71875237D02*
X155894819Y-71732380D01*
X155894819Y-71732380D02*
X155894819Y-71637142D01*
X155894819Y-71637142D02*
X155942438Y-71494285D01*
X155942438Y-71494285D02*
X155990057Y-71446666D01*
X155894819Y-70541904D02*
X155894819Y-71018094D01*
X155894819Y-71018094D02*
X156371009Y-71065713D01*
X156371009Y-71065713D02*
X156323390Y-71018094D01*
X156323390Y-71018094D02*
X156275771Y-70922856D01*
X156275771Y-70922856D02*
X156275771Y-70684761D01*
X156275771Y-70684761D02*
X156323390Y-70589523D01*
X156323390Y-70589523D02*
X156371009Y-70541904D01*
X156371009Y-70541904D02*
X156466247Y-70494285D01*
X156466247Y-70494285D02*
X156704342Y-70494285D01*
X156704342Y-70494285D02*
X156799580Y-70541904D01*
X156799580Y-70541904D02*
X156847200Y-70589523D01*
X156847200Y-70589523D02*
X156894819Y-70684761D01*
X156894819Y-70684761D02*
X156894819Y-70922856D01*
X156894819Y-70922856D02*
X156847200Y-71018094D01*
X156847200Y-71018094D02*
X156799580Y-71065713D01*
X128641667Y-56282200D02*
X128784524Y-56329819D01*
X128784524Y-56329819D02*
X129022619Y-56329819D01*
X129022619Y-56329819D02*
X129117857Y-56282200D01*
X129117857Y-56282200D02*
X129165476Y-56234580D01*
X129165476Y-56234580D02*
X129213095Y-56139342D01*
X129213095Y-56139342D02*
X129213095Y-56044104D01*
X129213095Y-56044104D02*
X129165476Y-55948866D01*
X129165476Y-55948866D02*
X129117857Y-55901247D01*
X129117857Y-55901247D02*
X129022619Y-55853628D01*
X129022619Y-55853628D02*
X128832143Y-55806009D01*
X128832143Y-55806009D02*
X128736905Y-55758390D01*
X128736905Y-55758390D02*
X128689286Y-55710771D01*
X128689286Y-55710771D02*
X128641667Y-55615533D01*
X128641667Y-55615533D02*
X128641667Y-55520295D01*
X128641667Y-55520295D02*
X128689286Y-55425057D01*
X128689286Y-55425057D02*
X128736905Y-55377438D01*
X128736905Y-55377438D02*
X128832143Y-55329819D01*
X128832143Y-55329819D02*
X129070238Y-55329819D01*
X129070238Y-55329819D02*
X129213095Y-55377438D01*
X129546429Y-55329819D02*
X129784524Y-56329819D01*
X129784524Y-56329819D02*
X129975000Y-55615533D01*
X129975000Y-55615533D02*
X130165476Y-56329819D01*
X130165476Y-56329819D02*
X130403572Y-55329819D01*
X131308333Y-56329819D02*
X130736905Y-56329819D01*
X131022619Y-56329819D02*
X131022619Y-55329819D01*
X131022619Y-55329819D02*
X130927381Y-55472676D01*
X130927381Y-55472676D02*
X130832143Y-55567914D01*
X130832143Y-55567914D02*
X130736905Y-55615533D01*
X156704819Y-60186904D02*
X157514342Y-60186904D01*
X157514342Y-60186904D02*
X157609580Y-60139285D01*
X157609580Y-60139285D02*
X157657200Y-60091666D01*
X157657200Y-60091666D02*
X157704819Y-59996428D01*
X157704819Y-59996428D02*
X157704819Y-59805952D01*
X157704819Y-59805952D02*
X157657200Y-59710714D01*
X157657200Y-59710714D02*
X157609580Y-59663095D01*
X157609580Y-59663095D02*
X157514342Y-59615476D01*
X157514342Y-59615476D02*
X156704819Y-59615476D01*
X156704819Y-59234523D02*
X156704819Y-58615476D01*
X156704819Y-58615476D02*
X157085771Y-58948809D01*
X157085771Y-58948809D02*
X157085771Y-58805952D01*
X157085771Y-58805952D02*
X157133390Y-58710714D01*
X157133390Y-58710714D02*
X157181009Y-58663095D01*
X157181009Y-58663095D02*
X157276247Y-58615476D01*
X157276247Y-58615476D02*
X157514342Y-58615476D01*
X157514342Y-58615476D02*
X157609580Y-58663095D01*
X157609580Y-58663095D02*
X157657200Y-58710714D01*
X157657200Y-58710714D02*
X157704819Y-58805952D01*
X157704819Y-58805952D02*
X157704819Y-59091666D01*
X157704819Y-59091666D02*
X157657200Y-59186904D01*
X157657200Y-59186904D02*
X157609580Y-59234523D01*
X170587819Y-60714285D02*
X170587819Y-61285713D01*
X170587819Y-60999999D02*
X169587819Y-60999999D01*
X169587819Y-60999999D02*
X169730676Y-61095237D01*
X169730676Y-61095237D02*
X169825914Y-61190475D01*
X169825914Y-61190475D02*
X169873533Y-61285713D01*
X139679819Y-55274166D02*
X139203628Y-55607499D01*
X139679819Y-55845594D02*
X138679819Y-55845594D01*
X138679819Y-55845594D02*
X138679819Y-55464642D01*
X138679819Y-55464642D02*
X138727438Y-55369404D01*
X138727438Y-55369404D02*
X138775057Y-55321785D01*
X138775057Y-55321785D02*
X138870295Y-55274166D01*
X138870295Y-55274166D02*
X139013152Y-55274166D01*
X139013152Y-55274166D02*
X139108390Y-55321785D01*
X139108390Y-55321785D02*
X139156009Y-55369404D01*
X139156009Y-55369404D02*
X139203628Y-55464642D01*
X139203628Y-55464642D02*
X139203628Y-55845594D01*
X138679819Y-54940832D02*
X138679819Y-54321785D01*
X138679819Y-54321785D02*
X139060771Y-54655118D01*
X139060771Y-54655118D02*
X139060771Y-54512261D01*
X139060771Y-54512261D02*
X139108390Y-54417023D01*
X139108390Y-54417023D02*
X139156009Y-54369404D01*
X139156009Y-54369404D02*
X139251247Y-54321785D01*
X139251247Y-54321785D02*
X139489342Y-54321785D01*
X139489342Y-54321785D02*
X139584580Y-54369404D01*
X139584580Y-54369404D02*
X139632200Y-54417023D01*
X139632200Y-54417023D02*
X139679819Y-54512261D01*
X139679819Y-54512261D02*
X139679819Y-54797975D01*
X139679819Y-54797975D02*
X139632200Y-54893213D01*
X139632200Y-54893213D02*
X139584580Y-54940832D01*
D14*
X141649591Y-79941549D02*
X142282898Y-79941549D01*
X142282898Y-79941549D02*
X142357404Y-79904296D01*
X142357404Y-79904296D02*
X142394658Y-79867042D01*
X142394658Y-79867042D02*
X142431911Y-79792536D01*
X142431911Y-79792536D02*
X142431911Y-79643522D01*
X142431911Y-79643522D02*
X142394658Y-79569016D01*
X142394658Y-79569016D02*
X142357404Y-79531762D01*
X142357404Y-79531762D02*
X142282898Y-79494509D01*
X142282898Y-79494509D02*
X141649591Y-79494509D01*
X141724098Y-79159229D02*
X141686844Y-79121976D01*
X141686844Y-79121976D02*
X141649591Y-79047469D01*
X141649591Y-79047469D02*
X141649591Y-78861203D01*
X141649591Y-78861203D02*
X141686844Y-78786696D01*
X141686844Y-78786696D02*
X141724098Y-78749443D01*
X141724098Y-78749443D02*
X141798604Y-78712189D01*
X141798604Y-78712189D02*
X141873111Y-78712189D01*
X141873111Y-78712189D02*
X141984871Y-78749443D01*
X141984871Y-78749443D02*
X142431911Y-79196483D01*
X142431911Y-79196483D02*
X142431911Y-78712189D01*
D13*
X154004819Y-59791666D02*
X153528628Y-60124999D01*
X154004819Y-60363094D02*
X153004819Y-60363094D01*
X153004819Y-60363094D02*
X153004819Y-59982142D01*
X153004819Y-59982142D02*
X153052438Y-59886904D01*
X153052438Y-59886904D02*
X153100057Y-59839285D01*
X153100057Y-59839285D02*
X153195295Y-59791666D01*
X153195295Y-59791666D02*
X153338152Y-59791666D01*
X153338152Y-59791666D02*
X153433390Y-59839285D01*
X153433390Y-59839285D02*
X153481009Y-59886904D01*
X153481009Y-59886904D02*
X153528628Y-59982142D01*
X153528628Y-59982142D02*
X153528628Y-60363094D01*
X153433390Y-59220237D02*
X153385771Y-59315475D01*
X153385771Y-59315475D02*
X153338152Y-59363094D01*
X153338152Y-59363094D02*
X153242914Y-59410713D01*
X153242914Y-59410713D02*
X153195295Y-59410713D01*
X153195295Y-59410713D02*
X153100057Y-59363094D01*
X153100057Y-59363094D02*
X153052438Y-59315475D01*
X153052438Y-59315475D02*
X153004819Y-59220237D01*
X153004819Y-59220237D02*
X153004819Y-59029761D01*
X153004819Y-59029761D02*
X153052438Y-58934523D01*
X153052438Y-58934523D02*
X153100057Y-58886904D01*
X153100057Y-58886904D02*
X153195295Y-58839285D01*
X153195295Y-58839285D02*
X153242914Y-58839285D01*
X153242914Y-58839285D02*
X153338152Y-58886904D01*
X153338152Y-58886904D02*
X153385771Y-58934523D01*
X153385771Y-58934523D02*
X153433390Y-59029761D01*
X153433390Y-59029761D02*
X153433390Y-59220237D01*
X153433390Y-59220237D02*
X153481009Y-59315475D01*
X153481009Y-59315475D02*
X153528628Y-59363094D01*
X153528628Y-59363094D02*
X153623866Y-59410713D01*
X153623866Y-59410713D02*
X153814342Y-59410713D01*
X153814342Y-59410713D02*
X153909580Y-59363094D01*
X153909580Y-59363094D02*
X153957200Y-59315475D01*
X153957200Y-59315475D02*
X154004819Y-59220237D01*
X154004819Y-59220237D02*
X154004819Y-59029761D01*
X154004819Y-59029761D02*
X153957200Y-58934523D01*
X153957200Y-58934523D02*
X153909580Y-58886904D01*
X153909580Y-58886904D02*
X153814342Y-58839285D01*
X153814342Y-58839285D02*
X153623866Y-58839285D01*
X153623866Y-58839285D02*
X153528628Y-58886904D01*
X153528628Y-58886904D02*
X153481009Y-58934523D01*
X153481009Y-58934523D02*
X153433390Y-59029761D01*
X154129819Y-68091666D02*
X153653628Y-68424999D01*
X154129819Y-68663094D02*
X153129819Y-68663094D01*
X153129819Y-68663094D02*
X153129819Y-68282142D01*
X153129819Y-68282142D02*
X153177438Y-68186904D01*
X153177438Y-68186904D02*
X153225057Y-68139285D01*
X153225057Y-68139285D02*
X153320295Y-68091666D01*
X153320295Y-68091666D02*
X153463152Y-68091666D01*
X153463152Y-68091666D02*
X153558390Y-68139285D01*
X153558390Y-68139285D02*
X153606009Y-68186904D01*
X153606009Y-68186904D02*
X153653628Y-68282142D01*
X153653628Y-68282142D02*
X153653628Y-68663094D01*
X153129819Y-67186904D02*
X153129819Y-67663094D01*
X153129819Y-67663094D02*
X153606009Y-67710713D01*
X153606009Y-67710713D02*
X153558390Y-67663094D01*
X153558390Y-67663094D02*
X153510771Y-67567856D01*
X153510771Y-67567856D02*
X153510771Y-67329761D01*
X153510771Y-67329761D02*
X153558390Y-67234523D01*
X153558390Y-67234523D02*
X153606009Y-67186904D01*
X153606009Y-67186904D02*
X153701247Y-67139285D01*
X153701247Y-67139285D02*
X153939342Y-67139285D01*
X153939342Y-67139285D02*
X154034580Y-67186904D01*
X154034580Y-67186904D02*
X154082200Y-67234523D01*
X154082200Y-67234523D02*
X154129819Y-67329761D01*
X154129819Y-67329761D02*
X154129819Y-67567856D01*
X154129819Y-67567856D02*
X154082200Y-67663094D01*
X154082200Y-67663094D02*
X154034580Y-67710713D01*
X139584580Y-57479166D02*
X139632200Y-57526785D01*
X139632200Y-57526785D02*
X139679819Y-57669642D01*
X139679819Y-57669642D02*
X139679819Y-57764880D01*
X139679819Y-57764880D02*
X139632200Y-57907737D01*
X139632200Y-57907737D02*
X139536961Y-58002975D01*
X139536961Y-58002975D02*
X139441723Y-58050594D01*
X139441723Y-58050594D02*
X139251247Y-58098213D01*
X139251247Y-58098213D02*
X139108390Y-58098213D01*
X139108390Y-58098213D02*
X138917914Y-58050594D01*
X138917914Y-58050594D02*
X138822676Y-58002975D01*
X138822676Y-58002975D02*
X138727438Y-57907737D01*
X138727438Y-57907737D02*
X138679819Y-57764880D01*
X138679819Y-57764880D02*
X138679819Y-57669642D01*
X138679819Y-57669642D02*
X138727438Y-57526785D01*
X138727438Y-57526785D02*
X138775057Y-57479166D01*
X139013152Y-56622023D02*
X139679819Y-56622023D01*
X138632200Y-56860118D02*
X139346485Y-57098213D01*
X139346485Y-57098213D02*
X139346485Y-56479166D01*
X149879761Y-62750057D02*
X149784523Y-62702438D01*
X149784523Y-62702438D02*
X149689285Y-62607200D01*
X149689285Y-62607200D02*
X149546428Y-62464342D01*
X149546428Y-62464342D02*
X149451190Y-62416723D01*
X149451190Y-62416723D02*
X149355952Y-62416723D01*
X149403571Y-62654819D02*
X149308333Y-62607200D01*
X149308333Y-62607200D02*
X149213095Y-62511961D01*
X149213095Y-62511961D02*
X149165476Y-62321485D01*
X149165476Y-62321485D02*
X149165476Y-61988152D01*
X149165476Y-61988152D02*
X149213095Y-61797676D01*
X149213095Y-61797676D02*
X149308333Y-61702438D01*
X149308333Y-61702438D02*
X149403571Y-61654819D01*
X149403571Y-61654819D02*
X149594047Y-61654819D01*
X149594047Y-61654819D02*
X149689285Y-61702438D01*
X149689285Y-61702438D02*
X149784523Y-61797676D01*
X149784523Y-61797676D02*
X149832142Y-61988152D01*
X149832142Y-61988152D02*
X149832142Y-62321485D01*
X149832142Y-62321485D02*
X149784523Y-62511961D01*
X149784523Y-62511961D02*
X149689285Y-62607200D01*
X149689285Y-62607200D02*
X149594047Y-62654819D01*
X149594047Y-62654819D02*
X149403571Y-62654819D01*
X150784523Y-62654819D02*
X150213095Y-62654819D01*
X150498809Y-62654819D02*
X150498809Y-61654819D01*
X150498809Y-61654819D02*
X150403571Y-61797676D01*
X150403571Y-61797676D02*
X150308333Y-61892914D01*
X150308333Y-61892914D02*
X150213095Y-61940533D01*
X131484580Y-83291666D02*
X131532200Y-83339285D01*
X131532200Y-83339285D02*
X131579819Y-83482142D01*
X131579819Y-83482142D02*
X131579819Y-83577380D01*
X131579819Y-83577380D02*
X131532200Y-83720237D01*
X131532200Y-83720237D02*
X131436961Y-83815475D01*
X131436961Y-83815475D02*
X131341723Y-83863094D01*
X131341723Y-83863094D02*
X131151247Y-83910713D01*
X131151247Y-83910713D02*
X131008390Y-83910713D01*
X131008390Y-83910713D02*
X130817914Y-83863094D01*
X130817914Y-83863094D02*
X130722676Y-83815475D01*
X130722676Y-83815475D02*
X130627438Y-83720237D01*
X130627438Y-83720237D02*
X130579819Y-83577380D01*
X130579819Y-83577380D02*
X130579819Y-83482142D01*
X130579819Y-83482142D02*
X130627438Y-83339285D01*
X130627438Y-83339285D02*
X130675057Y-83291666D01*
X131579819Y-82339285D02*
X131579819Y-82910713D01*
X131579819Y-82624999D02*
X130579819Y-82624999D01*
X130579819Y-82624999D02*
X130722676Y-82720237D01*
X130722676Y-82720237D02*
X130817914Y-82815475D01*
X130817914Y-82815475D02*
X130865533Y-82910713D01*
X147215476Y-67162295D02*
X147215476Y-67809914D01*
X147215476Y-67809914D02*
X147253571Y-67886104D01*
X147253571Y-67886104D02*
X147291666Y-67924200D01*
X147291666Y-67924200D02*
X147367857Y-67962295D01*
X147367857Y-67962295D02*
X147520238Y-67962295D01*
X147520238Y-67962295D02*
X147596428Y-67924200D01*
X147596428Y-67924200D02*
X147634523Y-67886104D01*
X147634523Y-67886104D02*
X147672619Y-67809914D01*
X147672619Y-67809914D02*
X147672619Y-67162295D01*
X148434523Y-67162295D02*
X148053571Y-67162295D01*
X148053571Y-67162295D02*
X148015475Y-67543247D01*
X148015475Y-67543247D02*
X148053571Y-67505152D01*
X148053571Y-67505152D02*
X148129761Y-67467057D01*
X148129761Y-67467057D02*
X148320237Y-67467057D01*
X148320237Y-67467057D02*
X148396428Y-67505152D01*
X148396428Y-67505152D02*
X148434523Y-67543247D01*
X148434523Y-67543247D02*
X148472618Y-67619438D01*
X148472618Y-67619438D02*
X148472618Y-67809914D01*
X148472618Y-67809914D02*
X148434523Y-67886104D01*
X148434523Y-67886104D02*
X148396428Y-67924200D01*
X148396428Y-67924200D02*
X148320237Y-67962295D01*
X148320237Y-67962295D02*
X148129761Y-67962295D01*
X148129761Y-67962295D02*
X148053571Y-67924200D01*
X148053571Y-67924200D02*
X148015475Y-67886104D01*
X133959580Y-83416666D02*
X134007200Y-83464285D01*
X134007200Y-83464285D02*
X134054819Y-83607142D01*
X134054819Y-83607142D02*
X134054819Y-83702380D01*
X134054819Y-83702380D02*
X134007200Y-83845237D01*
X134007200Y-83845237D02*
X133911961Y-83940475D01*
X133911961Y-83940475D02*
X133816723Y-83988094D01*
X133816723Y-83988094D02*
X133626247Y-84035713D01*
X133626247Y-84035713D02*
X133483390Y-84035713D01*
X133483390Y-84035713D02*
X133292914Y-83988094D01*
X133292914Y-83988094D02*
X133197676Y-83940475D01*
X133197676Y-83940475D02*
X133102438Y-83845237D01*
X133102438Y-83845237D02*
X133054819Y-83702380D01*
X133054819Y-83702380D02*
X133054819Y-83607142D01*
X133054819Y-83607142D02*
X133102438Y-83464285D01*
X133102438Y-83464285D02*
X133150057Y-83416666D01*
X133054819Y-83083332D02*
X133054819Y-82464285D01*
X133054819Y-82464285D02*
X133435771Y-82797618D01*
X133435771Y-82797618D02*
X133435771Y-82654761D01*
X133435771Y-82654761D02*
X133483390Y-82559523D01*
X133483390Y-82559523D02*
X133531009Y-82511904D01*
X133531009Y-82511904D02*
X133626247Y-82464285D01*
X133626247Y-82464285D02*
X133864342Y-82464285D01*
X133864342Y-82464285D02*
X133959580Y-82511904D01*
X133959580Y-82511904D02*
X134007200Y-82559523D01*
X134007200Y-82559523D02*
X134054819Y-82654761D01*
X134054819Y-82654761D02*
X134054819Y-82940475D01*
X134054819Y-82940475D02*
X134007200Y-83035713D01*
X134007200Y-83035713D02*
X133959580Y-83083332D01*
X157629819Y-56204166D02*
X157153628Y-56537499D01*
X157629819Y-56775594D02*
X156629819Y-56775594D01*
X156629819Y-56775594D02*
X156629819Y-56394642D01*
X156629819Y-56394642D02*
X156677438Y-56299404D01*
X156677438Y-56299404D02*
X156725057Y-56251785D01*
X156725057Y-56251785D02*
X156820295Y-56204166D01*
X156820295Y-56204166D02*
X156963152Y-56204166D01*
X156963152Y-56204166D02*
X157058390Y-56251785D01*
X157058390Y-56251785D02*
X157106009Y-56299404D01*
X157106009Y-56299404D02*
X157153628Y-56394642D01*
X157153628Y-56394642D02*
X157153628Y-56775594D01*
X156629819Y-55870832D02*
X156629819Y-55204166D01*
X156629819Y-55204166D02*
X157629819Y-55632737D01*
X159238095Y-74704819D02*
X159238095Y-75514342D01*
X159238095Y-75514342D02*
X159285714Y-75609580D01*
X159285714Y-75609580D02*
X159333333Y-75657200D01*
X159333333Y-75657200D02*
X159428571Y-75704819D01*
X159428571Y-75704819D02*
X159619047Y-75704819D01*
X159619047Y-75704819D02*
X159714285Y-75657200D01*
X159714285Y-75657200D02*
X159761904Y-75609580D01*
X159761904Y-75609580D02*
X159809523Y-75514342D01*
X159809523Y-75514342D02*
X159809523Y-74704819D01*
X160714285Y-74704819D02*
X160523809Y-74704819D01*
X160523809Y-74704819D02*
X160428571Y-74752438D01*
X160428571Y-74752438D02*
X160380952Y-74800057D01*
X160380952Y-74800057D02*
X160285714Y-74942914D01*
X160285714Y-74942914D02*
X160238095Y-75133390D01*
X160238095Y-75133390D02*
X160238095Y-75514342D01*
X160238095Y-75514342D02*
X160285714Y-75609580D01*
X160285714Y-75609580D02*
X160333333Y-75657200D01*
X160333333Y-75657200D02*
X160428571Y-75704819D01*
X160428571Y-75704819D02*
X160619047Y-75704819D01*
X160619047Y-75704819D02*
X160714285Y-75657200D01*
X160714285Y-75657200D02*
X160761904Y-75609580D01*
X160761904Y-75609580D02*
X160809523Y-75514342D01*
X160809523Y-75514342D02*
X160809523Y-75276247D01*
X160809523Y-75276247D02*
X160761904Y-75181009D01*
X160761904Y-75181009D02*
X160714285Y-75133390D01*
X160714285Y-75133390D02*
X160619047Y-75085771D01*
X160619047Y-75085771D02*
X160428571Y-75085771D01*
X160428571Y-75085771D02*
X160333333Y-75133390D01*
X160333333Y-75133390D02*
X160285714Y-75181009D01*
X160285714Y-75181009D02*
X160238095Y-75276247D01*
X164469819Y-79283333D02*
X165184104Y-79283333D01*
X165184104Y-79283333D02*
X165326961Y-79330952D01*
X165326961Y-79330952D02*
X165422200Y-79426190D01*
X165422200Y-79426190D02*
X165469819Y-79569047D01*
X165469819Y-79569047D02*
X165469819Y-79664285D01*
X165469819Y-78283333D02*
X165469819Y-78854761D01*
X165469819Y-78569047D02*
X164469819Y-78569047D01*
X164469819Y-78569047D02*
X164612676Y-78664285D01*
X164612676Y-78664285D02*
X164707914Y-78759523D01*
X164707914Y-78759523D02*
X164755533Y-78854761D01*
X152409580Y-62791666D02*
X152457200Y-62839285D01*
X152457200Y-62839285D02*
X152504819Y-62982142D01*
X152504819Y-62982142D02*
X152504819Y-63077380D01*
X152504819Y-63077380D02*
X152457200Y-63220237D01*
X152457200Y-63220237D02*
X152361961Y-63315475D01*
X152361961Y-63315475D02*
X152266723Y-63363094D01*
X152266723Y-63363094D02*
X152076247Y-63410713D01*
X152076247Y-63410713D02*
X151933390Y-63410713D01*
X151933390Y-63410713D02*
X151742914Y-63363094D01*
X151742914Y-63363094D02*
X151647676Y-63315475D01*
X151647676Y-63315475D02*
X151552438Y-63220237D01*
X151552438Y-63220237D02*
X151504819Y-63077380D01*
X151504819Y-63077380D02*
X151504819Y-62982142D01*
X151504819Y-62982142D02*
X151552438Y-62839285D01*
X151552438Y-62839285D02*
X151600057Y-62791666D01*
X151504819Y-62458332D02*
X151504819Y-61791666D01*
X151504819Y-61791666D02*
X152504819Y-62220237D01*
X145029819Y-65066666D02*
X144553628Y-65399999D01*
X145029819Y-65638094D02*
X144029819Y-65638094D01*
X144029819Y-65638094D02*
X144029819Y-65257142D01*
X144029819Y-65257142D02*
X144077438Y-65161904D01*
X144077438Y-65161904D02*
X144125057Y-65114285D01*
X144125057Y-65114285D02*
X144220295Y-65066666D01*
X144220295Y-65066666D02*
X144363152Y-65066666D01*
X144363152Y-65066666D02*
X144458390Y-65114285D01*
X144458390Y-65114285D02*
X144506009Y-65161904D01*
X144506009Y-65161904D02*
X144553628Y-65257142D01*
X144553628Y-65257142D02*
X144553628Y-65638094D01*
X144029819Y-64209523D02*
X144029819Y-64399999D01*
X144029819Y-64399999D02*
X144077438Y-64495237D01*
X144077438Y-64495237D02*
X144125057Y-64542856D01*
X144125057Y-64542856D02*
X144267914Y-64638094D01*
X144267914Y-64638094D02*
X144458390Y-64685713D01*
X144458390Y-64685713D02*
X144839342Y-64685713D01*
X144839342Y-64685713D02*
X144934580Y-64638094D01*
X144934580Y-64638094D02*
X144982200Y-64590475D01*
X144982200Y-64590475D02*
X145029819Y-64495237D01*
X145029819Y-64495237D02*
X145029819Y-64304761D01*
X145029819Y-64304761D02*
X144982200Y-64209523D01*
X144982200Y-64209523D02*
X144934580Y-64161904D01*
X144934580Y-64161904D02*
X144839342Y-64114285D01*
X144839342Y-64114285D02*
X144601247Y-64114285D01*
X144601247Y-64114285D02*
X144506009Y-64161904D01*
X144506009Y-64161904D02*
X144458390Y-64209523D01*
X144458390Y-64209523D02*
X144410771Y-64304761D01*
X144410771Y-64304761D02*
X144410771Y-64495237D01*
X144410771Y-64495237D02*
X144458390Y-64590475D01*
X144458390Y-64590475D02*
X144506009Y-64638094D01*
X144506009Y-64638094D02*
X144601247Y-64685713D01*
X144804819Y-62241666D02*
X144328628Y-62574999D01*
X144804819Y-62813094D02*
X143804819Y-62813094D01*
X143804819Y-62813094D02*
X143804819Y-62432142D01*
X143804819Y-62432142D02*
X143852438Y-62336904D01*
X143852438Y-62336904D02*
X143900057Y-62289285D01*
X143900057Y-62289285D02*
X143995295Y-62241666D01*
X143995295Y-62241666D02*
X144138152Y-62241666D01*
X144138152Y-62241666D02*
X144233390Y-62289285D01*
X144233390Y-62289285D02*
X144281009Y-62336904D01*
X144281009Y-62336904D02*
X144328628Y-62432142D01*
X144328628Y-62432142D02*
X144328628Y-62813094D01*
X143900057Y-61860713D02*
X143852438Y-61813094D01*
X143852438Y-61813094D02*
X143804819Y-61717856D01*
X143804819Y-61717856D02*
X143804819Y-61479761D01*
X143804819Y-61479761D02*
X143852438Y-61384523D01*
X143852438Y-61384523D02*
X143900057Y-61336904D01*
X143900057Y-61336904D02*
X143995295Y-61289285D01*
X143995295Y-61289285D02*
X144090533Y-61289285D01*
X144090533Y-61289285D02*
X144233390Y-61336904D01*
X144233390Y-61336904D02*
X144804819Y-61908332D01*
X144804819Y-61908332D02*
X144804819Y-61289285D01*
X156663095Y-74354819D02*
X156663095Y-75164342D01*
X156663095Y-75164342D02*
X156710714Y-75259580D01*
X156710714Y-75259580D02*
X156758333Y-75307200D01*
X156758333Y-75307200D02*
X156853571Y-75354819D01*
X156853571Y-75354819D02*
X157044047Y-75354819D01*
X157044047Y-75354819D02*
X157139285Y-75307200D01*
X157139285Y-75307200D02*
X157186904Y-75259580D01*
X157186904Y-75259580D02*
X157234523Y-75164342D01*
X157234523Y-75164342D02*
X157234523Y-74354819D01*
X158234523Y-75354819D02*
X157663095Y-75354819D01*
X157948809Y-75354819D02*
X157948809Y-74354819D01*
X157948809Y-74354819D02*
X157853571Y-74497676D01*
X157853571Y-74497676D02*
X157758333Y-74592914D01*
X157758333Y-74592914D02*
X157663095Y-74640533D01*
X158434580Y-79566666D02*
X158482200Y-79614285D01*
X158482200Y-79614285D02*
X158529819Y-79757142D01*
X158529819Y-79757142D02*
X158529819Y-79852380D01*
X158529819Y-79852380D02*
X158482200Y-79995237D01*
X158482200Y-79995237D02*
X158386961Y-80090475D01*
X158386961Y-80090475D02*
X158291723Y-80138094D01*
X158291723Y-80138094D02*
X158101247Y-80185713D01*
X158101247Y-80185713D02*
X157958390Y-80185713D01*
X157958390Y-80185713D02*
X157767914Y-80138094D01*
X157767914Y-80138094D02*
X157672676Y-80090475D01*
X157672676Y-80090475D02*
X157577438Y-79995237D01*
X157577438Y-79995237D02*
X157529819Y-79852380D01*
X157529819Y-79852380D02*
X157529819Y-79757142D01*
X157529819Y-79757142D02*
X157577438Y-79614285D01*
X157577438Y-79614285D02*
X157625057Y-79566666D01*
X157529819Y-78709523D02*
X157529819Y-78899999D01*
X157529819Y-78899999D02*
X157577438Y-78995237D01*
X157577438Y-78995237D02*
X157625057Y-79042856D01*
X157625057Y-79042856D02*
X157767914Y-79138094D01*
X157767914Y-79138094D02*
X157958390Y-79185713D01*
X157958390Y-79185713D02*
X158339342Y-79185713D01*
X158339342Y-79185713D02*
X158434580Y-79138094D01*
X158434580Y-79138094D02*
X158482200Y-79090475D01*
X158482200Y-79090475D02*
X158529819Y-78995237D01*
X158529819Y-78995237D02*
X158529819Y-78804761D01*
X158529819Y-78804761D02*
X158482200Y-78709523D01*
X158482200Y-78709523D02*
X158434580Y-78661904D01*
X158434580Y-78661904D02*
X158339342Y-78614285D01*
X158339342Y-78614285D02*
X158101247Y-78614285D01*
X158101247Y-78614285D02*
X158006009Y-78661904D01*
X158006009Y-78661904D02*
X157958390Y-78709523D01*
X157958390Y-78709523D02*
X157910771Y-78804761D01*
X157910771Y-78804761D02*
X157910771Y-78995237D01*
X157910771Y-78995237D02*
X157958390Y-79090475D01*
X157958390Y-79090475D02*
X158006009Y-79138094D01*
X158006009Y-79138094D02*
X158101247Y-79185713D01*
X126433333Y-81629819D02*
X126100000Y-81153628D01*
X125861905Y-81629819D02*
X125861905Y-80629819D01*
X125861905Y-80629819D02*
X126242857Y-80629819D01*
X126242857Y-80629819D02*
X126338095Y-80677438D01*
X126338095Y-80677438D02*
X126385714Y-80725057D01*
X126385714Y-80725057D02*
X126433333Y-80820295D01*
X126433333Y-80820295D02*
X126433333Y-80963152D01*
X126433333Y-80963152D02*
X126385714Y-81058390D01*
X126385714Y-81058390D02*
X126338095Y-81106009D01*
X126338095Y-81106009D02*
X126242857Y-81153628D01*
X126242857Y-81153628D02*
X125861905Y-81153628D01*
X127385714Y-81629819D02*
X126814286Y-81629819D01*
X127100000Y-81629819D02*
X127100000Y-80629819D01*
X127100000Y-80629819D02*
X127004762Y-80772676D01*
X127004762Y-80772676D02*
X126909524Y-80867914D01*
X126909524Y-80867914D02*
X126814286Y-80915533D01*
X144684580Y-59416666D02*
X144732200Y-59464285D01*
X144732200Y-59464285D02*
X144779819Y-59607142D01*
X144779819Y-59607142D02*
X144779819Y-59702380D01*
X144779819Y-59702380D02*
X144732200Y-59845237D01*
X144732200Y-59845237D02*
X144636961Y-59940475D01*
X144636961Y-59940475D02*
X144541723Y-59988094D01*
X144541723Y-59988094D02*
X144351247Y-60035713D01*
X144351247Y-60035713D02*
X144208390Y-60035713D01*
X144208390Y-60035713D02*
X144017914Y-59988094D01*
X144017914Y-59988094D02*
X143922676Y-59940475D01*
X143922676Y-59940475D02*
X143827438Y-59845237D01*
X143827438Y-59845237D02*
X143779819Y-59702380D01*
X143779819Y-59702380D02*
X143779819Y-59607142D01*
X143779819Y-59607142D02*
X143827438Y-59464285D01*
X143827438Y-59464285D02*
X143875057Y-59416666D01*
X144208390Y-58845237D02*
X144160771Y-58940475D01*
X144160771Y-58940475D02*
X144113152Y-58988094D01*
X144113152Y-58988094D02*
X144017914Y-59035713D01*
X144017914Y-59035713D02*
X143970295Y-59035713D01*
X143970295Y-59035713D02*
X143875057Y-58988094D01*
X143875057Y-58988094D02*
X143827438Y-58940475D01*
X143827438Y-58940475D02*
X143779819Y-58845237D01*
X143779819Y-58845237D02*
X143779819Y-58654761D01*
X143779819Y-58654761D02*
X143827438Y-58559523D01*
X143827438Y-58559523D02*
X143875057Y-58511904D01*
X143875057Y-58511904D02*
X143970295Y-58464285D01*
X143970295Y-58464285D02*
X144017914Y-58464285D01*
X144017914Y-58464285D02*
X144113152Y-58511904D01*
X144113152Y-58511904D02*
X144160771Y-58559523D01*
X144160771Y-58559523D02*
X144208390Y-58654761D01*
X144208390Y-58654761D02*
X144208390Y-58845237D01*
X144208390Y-58845237D02*
X144256009Y-58940475D01*
X144256009Y-58940475D02*
X144303628Y-58988094D01*
X144303628Y-58988094D02*
X144398866Y-59035713D01*
X144398866Y-59035713D02*
X144589342Y-59035713D01*
X144589342Y-59035713D02*
X144684580Y-58988094D01*
X144684580Y-58988094D02*
X144732200Y-58940475D01*
X144732200Y-58940475D02*
X144779819Y-58845237D01*
X144779819Y-58845237D02*
X144779819Y-58654761D01*
X144779819Y-58654761D02*
X144732200Y-58559523D01*
X144732200Y-58559523D02*
X144684580Y-58511904D01*
X144684580Y-58511904D02*
X144589342Y-58464285D01*
X144589342Y-58464285D02*
X144398866Y-58464285D01*
X144398866Y-58464285D02*
X144303628Y-58511904D01*
X144303628Y-58511904D02*
X144256009Y-58559523D01*
X144256009Y-58559523D02*
X144208390Y-58654761D01*
X156138095Y-68804819D02*
X156138095Y-69614342D01*
X156138095Y-69614342D02*
X156185714Y-69709580D01*
X156185714Y-69709580D02*
X156233333Y-69757200D01*
X156233333Y-69757200D02*
X156328571Y-69804819D01*
X156328571Y-69804819D02*
X156519047Y-69804819D01*
X156519047Y-69804819D02*
X156614285Y-69757200D01*
X156614285Y-69757200D02*
X156661904Y-69709580D01*
X156661904Y-69709580D02*
X156709523Y-69614342D01*
X156709523Y-69614342D02*
X156709523Y-68804819D01*
X157614285Y-69138152D02*
X157614285Y-69804819D01*
X157376190Y-68757200D02*
X157138095Y-69471485D01*
X157138095Y-69471485D02*
X157757142Y-69471485D01*
D12*
X153800000Y-57310000D02*
G75*
G02*
X153700000Y-57310000I-50000J0D01*
G01*
X153700000Y-57310000D02*
G75*
G02*
X153800000Y-57310000I50000J0D01*
G01*
D15*
X157240000Y-71387836D02*
X157240000Y-71172164D01*
X157960000Y-71387836D02*
X157960000Y-71172164D01*
X132500000Y-54462500D02*
X135800000Y-54462500D01*
X132500000Y-54762500D02*
X132500000Y-54462500D01*
X132500000Y-56962500D02*
X132500000Y-57262500D01*
X132500000Y-57262500D02*
X135800000Y-57262500D01*
X135800000Y-54462500D02*
X135800000Y-54762500D01*
X135800000Y-57262500D02*
X135800000Y-56962500D01*
X159383000Y-61250000D02*
X159383000Y-71250000D01*
X159383000Y-61250000D02*
X160033000Y-61250000D01*
X159383000Y-71250000D02*
X160033000Y-71250000D01*
X161633000Y-61246200D02*
X161033000Y-61246200D01*
X161657200Y-71253800D02*
X161047600Y-71253800D01*
X163232000Y-61246200D02*
X162632000Y-61246200D01*
X163233000Y-71250000D02*
X162683000Y-71250000D01*
X166133000Y-61246200D02*
X164283000Y-61246200D01*
X166133000Y-71250000D02*
X164233000Y-71250000D01*
X167733000Y-61246200D02*
X167133000Y-61246200D01*
X167733000Y-71250000D02*
X167133000Y-71250000D01*
X169383000Y-61250000D02*
X168733000Y-61250000D01*
X169383000Y-61250000D02*
X169383000Y-71250000D01*
X169383000Y-71250000D02*
X168733000Y-71250000D01*
X168290210Y-63964000D02*
G75*
G02*
X167571790Y-63964000I-359210J0D01*
G01*
X167571790Y-63964000D02*
G75*
G02*
X168290210Y-63964000I359210J0D01*
G01*
X168110605Y-63964000D02*
G75*
G02*
X167751395Y-63964000I-179605J0D01*
G01*
X167751395Y-63964000D02*
G75*
G02*
X168110605Y-63964000I179605J0D01*
G01*
X168058000Y-63964000D02*
G75*
G02*
X167804000Y-63964000I-127000J0D01*
G01*
X167804000Y-63964000D02*
G75*
G02*
X168058000Y-63964000I127000J0D01*
G01*
X168185000Y-63964000D02*
G75*
G02*
X167677000Y-63964000I-254000J0D01*
G01*
X167677000Y-63964000D02*
G75*
G02*
X168185000Y-63964000I254000J0D01*
G01*
X137545000Y-54968859D02*
X137545000Y-55276141D01*
X138305000Y-54968859D02*
X138305000Y-55276141D01*
D16*
X119604500Y-73132872D02*
X119604500Y-65137600D01*
X120104500Y-64637600D02*
X121114500Y-64637600D01*
D12*
X121114500Y-62156600D02*
X121114500Y-76126600D01*
D16*
X121114500Y-73636600D02*
X120104228Y-73632872D01*
D12*
X140164500Y-60251600D02*
X123019500Y-60251600D01*
X140164500Y-78031600D02*
X123019500Y-78031600D01*
X142069500Y-76126600D02*
X142069500Y-62156600D01*
D16*
X119604500Y-65137600D02*
G75*
G02*
X120104500Y-64637600I500000J0D01*
G01*
X120104228Y-73632872D02*
G75*
G02*
X119604501Y-73132872I291J500018D01*
G01*
D12*
X121114500Y-62156600D02*
G75*
G02*
X123019500Y-60251600I1905000J0D01*
G01*
X123015500Y-78031600D02*
G75*
G02*
X121110500Y-76126600I1J1905001D01*
G01*
X140164500Y-60251600D02*
G75*
G02*
X142069500Y-62156600I0J-1905000D01*
G01*
X142069500Y-76126600D02*
G75*
G02*
X140164500Y-78031600I-1905001J1D01*
G01*
D17*
X121782500Y-78241600D02*
G75*
G02*
X121278500Y-78241600I-252000J0D01*
G01*
X121278500Y-78241600D02*
G75*
G02*
X121782500Y-78241600I252000J0D01*
G01*
X122499500Y-76967600D02*
G75*
G02*
X121995500Y-76967600I-252000J0D01*
G01*
X121995500Y-76967600D02*
G75*
G02*
X122499500Y-76967600I252000J0D01*
G01*
D15*
X151895000Y-60061359D02*
X151895000Y-60368641D01*
X152655000Y-60061359D02*
X152655000Y-60368641D01*
X150870000Y-65906359D02*
X150870000Y-66213641D01*
X151630000Y-65906359D02*
X151630000Y-66213641D01*
X137565000Y-57149664D02*
X137565000Y-57365336D01*
X138285000Y-57149664D02*
X138285000Y-57365336D01*
X148762500Y-58165000D02*
X148112500Y-58165000D01*
X148762500Y-58165000D02*
X149412500Y-58165000D01*
X148762500Y-61285000D02*
X148112500Y-61285000D01*
X148762500Y-61285000D02*
X149412500Y-61285000D01*
X147600000Y-58215000D02*
X147360000Y-57885000D01*
X147840000Y-57885000D01*
X147600000Y-58215000D01*
G36*
X147600000Y-58215000D02*
G01*
X147360000Y-57885000D01*
X147840000Y-57885000D01*
X147600000Y-58215000D01*
G37*
X129565000Y-83597164D02*
X129565000Y-83812836D01*
X130285000Y-83597164D02*
X130285000Y-83812836D01*
D16*
X149850000Y-64376000D02*
X147850000Y-64376000D01*
X149850000Y-66574000D02*
X147850000Y-66574000D01*
D18*
X150885000Y-66125000D02*
G75*
G02*
X150685000Y-66125000I-100000J0D01*
G01*
X150685000Y-66125000D02*
G75*
G02*
X150885000Y-66125000I100000J0D01*
G01*
D15*
X132015000Y-83597164D02*
X132015000Y-83812836D01*
X132735000Y-83597164D02*
X132735000Y-83812836D01*
X155545000Y-55873859D02*
X155545000Y-56181141D01*
X156305000Y-55873859D02*
X156305000Y-56181141D01*
X158350000Y-76500000D02*
X158070000Y-76500000D01*
X158350000Y-76220000D01*
X158350000Y-76500000D01*
G36*
X158350000Y-76500000D02*
G01*
X158070000Y-76500000D01*
X158350000Y-76220000D01*
X158350000Y-76500000D01*
G37*
X158800000Y-77960000D02*
X160300000Y-77960000D01*
X158800000Y-76240000D02*
X160300000Y-76240000D01*
X166015000Y-80010000D02*
X166015000Y-78950000D01*
X167075000Y-80010000D02*
X166015000Y-80010000D01*
X168075000Y-77890000D02*
X170135000Y-77890000D01*
X168075000Y-80010000D02*
X168075000Y-77890000D01*
X168075000Y-80010000D02*
X170135000Y-80010000D01*
X170135000Y-80010000D02*
X170135000Y-77890000D01*
X152715000Y-64487836D02*
X152715000Y-64272164D01*
X153435000Y-64487836D02*
X153435000Y-64272164D01*
X145470000Y-66813641D02*
X145470000Y-66506359D01*
X146230000Y-66813641D02*
X146230000Y-66506359D01*
X145170000Y-61303641D02*
X145170000Y-60996359D01*
X145930000Y-61303641D02*
X145930000Y-60996359D01*
D16*
X144796000Y-73124750D02*
X145177000Y-73124750D01*
X144796000Y-73505750D02*
X144796000Y-73124750D01*
D15*
X145050000Y-73378750D02*
X156050000Y-73378750D01*
X145050000Y-84978750D02*
X145050000Y-73378750D01*
X156050000Y-73378750D02*
X156050000Y-84978750D01*
X156050000Y-84978750D02*
X145050000Y-84978750D01*
X159887836Y-78840000D02*
X159672164Y-78840000D01*
X159887836Y-79560000D02*
X159672164Y-79560000D01*
X124693641Y-80720000D02*
X124386359Y-80720000D01*
X124693641Y-81480000D02*
X124386359Y-81480000D01*
X145215000Y-58737164D02*
X145215000Y-58952836D01*
X145935000Y-58737164D02*
X145935000Y-58952836D01*
X155290000Y-65290000D02*
X155290000Y-65465000D01*
X155290000Y-68510000D02*
X155290000Y-68335000D01*
X155965000Y-65290000D02*
X155290000Y-65290000D01*
X155965000Y-68510000D02*
X155290000Y-68510000D01*
X157835000Y-65290000D02*
X158510000Y-65290000D01*
X157835000Y-68510000D02*
X158210000Y-68510000D01*
X158510000Y-65290000D02*
X158510000Y-65465000D01*
X158650000Y-68700000D02*
X158370000Y-68700000D01*
X158510000Y-68510000D01*
X158650000Y-68700000D01*
G36*
X158650000Y-68700000D02*
G01*
X158370000Y-68700000D01*
X158510000Y-68510000D01*
X158650000Y-68700000D01*
G37*
%LPC*%
D19*
X153750000Y-56770000D03*
X153750000Y-56130000D03*
D20*
X157600000Y-71760000D03*
X157600000Y-70800000D03*
D21*
X134150000Y-55862500D03*
D22*
X132450000Y-55862500D03*
X135850000Y-55862500D03*
D23*
X164883000Y-66250000D03*
D24*
X168233000Y-60750000D03*
X166633000Y-60750000D03*
X163733000Y-60750000D03*
X162133000Y-60750000D03*
X160533000Y-60750000D03*
X160533000Y-71750000D03*
X162133000Y-71750000D03*
X163733000Y-71750000D03*
X166633000Y-71750000D03*
X168233000Y-71750000D03*
D25*
X137925000Y-54612500D03*
X137925000Y-55632500D03*
D26*
X124031500Y-77196600D03*
X126571500Y-77196600D03*
X129111500Y-77196600D03*
X131651500Y-77196600D03*
X134191500Y-77196600D03*
X136731500Y-77196600D03*
X139271500Y-77196600D03*
X139271500Y-61031600D03*
X136731500Y-61031600D03*
X134191500Y-61031600D03*
X131651500Y-61031600D03*
X129111500Y-61031600D03*
X126571500Y-61031600D03*
X124031500Y-61031600D03*
D27*
X137183200Y-70923000D03*
X137183200Y-68383000D03*
D28*
X123010000Y-70415000D03*
X123010000Y-67875000D03*
X125550000Y-70415000D03*
X125550000Y-67875000D03*
X128090000Y-70415000D03*
X128090000Y-67875000D03*
X130630000Y-70415000D03*
X130573200Y-67967600D03*
D25*
X152275000Y-59705000D03*
X152275000Y-60725000D03*
X151250000Y-65550000D03*
X151250000Y-66570000D03*
D29*
X137925000Y-56777500D03*
X137925000Y-57737500D03*
D30*
X147825000Y-58775000D03*
X147825000Y-60675000D03*
X149700000Y-59725000D03*
D29*
X129925000Y-83225000D03*
X129925000Y-84185000D03*
D31*
X149845000Y-66125000D03*
X149845000Y-65475000D03*
X149845000Y-64825000D03*
X147855000Y-64825000D03*
X147855000Y-65475000D03*
X147855000Y-66125000D03*
D32*
X148850000Y-65475000D03*
D29*
X132375000Y-83225000D03*
X132375000Y-84185000D03*
D25*
X155925000Y-55517500D03*
X155925000Y-56537500D03*
D33*
X160250000Y-76700000D03*
X160250000Y-77500000D03*
X158850000Y-77500000D03*
X158850000Y-76700000D03*
D34*
X167075000Y-78950000D03*
D35*
X169075000Y-78950000D03*
D20*
X153075000Y-64860000D03*
X153075000Y-63900000D03*
D36*
X145850000Y-67170000D03*
X145850000Y-66150000D03*
X145550000Y-61660000D03*
X145550000Y-60640000D03*
D37*
X145350000Y-74708750D03*
X145350000Y-75978750D03*
X145350000Y-77248750D03*
X145350000Y-78518750D03*
X145350000Y-79788750D03*
X145350000Y-81058750D03*
X145350000Y-82328750D03*
X145350000Y-83598750D03*
X155750000Y-79788750D03*
X155750000Y-78518750D03*
X155750000Y-77248750D03*
X155750000Y-75978750D03*
D38*
X160260000Y-79200000D03*
X159300000Y-79200000D03*
D39*
X125050000Y-81100000D03*
X124030000Y-81100000D03*
D29*
X145575000Y-58365000D03*
X145575000Y-59325000D03*
D40*
X158125000Y-67900000D03*
X158125000Y-67400000D03*
X158125000Y-66900000D03*
X158125000Y-66400000D03*
X158125000Y-65900000D03*
D41*
X157400000Y-65675000D03*
X156900000Y-65675000D03*
X156400000Y-65675000D03*
D40*
X155675000Y-65900000D03*
X155675000Y-66400000D03*
X155675000Y-66900000D03*
X155675000Y-67400000D03*
X155675000Y-67900000D03*
D41*
X156400000Y-68125000D03*
X156900000Y-68125000D03*
X157400000Y-68125000D03*
%LPD*%
M02*
