G04 #@! TF.GenerationSoftware,KiCad,Pcbnew,8.0.8*
G04 #@! TF.CreationDate,2025-07-12T12:58:50+02:00*
G04 #@! TF.ProjectId,main,6d61696e-2e6b-4696-9361-645f70636258,rev?*
G04 #@! TF.SameCoordinates,Original*
G04 #@! TF.FileFunction,Copper,L4,Bot*
G04 #@! TF.FilePolarity,Positive*
%FSLAX46Y46*%
G04 Gerber Fmt 4.6, Leading zero omitted, Abs format (unit mm)*
G04 Created by KiCad (PCBNEW 8.0.8) date 2025-07-12 12:58:50*
%MOMM*%
%LPD*%
G01*
G04 APERTURE LIST*
G04 #@! TA.AperFunction,ComponentPad*
%ADD10R,1.350000X1.350000*%
G04 #@! TD*
G04 #@! TA.AperFunction,ComponentPad*
%ADD11O,1.350000X1.350000*%
G04 #@! TD*
G04 #@! TA.AperFunction,ViaPad*
%ADD12C,0.600000*%
G04 #@! TD*
G04 #@! TA.AperFunction,ViaPad*
%ADD13C,1.400000*%
G04 #@! TD*
G04 #@! TA.AperFunction,ViaPad*
%ADD14C,1.000000*%
G04 #@! TD*
G04 #@! TA.AperFunction,Conductor*
%ADD15C,0.200000*%
G04 #@! TD*
G04 #@! TA.AperFunction,Conductor*
%ADD16C,0.300000*%
G04 #@! TD*
G04 APERTURE END LIST*
D10*
X167075000Y-78950000D03*
D11*
X169075000Y-78950000D03*
D12*
X154800000Y-68850000D03*
X153825000Y-71250000D03*
X151675000Y-71700000D03*
X145525000Y-71600000D03*
X145525000Y-71600000D03*
X153625000Y-67525000D03*
X157537500Y-77637500D03*
X157725000Y-76600000D03*
X153020343Y-66745343D03*
X168175000Y-56875000D03*
X166450000Y-57675000D03*
X139425000Y-54600000D03*
X143250000Y-83600000D03*
X153050000Y-62950000D03*
X156750000Y-64475000D03*
X168250000Y-74675000D03*
X145845000Y-68240000D03*
X166625000Y-74650000D03*
X151250000Y-67475000D03*
X132375000Y-82200000D03*
X130575000Y-66150000D03*
X129111500Y-63375000D03*
X160225000Y-80425000D03*
X157600000Y-69625000D03*
X129925000Y-82250000D03*
X155925000Y-57462500D03*
D13*
X130575000Y-67975000D03*
D12*
X135175000Y-68383000D03*
D13*
X125550000Y-67875000D03*
D12*
X133675000Y-84525000D03*
X131125000Y-84575000D03*
X135375000Y-63375000D03*
X158175000Y-64450000D03*
X130175000Y-79625000D03*
X129025000Y-74975000D03*
X136375000Y-79450000D03*
X123150000Y-57175000D03*
X164325000Y-54775000D03*
X147075000Y-75750000D03*
X125525000Y-66350000D03*
X124400000Y-83300000D03*
X126650000Y-63300000D03*
D14*
X137183200Y-68383000D03*
D12*
X162133000Y-69450000D03*
X146750000Y-64850000D03*
X136725000Y-75125000D03*
X157949265Y-62174265D03*
X152175000Y-65725000D03*
X140325000Y-72375000D03*
X141100000Y-71650000D03*
X134125000Y-75125000D03*
X156800000Y-62475000D03*
X148475000Y-74875000D03*
X139275000Y-63200000D03*
X143925000Y-75350000D03*
X134100000Y-62900000D03*
X153737500Y-76062500D03*
X141275000Y-76648750D03*
X142650000Y-81050000D03*
X153600000Y-77250000D03*
X143300000Y-75950000D03*
X131651500Y-63051500D03*
X142550000Y-75308750D03*
X136712499Y-63350000D03*
D13*
X123010000Y-67875000D03*
D12*
X135850000Y-57987500D03*
X123025000Y-66375000D03*
D13*
X130630000Y-70415000D03*
D12*
X130500000Y-72100000D03*
X151875000Y-57637500D03*
X128125000Y-72150000D03*
D13*
X128090000Y-70415000D03*
X128090000Y-67875000D03*
D12*
X156150000Y-71500000D03*
X154425000Y-60725000D03*
D14*
X137250000Y-70900000D03*
D12*
X123025000Y-72050000D03*
D13*
X123010000Y-70415000D03*
D12*
X133887500Y-71787500D03*
D15*
X154200000Y-60950000D02*
X154425000Y-60725000D01*
X154225000Y-67773529D02*
X154225000Y-67276471D01*
X154200000Y-67798529D02*
X154225000Y-67773529D01*
X154200000Y-67251471D02*
X154200000Y-60950000D01*
X154200000Y-69550000D02*
X154200000Y-67798529D01*
X156150000Y-71500000D02*
X154200000Y-69550000D01*
X154225000Y-67276471D02*
X154200000Y-67251471D01*
X157050000Y-77150000D02*
X157537500Y-77637500D01*
X157050000Y-76000000D02*
X157050000Y-77150000D01*
X152175000Y-71125000D02*
X157050000Y-76000000D01*
X152175000Y-65725000D02*
X152175000Y-71125000D01*
X154337500Y-74362500D02*
X154337500Y-76512500D01*
X151675000Y-71700000D02*
X154337500Y-74362500D01*
X154337500Y-76512500D02*
X153600000Y-77250000D01*
X157537500Y-77637500D02*
X157600000Y-77700000D01*
X157725000Y-74100000D02*
X157725000Y-76600000D01*
X153020343Y-66745343D02*
X153020343Y-69395343D01*
X153020343Y-69395343D02*
X157725000Y-74100000D01*
X168175000Y-56875000D02*
X168233000Y-56933000D01*
X166450000Y-57675000D02*
X166525000Y-57675000D01*
X159050000Y-57675000D02*
X166450000Y-57675000D01*
X159000000Y-57725000D02*
X159050000Y-57675000D01*
X157949265Y-62174265D02*
X157949265Y-58775735D01*
X157949265Y-58775735D02*
X159000000Y-57725000D01*
X158650000Y-56800000D02*
X168100000Y-56800000D01*
X168100000Y-56800000D02*
X168175000Y-56875000D01*
X156650000Y-58800000D02*
X158650000Y-56800000D01*
X156650000Y-62325000D02*
X156650000Y-58800000D01*
X156800000Y-62475000D02*
X156650000Y-62325000D01*
X134829471Y-59025000D02*
X150487500Y-59025000D01*
X150487500Y-59025000D02*
X151875000Y-57637500D01*
X129090000Y-64764471D02*
X134829471Y-59025000D01*
X128125000Y-72150000D02*
X129090000Y-71185000D01*
X129090000Y-71185000D02*
X129090000Y-64764471D01*
X126075000Y-58625000D02*
X123025000Y-61675000D01*
X135212500Y-58625000D02*
X126075000Y-58625000D01*
X123025000Y-61675000D02*
X123025000Y-66375000D01*
X135850000Y-57987500D02*
X135212500Y-58625000D01*
X146950000Y-63700000D02*
X146800000Y-63850000D01*
X146800000Y-64800000D02*
X146750000Y-64850000D01*
X152175000Y-65725000D02*
X152175000Y-64450000D01*
X151425000Y-63700000D02*
X146950000Y-63700000D01*
X152175000Y-64450000D02*
X151425000Y-63700000D01*
X140325000Y-72375000D02*
X139475000Y-72375000D01*
X139475000Y-72375000D02*
X136725000Y-75125000D01*
X146800000Y-63850000D02*
X146800000Y-64800000D01*
X134125000Y-75125000D02*
X137600000Y-71650000D01*
X137600000Y-71650000D02*
X141100000Y-71650000D01*
X148475000Y-73125000D02*
X139350000Y-64000000D01*
X139350000Y-64000000D02*
X139350000Y-63275000D01*
X139350000Y-63275000D02*
X139275000Y-63200000D01*
X148475000Y-74875000D02*
X148475000Y-73125000D01*
X143250000Y-69001471D02*
X143250000Y-74675000D01*
X143250000Y-74675000D02*
X143925000Y-75350000D01*
X136998529Y-62750000D02*
X143250000Y-69001471D01*
X134250000Y-62750000D02*
X136998529Y-62750000D01*
X134100000Y-62900000D02*
X134250000Y-62750000D01*
X153737500Y-76062500D02*
X153750000Y-76050000D01*
X141276250Y-76650000D02*
X153150000Y-76650000D01*
X153150000Y-76650000D02*
X153737500Y-76062500D01*
X141275000Y-76648750D02*
X141276250Y-76650000D01*
X142650000Y-81050000D02*
X149800000Y-81050000D01*
X149800000Y-81050000D02*
X153600000Y-77250000D01*
X136700000Y-64175000D02*
X141950000Y-69425000D01*
X142342721Y-75950000D02*
X143300000Y-75950000D01*
X132775000Y-64175000D02*
X136700000Y-64175000D01*
X131651500Y-63051500D02*
X132775000Y-64175000D01*
X141950000Y-75557279D02*
X142342721Y-75950000D01*
X141950000Y-69425000D02*
X141950000Y-75557279D01*
X136712499Y-63350000D02*
X136750000Y-63350000D01*
X142550000Y-69150000D02*
X142550000Y-75308750D01*
X136750000Y-63350000D02*
X142550000Y-69150000D01*
D16*
X161625000Y-71500000D02*
X156150000Y-71500000D01*
X169075000Y-78950000D02*
X161625000Y-71500000D01*
D15*
X132925000Y-72750000D02*
X123725000Y-72750000D01*
X133887500Y-71787500D02*
X132925000Y-72750000D01*
X123725000Y-72750000D02*
X123025000Y-72050000D01*
G04 #@! TA.AperFunction,Conductor*
G36*
X152980703Y-70205384D02*
G01*
X152987181Y-70211416D01*
X157088181Y-74312416D01*
X157121666Y-74373739D01*
X157124500Y-74400097D01*
X157124500Y-74925903D01*
X157104815Y-74992942D01*
X157052011Y-75038697D01*
X156982853Y-75048641D01*
X156919297Y-75019616D01*
X156912819Y-75013584D01*
X152811819Y-70912584D01*
X152778334Y-70851261D01*
X152775500Y-70824903D01*
X152775500Y-70299097D01*
X152795185Y-70232058D01*
X152847989Y-70186303D01*
X152917147Y-70176359D01*
X152980703Y-70205384D01*
G37*
G04 #@! TD.AperFunction*
G04 #@! TA.AperFunction,Conductor*
G36*
X133547412Y-59245185D02*
G01*
X133593167Y-59297989D01*
X133603111Y-59367147D01*
X133574086Y-59430703D01*
X133568054Y-59437181D01*
X130002213Y-63003021D01*
X129940890Y-63036506D01*
X129871198Y-63031522D01*
X129815265Y-62989650D01*
X129809539Y-62981312D01*
X129741320Y-62872743D01*
X129741315Y-62872737D01*
X129613762Y-62745184D01*
X129461023Y-62649211D01*
X129290754Y-62589631D01*
X129290749Y-62589630D01*
X129111504Y-62569435D01*
X129111496Y-62569435D01*
X128932250Y-62589630D01*
X128932245Y-62589631D01*
X128761976Y-62649211D01*
X128609237Y-62745184D01*
X128481684Y-62872737D01*
X128385711Y-63025476D01*
X128326131Y-63195745D01*
X128326130Y-63195750D01*
X128305935Y-63374996D01*
X128305935Y-63375003D01*
X128326130Y-63554249D01*
X128326131Y-63554254D01*
X128385711Y-63724523D01*
X128481684Y-63877262D01*
X128609237Y-64004815D01*
X128609243Y-64004820D01*
X128717812Y-64073039D01*
X128764103Y-64125373D01*
X128774751Y-64194427D01*
X128746376Y-64258275D01*
X128739524Y-64265711D01*
X128721286Y-64283949D01*
X128721284Y-64283951D01*
X128685050Y-64320185D01*
X128609481Y-64395753D01*
X128609480Y-64395755D01*
X128598098Y-64415470D01*
X128554795Y-64490473D01*
X128532290Y-64529453D01*
X128530423Y-64532686D01*
X128489499Y-64685414D01*
X128489499Y-64685416D01*
X128489499Y-64853517D01*
X128489500Y-64853530D01*
X128489500Y-66579057D01*
X128469815Y-66646096D01*
X128417011Y-66691851D01*
X128347853Y-66701795D01*
X128342715Y-66700946D01*
X128201243Y-66674500D01*
X127978757Y-66674500D01*
X127760060Y-66715382D01*
X127632627Y-66764750D01*
X127552601Y-66795752D01*
X127552595Y-66795754D01*
X127363439Y-66912874D01*
X127363437Y-66912876D01*
X127199020Y-67062761D01*
X127064943Y-67240308D01*
X127064938Y-67240316D01*
X126965775Y-67439461D01*
X126965769Y-67439476D01*
X126904885Y-67653462D01*
X126904884Y-67653464D01*
X126884357Y-67874999D01*
X126884357Y-67875000D01*
X126904884Y-68096535D01*
X126904885Y-68096537D01*
X126965769Y-68310523D01*
X126965775Y-68310538D01*
X127064938Y-68509683D01*
X127064943Y-68509691D01*
X127199020Y-68687238D01*
X127363437Y-68837123D01*
X127363439Y-68837125D01*
X127552595Y-68954245D01*
X127552596Y-68954245D01*
X127552599Y-68954247D01*
X127746524Y-69029374D01*
X127801924Y-69071946D01*
X127825515Y-69137713D01*
X127809804Y-69205793D01*
X127759780Y-69254572D01*
X127746533Y-69260622D01*
X127644958Y-69299973D01*
X127552601Y-69335752D01*
X127552595Y-69335754D01*
X127363439Y-69452874D01*
X127363437Y-69452876D01*
X127199020Y-69602761D01*
X127064943Y-69780308D01*
X127064938Y-69780316D01*
X126965775Y-69979461D01*
X126965769Y-69979476D01*
X126904885Y-70193462D01*
X126904884Y-70193464D01*
X126884357Y-70414999D01*
X126884357Y-70415000D01*
X126904884Y-70636535D01*
X126904885Y-70636537D01*
X126965769Y-70850523D01*
X126965775Y-70850538D01*
X127064938Y-71049683D01*
X127064943Y-71049691D01*
X127199020Y-71227238D01*
X127363437Y-71377123D01*
X127363439Y-71377125D01*
X127478834Y-71448574D01*
X127525470Y-71500602D01*
X127536574Y-71569583D01*
X127508621Y-71633618D01*
X127501242Y-71641678D01*
X127495186Y-71647734D01*
X127399210Y-71800478D01*
X127339630Y-71970750D01*
X127331898Y-72039383D01*
X127304832Y-72103797D01*
X127247237Y-72143352D01*
X127208678Y-72149500D01*
X124025097Y-72149500D01*
X123958058Y-72129815D01*
X123937416Y-72113181D01*
X123855700Y-72031465D01*
X123822215Y-71970142D01*
X123820163Y-71957686D01*
X123810368Y-71870745D01*
X123750789Y-71700478D01*
X123666941Y-71567035D01*
X123647942Y-71499801D01*
X123668310Y-71432965D01*
X123706659Y-71395638D01*
X123736562Y-71377124D01*
X123900981Y-71227236D01*
X124035058Y-71049689D01*
X124134229Y-70850528D01*
X124195115Y-70636536D01*
X124215643Y-70415000D01*
X124195115Y-70193464D01*
X124134229Y-69979472D01*
X124131765Y-69974523D01*
X124035061Y-69780316D01*
X124035056Y-69780308D01*
X123900979Y-69602761D01*
X123736562Y-69452876D01*
X123736560Y-69452874D01*
X123547404Y-69335754D01*
X123547395Y-69335750D01*
X123453956Y-69299552D01*
X123353475Y-69260625D01*
X123298075Y-69218054D01*
X123274484Y-69152288D01*
X123290195Y-69084207D01*
X123340219Y-69035428D01*
X123353466Y-69029377D01*
X123547401Y-68954247D01*
X123736562Y-68837124D01*
X123900981Y-68687236D01*
X124035058Y-68509689D01*
X124134229Y-68310528D01*
X124195115Y-68096536D01*
X124215643Y-67875000D01*
X124210856Y-67823344D01*
X124195115Y-67653464D01*
X124195114Y-67653462D01*
X124191231Y-67639816D01*
X124134229Y-67439472D01*
X124119645Y-67410183D01*
X124035061Y-67240316D01*
X124035056Y-67240308D01*
X123900979Y-67062761D01*
X123746966Y-66922360D01*
X123710684Y-66862649D01*
X123712445Y-66792801D01*
X123725508Y-66764754D01*
X123750789Y-66724522D01*
X123810368Y-66554255D01*
X123830565Y-66375000D01*
X123829409Y-66364741D01*
X123810369Y-66195750D01*
X123810368Y-66195745D01*
X123794360Y-66149996D01*
X123750789Y-66025478D01*
X123747067Y-66019555D01*
X123674619Y-65904254D01*
X123654816Y-65872738D01*
X123654814Y-65872736D01*
X123654813Y-65872734D01*
X123652550Y-65869896D01*
X123651659Y-65867715D01*
X123651111Y-65866842D01*
X123651264Y-65866745D01*
X123626144Y-65805209D01*
X123625500Y-65792587D01*
X123625500Y-61975097D01*
X123645185Y-61908058D01*
X123661819Y-61887416D01*
X126287416Y-59261819D01*
X126348739Y-59228334D01*
X126375097Y-59225500D01*
X133480373Y-59225500D01*
X133547412Y-59245185D01*
G37*
G04 #@! TD.AperFunction*
G04 #@! TA.AperFunction,Conductor*
G36*
X138762027Y-53920185D02*
G01*
X138807782Y-53972989D01*
X138817726Y-54042147D01*
X138796805Y-54090532D01*
X138798889Y-54091842D01*
X138699211Y-54250476D01*
X138639631Y-54420745D01*
X138639630Y-54420750D01*
X138619435Y-54599996D01*
X138619435Y-54600003D01*
X138639630Y-54779249D01*
X138639631Y-54779254D01*
X138699211Y-54949523D01*
X138795184Y-55102262D01*
X138922738Y-55229816D01*
X139075478Y-55325789D01*
X139165314Y-55357224D01*
X139245745Y-55385368D01*
X139245750Y-55385369D01*
X139424996Y-55405565D01*
X139425000Y-55405565D01*
X139425004Y-55405565D01*
X139604249Y-55385369D01*
X139604252Y-55385368D01*
X139604255Y-55385368D01*
X139774522Y-55325789D01*
X139927262Y-55229816D01*
X140054816Y-55102262D01*
X140150789Y-54949522D01*
X140210368Y-54779255D01*
X140230565Y-54600000D01*
X140210368Y-54420745D01*
X140150789Y-54250478D01*
X140054816Y-54097738D01*
X140054815Y-54097737D01*
X140051111Y-54091842D01*
X140053409Y-54090397D01*
X140031659Y-54037151D01*
X140044401Y-53968453D01*
X140092261Y-53917550D01*
X140155012Y-53900500D01*
X170375500Y-53900500D01*
X170442539Y-53920185D01*
X170488294Y-53972989D01*
X170499500Y-54024500D01*
X170499500Y-78900712D01*
X170484644Y-78951304D01*
X170497193Y-78975479D01*
X170499500Y-78999287D01*
X170499500Y-84875500D01*
X170479815Y-84942539D01*
X170427011Y-84988294D01*
X170375500Y-84999500D01*
X121624500Y-84999500D01*
X121557461Y-84979815D01*
X121511706Y-84927011D01*
X121500500Y-84875500D01*
X121500500Y-83599996D01*
X142444435Y-83599996D01*
X142444435Y-83600003D01*
X142464630Y-83779249D01*
X142464631Y-83779254D01*
X142524211Y-83949523D01*
X142576536Y-84032797D01*
X142620184Y-84102262D01*
X142747738Y-84229816D01*
X142900478Y-84325789D01*
X143070745Y-84385368D01*
X143070750Y-84385369D01*
X143249996Y-84405565D01*
X143250000Y-84405565D01*
X143250004Y-84405565D01*
X143429249Y-84385369D01*
X143429252Y-84385368D01*
X143429255Y-84385368D01*
X143599522Y-84325789D01*
X143752262Y-84229816D01*
X143879816Y-84102262D01*
X143975789Y-83949522D01*
X144035368Y-83779255D01*
X144055565Y-83600000D01*
X144035368Y-83420745D01*
X143975789Y-83250478D01*
X143879816Y-83097738D01*
X143752262Y-82970184D01*
X143681608Y-82925789D01*
X143599523Y-82874211D01*
X143429254Y-82814631D01*
X143429249Y-82814630D01*
X143250004Y-82794435D01*
X143249996Y-82794435D01*
X143070750Y-82814630D01*
X143070745Y-82814631D01*
X142900476Y-82874211D01*
X142747737Y-82970184D01*
X142620184Y-83097737D01*
X142524211Y-83250476D01*
X142464631Y-83420745D01*
X142464630Y-83420750D01*
X142444435Y-83599996D01*
X121500500Y-83599996D01*
X121500500Y-82249996D01*
X129119435Y-82249996D01*
X129119435Y-82250003D01*
X129139630Y-82429249D01*
X129139631Y-82429254D01*
X129199211Y-82599523D01*
X129263767Y-82702262D01*
X129295184Y-82752262D01*
X129422738Y-82879816D01*
X129495902Y-82925788D01*
X129566557Y-82970184D01*
X129575478Y-82975789D01*
X129660573Y-83005565D01*
X129745745Y-83035368D01*
X129745750Y-83035369D01*
X129924996Y-83055565D01*
X129925000Y-83055565D01*
X129925004Y-83055565D01*
X130104249Y-83035369D01*
X130104252Y-83035368D01*
X130104255Y-83035368D01*
X130274522Y-82975789D01*
X130427262Y-82879816D01*
X130554816Y-82752262D01*
X130650789Y-82599522D01*
X130710368Y-82429255D01*
X130716002Y-82379254D01*
X130730565Y-82250003D01*
X130730565Y-82249996D01*
X130724931Y-82199996D01*
X131569435Y-82199996D01*
X131569435Y-82200003D01*
X131589630Y-82379249D01*
X131589631Y-82379254D01*
X131649211Y-82549523D01*
X131745184Y-82702262D01*
X131872738Y-82829816D01*
X132025478Y-82925789D01*
X132152352Y-82970184D01*
X132195745Y-82985368D01*
X132195750Y-82985369D01*
X132374996Y-83005565D01*
X132375000Y-83005565D01*
X132375004Y-83005565D01*
X132554249Y-82985369D01*
X132554252Y-82985368D01*
X132554255Y-82985368D01*
X132724522Y-82925789D01*
X132877262Y-82829816D01*
X133004816Y-82702262D01*
X133100789Y-82549522D01*
X133160368Y-82379255D01*
X133174931Y-82250003D01*
X133180565Y-82200003D01*
X133180565Y-82199996D01*
X133160369Y-82020750D01*
X133160368Y-82020745D01*
X133100788Y-81850476D01*
X133004815Y-81697737D01*
X132877262Y-81570184D01*
X132724523Y-81474211D01*
X132554254Y-81414631D01*
X132554249Y-81414630D01*
X132375004Y-81394435D01*
X132374996Y-81394435D01*
X132195750Y-81414630D01*
X132195745Y-81414631D01*
X132025476Y-81474211D01*
X131872737Y-81570184D01*
X131745184Y-81697737D01*
X131649211Y-81850476D01*
X131589631Y-82020745D01*
X131589630Y-82020750D01*
X131569435Y-82199996D01*
X130724931Y-82199996D01*
X130710369Y-82070750D01*
X130710368Y-82070745D01*
X130650788Y-81900476D01*
X130609878Y-81835368D01*
X130554816Y-81747738D01*
X130427262Y-81620184D01*
X130410378Y-81609575D01*
X130274523Y-81524211D01*
X130104254Y-81464631D01*
X130104249Y-81464630D01*
X129925004Y-81444435D01*
X129924996Y-81444435D01*
X129745750Y-81464630D01*
X129745745Y-81464631D01*
X129575476Y-81524211D01*
X129422737Y-81620184D01*
X129295184Y-81747737D01*
X129199211Y-81900476D01*
X129139631Y-82070745D01*
X129139630Y-82070750D01*
X129119435Y-82249996D01*
X121500500Y-82249996D01*
X121500500Y-67874999D01*
X121804357Y-67874999D01*
X121804357Y-67875000D01*
X121824884Y-68096535D01*
X121824885Y-68096537D01*
X121885769Y-68310523D01*
X121885775Y-68310538D01*
X121984938Y-68509683D01*
X121984943Y-68509691D01*
X122119020Y-68687238D01*
X122283437Y-68837123D01*
X122283439Y-68837125D01*
X122472595Y-68954245D01*
X122472596Y-68954245D01*
X122472599Y-68954247D01*
X122666524Y-69029374D01*
X122721924Y-69071946D01*
X122745515Y-69137713D01*
X122729804Y-69205793D01*
X122679780Y-69254572D01*
X122666533Y-69260622D01*
X122564958Y-69299973D01*
X122472601Y-69335752D01*
X122472595Y-69335754D01*
X122283439Y-69452874D01*
X122283437Y-69452876D01*
X122119020Y-69602761D01*
X121984943Y-69780308D01*
X121984938Y-69780316D01*
X121885775Y-69979461D01*
X121885769Y-69979476D01*
X121824885Y-70193462D01*
X121824884Y-70193464D01*
X121804357Y-70414999D01*
X121804357Y-70415000D01*
X121824884Y-70636535D01*
X121824885Y-70636537D01*
X121885769Y-70850523D01*
X121885775Y-70850538D01*
X121984938Y-71049683D01*
X121984943Y-71049691D01*
X122119020Y-71227238D01*
X122283437Y-71377123D01*
X122283439Y-71377125D01*
X122334937Y-71409011D01*
X122381573Y-71461039D01*
X122392677Y-71530020D01*
X122374654Y-71580410D01*
X122299211Y-71700476D01*
X122239631Y-71870745D01*
X122239630Y-71870750D01*
X122219435Y-72049996D01*
X122219435Y-72050003D01*
X122239630Y-72229249D01*
X122239631Y-72229254D01*
X122299211Y-72399523D01*
X122376311Y-72522226D01*
X122395184Y-72552262D01*
X122522738Y-72679816D01*
X122675478Y-72775789D01*
X122845745Y-72835368D01*
X122932669Y-72845161D01*
X122997080Y-72872226D01*
X123006465Y-72880700D01*
X123240139Y-73114374D01*
X123240149Y-73114385D01*
X123244479Y-73118715D01*
X123244480Y-73118716D01*
X123356284Y-73230520D01*
X123356286Y-73230521D01*
X123356290Y-73230524D01*
X123493209Y-73309573D01*
X123493216Y-73309577D01*
X123605019Y-73339534D01*
X123645942Y-73350500D01*
X123645943Y-73350500D01*
X132838331Y-73350500D01*
X132838347Y-73350501D01*
X132845943Y-73350501D01*
X133004054Y-73350501D01*
X133004057Y-73350501D01*
X133156785Y-73309577D01*
X133206904Y-73280639D01*
X133293716Y-73230520D01*
X133405520Y-73118716D01*
X133405520Y-73118714D01*
X133415728Y-73108507D01*
X133415730Y-73108504D01*
X133906035Y-72618198D01*
X133967356Y-72584715D01*
X133979811Y-72582663D01*
X134066755Y-72572868D01*
X134237022Y-72513289D01*
X134389762Y-72417316D01*
X134517316Y-72289762D01*
X134613289Y-72137022D01*
X134672868Y-71966755D01*
X134673892Y-71957666D01*
X134693065Y-71787503D01*
X134693065Y-71787496D01*
X134672869Y-71608250D01*
X134672868Y-71608245D01*
X134645496Y-71530020D01*
X134613289Y-71437978D01*
X134586743Y-71395731D01*
X134535284Y-71313834D01*
X134517316Y-71285238D01*
X134389762Y-71157684D01*
X134291803Y-71096132D01*
X134237023Y-71061711D01*
X134066754Y-71002131D01*
X134066749Y-71002130D01*
X133887504Y-70981935D01*
X133887496Y-70981935D01*
X133708250Y-71002130D01*
X133708245Y-71002131D01*
X133537976Y-71061711D01*
X133385237Y-71157684D01*
X133257684Y-71285237D01*
X133161710Y-71437978D01*
X133102130Y-71608250D01*
X133092337Y-71695168D01*
X133065270Y-71759582D01*
X133056798Y-71768965D01*
X132712584Y-72113181D01*
X132651261Y-72146666D01*
X132624903Y-72149500D01*
X131421956Y-72149500D01*
X131354917Y-72129815D01*
X131309162Y-72077011D01*
X131298736Y-72039384D01*
X131285369Y-71920749D01*
X131285368Y-71920745D01*
X131267872Y-71870745D01*
X131225789Y-71750478D01*
X131194073Y-71700003D01*
X131159937Y-71645675D01*
X131140937Y-71578438D01*
X131161305Y-71511603D01*
X131199651Y-71474278D01*
X131356562Y-71377124D01*
X131520981Y-71227236D01*
X131655058Y-71049689D01*
X131754229Y-70850528D01*
X131815115Y-70636536D01*
X131835643Y-70415000D01*
X131815115Y-70193464D01*
X131754229Y-69979472D01*
X131751765Y-69974523D01*
X131655061Y-69780316D01*
X131655056Y-69780308D01*
X131520979Y-69602761D01*
X131356562Y-69452876D01*
X131356560Y-69452874D01*
X131167404Y-69335754D01*
X131167398Y-69335751D01*
X131075042Y-69299973D01*
X131019641Y-69257400D01*
X130996050Y-69191633D01*
X131011761Y-69123553D01*
X131061785Y-69074774D01*
X131075040Y-69068720D01*
X131112401Y-69054247D01*
X131301562Y-68937124D01*
X131465981Y-68787236D01*
X131600058Y-68609689D01*
X131699229Y-68410528D01*
X131760115Y-68196536D01*
X131780643Y-67975000D01*
X131780230Y-67970548D01*
X131760115Y-67753464D01*
X131760114Y-67753462D01*
X131755640Y-67737738D01*
X131699229Y-67539472D01*
X131699224Y-67539461D01*
X131600061Y-67340316D01*
X131600056Y-67340308D01*
X131465979Y-67162761D01*
X131301562Y-67012876D01*
X131301560Y-67012874D01*
X131152196Y-66920393D01*
X131105560Y-66868366D01*
X131094456Y-66799384D01*
X131122409Y-66735349D01*
X131129770Y-66727307D01*
X131204816Y-66652262D01*
X131300789Y-66499522D01*
X131360368Y-66329255D01*
X131371185Y-66233255D01*
X131380565Y-66150003D01*
X131380565Y-66149996D01*
X131360369Y-65970750D01*
X131360368Y-65970745D01*
X131300788Y-65800476D01*
X131230506Y-65688624D01*
X131204816Y-65647738D01*
X131077262Y-65520184D01*
X131013017Y-65479816D01*
X130924523Y-65424211D01*
X130754254Y-65364631D01*
X130754249Y-65364630D01*
X130575004Y-65344435D01*
X130574996Y-65344435D01*
X130395750Y-65364630D01*
X130395745Y-65364631D01*
X130225476Y-65424211D01*
X130072737Y-65520184D01*
X129945184Y-65647737D01*
X129945182Y-65647740D01*
X129919493Y-65688624D01*
X129867158Y-65734915D01*
X129798105Y-65745562D01*
X129734257Y-65717187D01*
X129695885Y-65658797D01*
X129690500Y-65622651D01*
X129690500Y-65064568D01*
X129710185Y-64997529D01*
X129726819Y-64976887D01*
X130355970Y-64347736D01*
X131001416Y-63702289D01*
X131062737Y-63668806D01*
X131132429Y-63673790D01*
X131155067Y-63684979D01*
X131301974Y-63777288D01*
X131399211Y-63811312D01*
X131472245Y-63836868D01*
X131559169Y-63846661D01*
X131623580Y-63873726D01*
X131632965Y-63882200D01*
X132290139Y-64539374D01*
X132290149Y-64539385D01*
X132294479Y-64543715D01*
X132294480Y-64543716D01*
X132406284Y-64655520D01*
X132458067Y-64685416D01*
X132493095Y-64705639D01*
X132493097Y-64705641D01*
X132524444Y-64723739D01*
X132543215Y-64734577D01*
X132695943Y-64775501D01*
X132695946Y-64775501D01*
X132861653Y-64775501D01*
X132861669Y-64775500D01*
X136399903Y-64775500D01*
X136466942Y-64795185D01*
X136487584Y-64811819D01*
X141313181Y-69637416D01*
X141346666Y-69698739D01*
X141349500Y-69725097D01*
X141349500Y-70733790D01*
X141329815Y-70800829D01*
X141277011Y-70846584D01*
X141211617Y-70857010D01*
X141100004Y-70844435D01*
X141099996Y-70844435D01*
X140920750Y-70864630D01*
X140920745Y-70864631D01*
X140750476Y-70924211D01*
X140597736Y-71020185D01*
X140594903Y-71022445D01*
X140592724Y-71023334D01*
X140591842Y-71023889D01*
X140591744Y-71023734D01*
X140530217Y-71048855D01*
X140517588Y-71049500D01*
X138377430Y-71049500D01*
X138310391Y-71029815D01*
X138264636Y-70977011D01*
X138254027Y-70913349D01*
X138255341Y-70900004D01*
X138255341Y-70900000D01*
X138251858Y-70864632D01*
X138236024Y-70703868D01*
X138178814Y-70515273D01*
X138178811Y-70515269D01*
X138178811Y-70515266D01*
X138085913Y-70341467D01*
X138085909Y-70341460D01*
X137960883Y-70189116D01*
X137808539Y-70064090D01*
X137808532Y-70064086D01*
X137634733Y-69971188D01*
X137634727Y-69971186D01*
X137446132Y-69913976D01*
X137446129Y-69913975D01*
X137250000Y-69894659D01*
X137053870Y-69913975D01*
X136865266Y-69971188D01*
X136691467Y-70064086D01*
X136691460Y-70064090D01*
X136539116Y-70189116D01*
X136414090Y-70341460D01*
X136414086Y-70341467D01*
X136321188Y-70515266D01*
X136263975Y-70703870D01*
X136244659Y-70900000D01*
X136263975Y-71096129D01*
X136321188Y-71284733D01*
X136414086Y-71458532D01*
X136414090Y-71458539D01*
X136539116Y-71610883D01*
X136571090Y-71637123D01*
X136610424Y-71694868D01*
X136612295Y-71764713D01*
X136580106Y-71820657D01*
X134106465Y-74294298D01*
X134045142Y-74327783D01*
X134032668Y-74329837D01*
X133945750Y-74339630D01*
X133775478Y-74399210D01*
X133622737Y-74495184D01*
X133495184Y-74622737D01*
X133399211Y-74775476D01*
X133339631Y-74945745D01*
X133339630Y-74945750D01*
X133319435Y-75124996D01*
X133319435Y-75125003D01*
X133339630Y-75304249D01*
X133339631Y-75304254D01*
X133399211Y-75474523D01*
X133433598Y-75529249D01*
X133495184Y-75627262D01*
X133622738Y-75754816D01*
X133713080Y-75811582D01*
X133766280Y-75845010D01*
X133775478Y-75850789D01*
X133938558Y-75907853D01*
X133945745Y-75910368D01*
X133945750Y-75910369D01*
X134124996Y-75930565D01*
X134125000Y-75930565D01*
X134125004Y-75930565D01*
X134304249Y-75910369D01*
X134304252Y-75910368D01*
X134304255Y-75910368D01*
X134474522Y-75850789D01*
X134627262Y-75754816D01*
X134754816Y-75627262D01*
X134850789Y-75474522D01*
X134910368Y-75304255D01*
X134920161Y-75217329D01*
X134947226Y-75152918D01*
X134955690Y-75143543D01*
X137812416Y-72286819D01*
X137873739Y-72253334D01*
X137900097Y-72250500D01*
X138450903Y-72250500D01*
X138517942Y-72270185D01*
X138563697Y-72322989D01*
X138573641Y-72392147D01*
X138544616Y-72455703D01*
X138538584Y-72462181D01*
X136706465Y-74294298D01*
X136645142Y-74327783D01*
X136632668Y-74329837D01*
X136545750Y-74339630D01*
X136375478Y-74399210D01*
X136222737Y-74495184D01*
X136095184Y-74622737D01*
X135999211Y-74775476D01*
X135939631Y-74945745D01*
X135939630Y-74945750D01*
X135919435Y-75124996D01*
X135919435Y-75125003D01*
X135939630Y-75304249D01*
X135939631Y-75304254D01*
X135999211Y-75474523D01*
X136033598Y-75529249D01*
X136095184Y-75627262D01*
X136222738Y-75754816D01*
X136313080Y-75811582D01*
X136366280Y-75845010D01*
X136375478Y-75850789D01*
X136538558Y-75907853D01*
X136545745Y-75910368D01*
X136545750Y-75910369D01*
X136724996Y-75930565D01*
X136725000Y-75930565D01*
X136725004Y-75930565D01*
X136904249Y-75910369D01*
X136904252Y-75910368D01*
X136904255Y-75910368D01*
X137074522Y-75850789D01*
X137227262Y-75754816D01*
X137354816Y-75627262D01*
X137450789Y-75474522D01*
X137510368Y-75304255D01*
X137520161Y-75217329D01*
X137547226Y-75152918D01*
X137555690Y-75143543D01*
X139674013Y-73025221D01*
X139735334Y-72991738D01*
X139805026Y-72996722D01*
X139827658Y-73007907D01*
X139855216Y-73025223D01*
X139975475Y-73100788D01*
X140145745Y-73160368D01*
X140145750Y-73160369D01*
X140324996Y-73180565D01*
X140325000Y-73180565D01*
X140325004Y-73180565D01*
X140504249Y-73160369D01*
X140504252Y-73160368D01*
X140504255Y-73160368D01*
X140674522Y-73100789D01*
X140827262Y-73004816D01*
X140954816Y-72877262D01*
X141050789Y-72724522D01*
X141108458Y-72559712D01*
X141149180Y-72502937D01*
X141214132Y-72477189D01*
X141282694Y-72490645D01*
X141333097Y-72539032D01*
X141349500Y-72600667D01*
X141349500Y-75470609D01*
X141349499Y-75470627D01*
X141349499Y-75478222D01*
X141349499Y-75636336D01*
X141355938Y-75660368D01*
X141363823Y-75689794D01*
X141362160Y-75759644D01*
X141322997Y-75817506D01*
X141258768Y-75845010D01*
X141257932Y-75845107D01*
X141095749Y-75863380D01*
X141095745Y-75863381D01*
X140925476Y-75922961D01*
X140772737Y-76018934D01*
X140645184Y-76146487D01*
X140549211Y-76299226D01*
X140489631Y-76469495D01*
X140489630Y-76469500D01*
X140469435Y-76648746D01*
X140469435Y-76648753D01*
X140489630Y-76827999D01*
X140489631Y-76828004D01*
X140549211Y-76998273D01*
X140594873Y-77070943D01*
X140645184Y-77151012D01*
X140772738Y-77278566D01*
X140925478Y-77374539D01*
X140956446Y-77385375D01*
X141095745Y-77434118D01*
X141095750Y-77434119D01*
X141274996Y-77454315D01*
X141275000Y-77454315D01*
X141275004Y-77454315D01*
X141454249Y-77434119D01*
X141454252Y-77434118D01*
X141454255Y-77434118D01*
X141624522Y-77374539D01*
X141777262Y-77278566D01*
X141777264Y-77278563D01*
X141777267Y-77278562D01*
X141778533Y-77277553D01*
X141779505Y-77277155D01*
X141783158Y-77274861D01*
X141783559Y-77275500D01*
X141843219Y-77251144D01*
X141855845Y-77250500D01*
X152450902Y-77250500D01*
X152517941Y-77270185D01*
X152563696Y-77322989D01*
X152573640Y-77392147D01*
X152544615Y-77455703D01*
X152538583Y-77462181D01*
X149587584Y-80413181D01*
X149526261Y-80446666D01*
X149499903Y-80449500D01*
X143232412Y-80449500D01*
X143165373Y-80429815D01*
X143155097Y-80422445D01*
X143152263Y-80420185D01*
X143152262Y-80420184D01*
X143095496Y-80384515D01*
X142999523Y-80324211D01*
X142829254Y-80264631D01*
X142829249Y-80264630D01*
X142650004Y-80244435D01*
X142649996Y-80244435D01*
X142470750Y-80264630D01*
X142470745Y-80264631D01*
X142300476Y-80324211D01*
X142147737Y-80420184D01*
X142020184Y-80547737D01*
X141924211Y-80700476D01*
X141864631Y-80870745D01*
X141864630Y-80870750D01*
X141844435Y-81049996D01*
X141844435Y-81050003D01*
X141864630Y-81229249D01*
X141864631Y-81229254D01*
X141924211Y-81399523D01*
X142006525Y-81530524D01*
X142020184Y-81552262D01*
X142147738Y-81679816D01*
X142176259Y-81697737D01*
X142255833Y-81747737D01*
X142300478Y-81775789D01*
X142470745Y-81835368D01*
X142470750Y-81835369D01*
X142649996Y-81855565D01*
X142650000Y-81855565D01*
X142650004Y-81855565D01*
X142829249Y-81835369D01*
X142829252Y-81835368D01*
X142829255Y-81835368D01*
X142999522Y-81775789D01*
X143152262Y-81679816D01*
X143152267Y-81679810D01*
X143155097Y-81677555D01*
X143157275Y-81676665D01*
X143158158Y-81676111D01*
X143158255Y-81676265D01*
X143219783Y-81651145D01*
X143232412Y-81650500D01*
X149713331Y-81650500D01*
X149713347Y-81650501D01*
X149720943Y-81650501D01*
X149879054Y-81650501D01*
X149879057Y-81650501D01*
X150031785Y-81609577D01*
X150100015Y-81570184D01*
X150168716Y-81530520D01*
X150280520Y-81418716D01*
X150280520Y-81418714D01*
X150290724Y-81408511D01*
X150290727Y-81408506D01*
X151274237Y-80424996D01*
X159419435Y-80424996D01*
X159419435Y-80425003D01*
X159439630Y-80604249D01*
X159439631Y-80604254D01*
X159499211Y-80774523D01*
X159559672Y-80870745D01*
X159595184Y-80927262D01*
X159722738Y-81054816D01*
X159875478Y-81150789D01*
X160045745Y-81210368D01*
X160045750Y-81210369D01*
X160224996Y-81230565D01*
X160225000Y-81230565D01*
X160225004Y-81230565D01*
X160404249Y-81210369D01*
X160404252Y-81210368D01*
X160404255Y-81210368D01*
X160574522Y-81150789D01*
X160727262Y-81054816D01*
X160854816Y-80927262D01*
X160950789Y-80774522D01*
X161010368Y-80604255D01*
X161028124Y-80446666D01*
X161030565Y-80425003D01*
X161030565Y-80424996D01*
X161010369Y-80245750D01*
X161010368Y-80245745D01*
X160965877Y-80118598D01*
X160950789Y-80075478D01*
X160854816Y-79922738D01*
X160727262Y-79795184D01*
X160647909Y-79745323D01*
X160574523Y-79699211D01*
X160404254Y-79639631D01*
X160404249Y-79639630D01*
X160225004Y-79619435D01*
X160224996Y-79619435D01*
X160045750Y-79639630D01*
X160045745Y-79639631D01*
X159875476Y-79699211D01*
X159722737Y-79795184D01*
X159595184Y-79922737D01*
X159499211Y-80075476D01*
X159439631Y-80245745D01*
X159439630Y-80245750D01*
X159419435Y-80424996D01*
X151274237Y-80424996D01*
X153618536Y-78080698D01*
X153679857Y-78047215D01*
X153692310Y-78045163D01*
X153779255Y-78035368D01*
X153949522Y-77975789D01*
X154102262Y-77879816D01*
X154229816Y-77752262D01*
X154325789Y-77599522D01*
X154385368Y-77429255D01*
X154395161Y-77342329D01*
X154422226Y-77277918D01*
X154430680Y-77268554D01*
X154818020Y-76881216D01*
X154897077Y-76744284D01*
X154938001Y-76591557D01*
X154938001Y-76433442D01*
X154938001Y-76425847D01*
X154938000Y-76425829D01*
X154938000Y-75036597D01*
X154957685Y-74969558D01*
X155010489Y-74923803D01*
X155079647Y-74913859D01*
X155143203Y-74942884D01*
X155149681Y-74948916D01*
X156413181Y-76212416D01*
X156446666Y-76273739D01*
X156449500Y-76300097D01*
X156449500Y-77063330D01*
X156449499Y-77063348D01*
X156449499Y-77070943D01*
X156449499Y-77229057D01*
X156462764Y-77278562D01*
X156490422Y-77381783D01*
X156492493Y-77385370D01*
X156492492Y-77385370D01*
X156492496Y-77385375D01*
X156569477Y-77518712D01*
X156569481Y-77518717D01*
X156688349Y-77637585D01*
X156688355Y-77637590D01*
X156706798Y-77656033D01*
X156740283Y-77717356D01*
X156742337Y-77729830D01*
X156752130Y-77816749D01*
X156811710Y-77987021D01*
X156870573Y-78080700D01*
X156907684Y-78139762D01*
X157035238Y-78267316D01*
X157187978Y-78363289D01*
X157358245Y-78422868D01*
X157358250Y-78422869D01*
X157537496Y-78443065D01*
X157537500Y-78443065D01*
X157537504Y-78443065D01*
X157716749Y-78422869D01*
X157716752Y-78422868D01*
X157716755Y-78422868D01*
X157887022Y-78363289D01*
X158039762Y-78267316D01*
X158167316Y-78139762D01*
X158263289Y-77987022D01*
X158322868Y-77816755D01*
X158325027Y-77797592D01*
X158343065Y-77637503D01*
X158343065Y-77637496D01*
X158322869Y-77458250D01*
X158322866Y-77458237D01*
X158264608Y-77291746D01*
X158261046Y-77221967D01*
X158293968Y-77163110D01*
X158306066Y-77151012D01*
X158354816Y-77102262D01*
X158450789Y-76949522D01*
X158510368Y-76779255D01*
X158514308Y-76744285D01*
X158530565Y-76600003D01*
X158530565Y-76599996D01*
X158510369Y-76420750D01*
X158510368Y-76420745D01*
X158467847Y-76299228D01*
X158450789Y-76250478D01*
X158354816Y-76097738D01*
X158354814Y-76097736D01*
X158354813Y-76097734D01*
X158352550Y-76094896D01*
X158351659Y-76092715D01*
X158351111Y-76091842D01*
X158351264Y-76091745D01*
X158326144Y-76030209D01*
X158325500Y-76017587D01*
X158325500Y-74189060D01*
X158325501Y-74189047D01*
X158325501Y-74020944D01*
X158325501Y-74020943D01*
X158284577Y-73868216D01*
X158270847Y-73844435D01*
X158205524Y-73731290D01*
X158205518Y-73731282D01*
X156836417Y-72362181D01*
X156802932Y-72300858D01*
X156807916Y-72231166D01*
X156849788Y-72175233D01*
X156915252Y-72150816D01*
X156924098Y-72150500D01*
X161304192Y-72150500D01*
X161371231Y-72170185D01*
X161391873Y-72186819D01*
X166768373Y-77563319D01*
X166801858Y-77624642D01*
X166796874Y-77694334D01*
X166755002Y-77750267D01*
X166689538Y-77774684D01*
X166680692Y-77775000D01*
X166352155Y-77775000D01*
X166292627Y-77781401D01*
X166292620Y-77781403D01*
X166157913Y-77831645D01*
X166157906Y-77831649D01*
X166042812Y-77917809D01*
X166042809Y-77917812D01*
X165956649Y-78032906D01*
X165956645Y-78032913D01*
X165906403Y-78167620D01*
X165906401Y-78167627D01*
X165900000Y-78227155D01*
X165900000Y-78700000D01*
X166759314Y-78700000D01*
X166754920Y-78704394D01*
X166702259Y-78795606D01*
X166675000Y-78897339D01*
X166675000Y-79002661D01*
X166702259Y-79104394D01*
X166754920Y-79195606D01*
X166759314Y-79200000D01*
X165900000Y-79200000D01*
X165900000Y-79672844D01*
X165906401Y-79732372D01*
X165906403Y-79732379D01*
X165956645Y-79867086D01*
X165956649Y-79867093D01*
X166042809Y-79982187D01*
X166042812Y-79982190D01*
X166157906Y-80068350D01*
X166157913Y-80068354D01*
X166292620Y-80118596D01*
X166292627Y-80118598D01*
X166352155Y-80124999D01*
X166352172Y-80125000D01*
X166825000Y-80125000D01*
X166825000Y-79265686D01*
X166829394Y-79270080D01*
X166920606Y-79322741D01*
X167022339Y-79350000D01*
X167127661Y-79350000D01*
X167229394Y-79322741D01*
X167320606Y-79270080D01*
X167325000Y-79265686D01*
X167325000Y-80125000D01*
X167797828Y-80125000D01*
X167797844Y-80124999D01*
X167857372Y-80118598D01*
X167857379Y-80118596D01*
X167992086Y-80068354D01*
X167992093Y-80068350D01*
X168107186Y-79982191D01*
X168169413Y-79899067D01*
X168225347Y-79857196D01*
X168295038Y-79852212D01*
X168352216Y-79881739D01*
X168363568Y-79892088D01*
X168363575Y-79892092D01*
X168363576Y-79892093D01*
X168548786Y-80006770D01*
X168548792Y-80006773D01*
X168571664Y-80015633D01*
X168751931Y-80085470D01*
X168966074Y-80125500D01*
X168966076Y-80125500D01*
X169183924Y-80125500D01*
X169183926Y-80125500D01*
X169398069Y-80085470D01*
X169601210Y-80006772D01*
X169786432Y-79892088D01*
X169947427Y-79745322D01*
X170078712Y-79571472D01*
X170175817Y-79376459D01*
X170235435Y-79166923D01*
X170252029Y-78987845D01*
X170266556Y-78951260D01*
X170256523Y-78935647D01*
X170252029Y-78912153D01*
X170235435Y-78733081D01*
X170235435Y-78733077D01*
X170175817Y-78523541D01*
X170078712Y-78328528D01*
X169947427Y-78154678D01*
X169786432Y-78007912D01*
X169786428Y-78007909D01*
X169786423Y-78007906D01*
X169601213Y-77893229D01*
X169601207Y-77893226D01*
X169516113Y-77860260D01*
X169398069Y-77814530D01*
X169183926Y-77774500D01*
X168966074Y-77774500D01*
X168966070Y-77774500D01*
X168906783Y-77785582D01*
X168837269Y-77778550D01*
X168796320Y-77751374D01*
X166695189Y-75650243D01*
X166661704Y-75588920D01*
X166666688Y-75519228D01*
X166708560Y-75463295D01*
X166768988Y-75439342D01*
X166804249Y-75435369D01*
X166804252Y-75435368D01*
X166804255Y-75435368D01*
X166974522Y-75375789D01*
X167127262Y-75279816D01*
X167254816Y-75152262D01*
X167324652Y-75041117D01*
X167376985Y-74994828D01*
X167446039Y-74984179D01*
X167509887Y-75012554D01*
X167534638Y-75041119D01*
X167620179Y-75177256D01*
X167620184Y-75177262D01*
X167747738Y-75304816D01*
X167900478Y-75400789D01*
X167991629Y-75432684D01*
X168070745Y-75460368D01*
X168070750Y-75460369D01*
X168249996Y-75480565D01*
X168250000Y-75480565D01*
X168250004Y-75480565D01*
X168429249Y-75460369D01*
X168429252Y-75460368D01*
X168429255Y-75460368D01*
X168599522Y-75400789D01*
X168752262Y-75304816D01*
X168879816Y-75177262D01*
X168975789Y-75024522D01*
X169035368Y-74854255D01*
X169035369Y-74854249D01*
X169055565Y-74675003D01*
X169055565Y-74674996D01*
X169035369Y-74495750D01*
X169035368Y-74495745D01*
X169011056Y-74426265D01*
X168975789Y-74325478D01*
X168960080Y-74300478D01*
X168936582Y-74263080D01*
X168879816Y-74172738D01*
X168752262Y-74045184D01*
X168599523Y-73949211D01*
X168429254Y-73889631D01*
X168429249Y-73889630D01*
X168250004Y-73869435D01*
X168249996Y-73869435D01*
X168070750Y-73889630D01*
X168070745Y-73889631D01*
X167900476Y-73949211D01*
X167747737Y-74045184D01*
X167620182Y-74172739D01*
X167550347Y-74283881D01*
X167498012Y-74330171D01*
X167428959Y-74340819D01*
X167365111Y-74312444D01*
X167340360Y-74283880D01*
X167280772Y-74189047D01*
X167254816Y-74147738D01*
X167127262Y-74020184D01*
X166974523Y-73924211D01*
X166804254Y-73864631D01*
X166804249Y-73864630D01*
X166625004Y-73844435D01*
X166624996Y-73844435D01*
X166445750Y-73864630D01*
X166445745Y-73864631D01*
X166275476Y-73924211D01*
X166122737Y-74020184D01*
X165995184Y-74147737D01*
X165899211Y-74300476D01*
X165839631Y-74470745D01*
X165839631Y-74470748D01*
X165835657Y-74506015D01*
X165808589Y-74570428D01*
X165750994Y-74609982D01*
X165681157Y-74612119D01*
X165624756Y-74579810D01*
X162039674Y-70994727D01*
X162039673Y-70994726D01*
X162020530Y-70981935D01*
X161933127Y-70923535D01*
X161915259Y-70916134D01*
X161814744Y-70874499D01*
X161814738Y-70874497D01*
X161689071Y-70849500D01*
X161689069Y-70849500D01*
X156655068Y-70849500D01*
X156589096Y-70830494D01*
X156499523Y-70774211D01*
X156329249Y-70714630D01*
X156242330Y-70704837D01*
X156177916Y-70677770D01*
X156168533Y-70669298D01*
X155124231Y-69624996D01*
X156794435Y-69624996D01*
X156794435Y-69625003D01*
X156814630Y-69804249D01*
X156814631Y-69804254D01*
X156874211Y-69974523D01*
X156890053Y-69999735D01*
X156970184Y-70127262D01*
X157097738Y-70254816D01*
X157250478Y-70350789D01*
X157420745Y-70410368D01*
X157420750Y-70410369D01*
X157599996Y-70430565D01*
X157600000Y-70430565D01*
X157600004Y-70430565D01*
X157779249Y-70410369D01*
X157779252Y-70410368D01*
X157779255Y-70410368D01*
X157949522Y-70350789D01*
X158102262Y-70254816D01*
X158229816Y-70127262D01*
X158325789Y-69974522D01*
X158385368Y-69804255D01*
X158385369Y-69804249D01*
X158405565Y-69625003D01*
X158405565Y-69624996D01*
X158385369Y-69445750D01*
X158385368Y-69445745D01*
X158357520Y-69366161D01*
X158325789Y-69275478D01*
X158316457Y-69260627D01*
X158273106Y-69191633D01*
X158229816Y-69122738D01*
X158102262Y-68995184D01*
X158086258Y-68985128D01*
X157949523Y-68899211D01*
X157779254Y-68839631D01*
X157779249Y-68839630D01*
X157600004Y-68819435D01*
X157599996Y-68819435D01*
X157420750Y-68839630D01*
X157420745Y-68839631D01*
X157250476Y-68899211D01*
X157097737Y-68995184D01*
X156970184Y-69122737D01*
X156874211Y-69275476D01*
X156814631Y-69445745D01*
X156814630Y-69445750D01*
X156794435Y-69624996D01*
X155124231Y-69624996D01*
X154836819Y-69337584D01*
X154803334Y-69276261D01*
X154800500Y-69249903D01*
X154800500Y-67962212D01*
X154804725Y-67930119D01*
X154825500Y-67852586D01*
X154825500Y-67197414D01*
X154804725Y-67119880D01*
X154800500Y-67087787D01*
X154800500Y-66135258D01*
X163132500Y-66135258D01*
X163132500Y-66364741D01*
X163157446Y-66554215D01*
X163162452Y-66592238D01*
X163197897Y-66724522D01*
X163221842Y-66813887D01*
X163309650Y-67025876D01*
X163309657Y-67025890D01*
X163363922Y-67119880D01*
X163408687Y-67197416D01*
X163424392Y-67224617D01*
X163564081Y-67406661D01*
X163564089Y-67406670D01*
X163726330Y-67568911D01*
X163726338Y-67568918D01*
X163908382Y-67708607D01*
X163908385Y-67708608D01*
X163908388Y-67708611D01*
X164107112Y-67823344D01*
X164107117Y-67823346D01*
X164107123Y-67823349D01*
X164177703Y-67852584D01*
X164319113Y-67911158D01*
X164540762Y-67970548D01*
X164768266Y-68000500D01*
X164768273Y-68000500D01*
X164997727Y-68000500D01*
X164997734Y-68000500D01*
X165225238Y-67970548D01*
X165446887Y-67911158D01*
X165658888Y-67823344D01*
X165857612Y-67708611D01*
X166039661Y-67568919D01*
X166039665Y-67568914D01*
X166039670Y-67568911D01*
X166201911Y-67406670D01*
X166201914Y-67406665D01*
X166201919Y-67406661D01*
X166341611Y-67224612D01*
X166456344Y-67025888D01*
X166544158Y-66813887D01*
X166603548Y-66592238D01*
X166633500Y-66364734D01*
X166633500Y-66135266D01*
X166603548Y-65907762D01*
X166544158Y-65686113D01*
X166486018Y-65545750D01*
X166456349Y-65474123D01*
X166456346Y-65474117D01*
X166456344Y-65474112D01*
X166341611Y-65275388D01*
X166341608Y-65275385D01*
X166341607Y-65275382D01*
X166239709Y-65142587D01*
X166201919Y-65093339D01*
X166201918Y-65093338D01*
X166201911Y-65093330D01*
X166039670Y-64931089D01*
X166039661Y-64931081D01*
X165857617Y-64791392D01*
X165658890Y-64676657D01*
X165658876Y-64676650D01*
X165446887Y-64588842D01*
X165225238Y-64529452D01*
X165187215Y-64524446D01*
X164997741Y-64499500D01*
X164997734Y-64499500D01*
X164768266Y-64499500D01*
X164768258Y-64499500D01*
X164551715Y-64528009D01*
X164540762Y-64529452D01*
X164447076Y-64554554D01*
X164319112Y-64588842D01*
X164107123Y-64676650D01*
X164107109Y-64676657D01*
X163908382Y-64791392D01*
X163726338Y-64931081D01*
X163564081Y-65093338D01*
X163424392Y-65275382D01*
X163309657Y-65474109D01*
X163309650Y-65474123D01*
X163221842Y-65686112D01*
X163208766Y-65734915D01*
X163173183Y-65867715D01*
X163162453Y-65907759D01*
X163162451Y-65907770D01*
X163132500Y-66135258D01*
X154800500Y-66135258D01*
X154800500Y-64474996D01*
X155944435Y-64474996D01*
X155944435Y-64475003D01*
X155964630Y-64654249D01*
X155964631Y-64654254D01*
X156024211Y-64824523D01*
X156119948Y-64976887D01*
X156120184Y-64977262D01*
X156247738Y-65104816D01*
X156307850Y-65142587D01*
X156398461Y-65199522D01*
X156400478Y-65200789D01*
X156463205Y-65222738D01*
X156570745Y-65260368D01*
X156570750Y-65260369D01*
X156749996Y-65280565D01*
X156750000Y-65280565D01*
X156750004Y-65280565D01*
X156929249Y-65260369D01*
X156929252Y-65260368D01*
X156929255Y-65260368D01*
X157099522Y-65200789D01*
X157252262Y-65104816D01*
X157379816Y-64977262D01*
X157475789Y-64824522D01*
X157535368Y-64654255D01*
X157535369Y-64654249D01*
X157555565Y-64475003D01*
X157555565Y-64474996D01*
X157535369Y-64295750D01*
X157535368Y-64295745D01*
X157475788Y-64125476D01*
X157379815Y-63972737D01*
X157252262Y-63845184D01*
X157099523Y-63749211D01*
X156929254Y-63689631D01*
X156929249Y-63689630D01*
X156750004Y-63669435D01*
X156749996Y-63669435D01*
X156570750Y-63689630D01*
X156570745Y-63689631D01*
X156400476Y-63749211D01*
X156247737Y-63845184D01*
X156120184Y-63972737D01*
X156024211Y-64125476D01*
X155964631Y-64295745D01*
X155964630Y-64295750D01*
X155944435Y-64474996D01*
X154800500Y-64474996D01*
X154800500Y-61502997D01*
X154820185Y-61435958D01*
X154858525Y-61398005D01*
X154927262Y-61354816D01*
X155054816Y-61227262D01*
X155150789Y-61074522D01*
X155210368Y-60904255D01*
X155210369Y-60904249D01*
X155230565Y-60725003D01*
X155230565Y-60724996D01*
X155210369Y-60545750D01*
X155210368Y-60545745D01*
X155150788Y-60375476D01*
X155054815Y-60222737D01*
X154927262Y-60095184D01*
X154774523Y-59999211D01*
X154604254Y-59939631D01*
X154604249Y-59939630D01*
X154425004Y-59919435D01*
X154424996Y-59919435D01*
X154245750Y-59939630D01*
X154245745Y-59939631D01*
X154075476Y-59999211D01*
X153922737Y-60095184D01*
X153795184Y-60222737D01*
X153699211Y-60375476D01*
X153639631Y-60545745D01*
X153639630Y-60545750D01*
X153619435Y-60724996D01*
X153619435Y-60725003D01*
X153622482Y-60752048D01*
X153619037Y-60798023D01*
X153599499Y-60870941D01*
X153599499Y-61039046D01*
X153599500Y-61039059D01*
X153599500Y-62125503D01*
X153579815Y-62192542D01*
X153527011Y-62238297D01*
X153457853Y-62248241D01*
X153409532Y-62230499D01*
X153399526Y-62224212D01*
X153229254Y-62164631D01*
X153229249Y-62164630D01*
X153050004Y-62144435D01*
X153049996Y-62144435D01*
X152870750Y-62164630D01*
X152870745Y-62164631D01*
X152700476Y-62224211D01*
X152547737Y-62320184D01*
X152420184Y-62447737D01*
X152324211Y-62600476D01*
X152264631Y-62770745D01*
X152264630Y-62770750D01*
X152244435Y-62949996D01*
X152244435Y-62950003D01*
X152264630Y-63129249D01*
X152264631Y-63129254D01*
X152324211Y-63299523D01*
X152388767Y-63402262D01*
X152420184Y-63452262D01*
X152547738Y-63579816D01*
X152608850Y-63618215D01*
X152697296Y-63673790D01*
X152700478Y-63675789D01*
X152838649Y-63724137D01*
X152870745Y-63735368D01*
X152870750Y-63735369D01*
X153049996Y-63755565D01*
X153050000Y-63755565D01*
X153050004Y-63755565D01*
X153229249Y-63735369D01*
X153229252Y-63735368D01*
X153229255Y-63735368D01*
X153399522Y-63675789D01*
X153399524Y-63675788D01*
X153409527Y-63669503D01*
X153476764Y-63650502D01*
X153543599Y-63670869D01*
X153588814Y-63724137D01*
X153599500Y-63774496D01*
X153599500Y-65939481D01*
X153579815Y-66006520D01*
X153527011Y-66052275D01*
X153457853Y-66062219D01*
X153409529Y-66044475D01*
X153369868Y-66019555D01*
X153199597Y-65959974D01*
X153199593Y-65959973D01*
X153080387Y-65946542D01*
X153015973Y-65919475D01*
X152976418Y-65861880D01*
X152971051Y-65809438D01*
X152980565Y-65725002D01*
X152980565Y-65724996D01*
X152960369Y-65545750D01*
X152960368Y-65545745D01*
X152935306Y-65474123D01*
X152900789Y-65375478D01*
X152893973Y-65364631D01*
X152828461Y-65260369D01*
X152804816Y-65222738D01*
X152804814Y-65222736D01*
X152804813Y-65222734D01*
X152802550Y-65219896D01*
X152801659Y-65217715D01*
X152801111Y-65216842D01*
X152801264Y-65216745D01*
X152776144Y-65155209D01*
X152775500Y-65142587D01*
X152775500Y-64370944D01*
X152775500Y-64370943D01*
X152769282Y-64347738D01*
X152734577Y-64218215D01*
X152681035Y-64125478D01*
X152655520Y-64081284D01*
X152543716Y-63969480D01*
X152543715Y-63969479D01*
X152539385Y-63965149D01*
X152539374Y-63965139D01*
X151912590Y-63338355D01*
X151912588Y-63338352D01*
X151793717Y-63219481D01*
X151793716Y-63219480D01*
X151706904Y-63169360D01*
X151706904Y-63169359D01*
X151706900Y-63169358D01*
X151656785Y-63140423D01*
X151504057Y-63099499D01*
X151345943Y-63099499D01*
X151338347Y-63099499D01*
X151338331Y-63099500D01*
X147036669Y-63099500D01*
X147036653Y-63099499D01*
X147029057Y-63099499D01*
X146870943Y-63099499D01*
X146763587Y-63128265D01*
X146718210Y-63140424D01*
X146718209Y-63140425D01*
X146668096Y-63169359D01*
X146668095Y-63169360D01*
X146663152Y-63172214D01*
X146581285Y-63219479D01*
X146581282Y-63219481D01*
X146319481Y-63481282D01*
X146319475Y-63481290D01*
X146277635Y-63553761D01*
X146277635Y-63553762D01*
X146240423Y-63618215D01*
X146199499Y-63770943D01*
X146199499Y-63770945D01*
X146199499Y-63939046D01*
X146199500Y-63939059D01*
X146199500Y-64217060D01*
X146179815Y-64284099D01*
X146163181Y-64304741D01*
X146120184Y-64347738D01*
X146090014Y-64395753D01*
X146024211Y-64500476D01*
X145964631Y-64670745D01*
X145964630Y-64670750D01*
X145944435Y-64849996D01*
X145944435Y-64850003D01*
X145964630Y-65029249D01*
X145964631Y-65029254D01*
X146024211Y-65199523D01*
X146115266Y-65344435D01*
X146120184Y-65352262D01*
X146247738Y-65479816D01*
X146400478Y-65575789D01*
X146534402Y-65622651D01*
X146570745Y-65635368D01*
X146570750Y-65635369D01*
X146749996Y-65655565D01*
X146750000Y-65655565D01*
X146750004Y-65655565D01*
X146929249Y-65635369D01*
X146929252Y-65635368D01*
X146929255Y-65635368D01*
X147099522Y-65575789D01*
X147252262Y-65479816D01*
X147379816Y-65352262D01*
X147475789Y-65199522D01*
X147535368Y-65029255D01*
X147535369Y-65029249D01*
X147555565Y-64850003D01*
X147555565Y-64849996D01*
X147535369Y-64670750D01*
X147535366Y-64670737D01*
X147475790Y-64500481D01*
X147475789Y-64500478D01*
X147474692Y-64498733D01*
X147469503Y-64490473D01*
X147450502Y-64423236D01*
X147470869Y-64356401D01*
X147524137Y-64311186D01*
X147574496Y-64300500D01*
X151124903Y-64300500D01*
X151191942Y-64320185D01*
X151212584Y-64336819D01*
X151538181Y-64662416D01*
X151571666Y-64723739D01*
X151574500Y-64750097D01*
X151574500Y-65142587D01*
X151554815Y-65209626D01*
X151547450Y-65219896D01*
X151545186Y-65222734D01*
X151449211Y-65375476D01*
X151389631Y-65545745D01*
X151389630Y-65545750D01*
X151369435Y-65724996D01*
X151369435Y-65725003D01*
X151389630Y-65904249D01*
X151389631Y-65904254D01*
X151449211Y-66074523D01*
X151545185Y-66227263D01*
X151547445Y-66230097D01*
X151548334Y-66232275D01*
X151548889Y-66233158D01*
X151548734Y-66233255D01*
X151573855Y-66294783D01*
X151574500Y-66307412D01*
X151574500Y-66567291D01*
X151554815Y-66634330D01*
X151502011Y-66680085D01*
X151436273Y-66689537D01*
X151436175Y-66690411D01*
X151250004Y-66669435D01*
X151249996Y-66669435D01*
X151070750Y-66689630D01*
X151070745Y-66689631D01*
X150900476Y-66749211D01*
X150747737Y-66845184D01*
X150620184Y-66972737D01*
X150524211Y-67125476D01*
X150464631Y-67295745D01*
X150464630Y-67295750D01*
X150444435Y-67474996D01*
X150444435Y-67475003D01*
X150464630Y-67654249D01*
X150464631Y-67654254D01*
X150524211Y-67824523D01*
X150565654Y-67890478D01*
X150620184Y-67977262D01*
X150747738Y-68104816D01*
X150838080Y-68161582D01*
X150893707Y-68196535D01*
X150900478Y-68200789D01*
X151012525Y-68239996D01*
X151070745Y-68260368D01*
X151070750Y-68260369D01*
X151249996Y-68280565D01*
X151250000Y-68280565D01*
X151250004Y-68280565D01*
X151436176Y-68259589D01*
X151436522Y-68262666D01*
X151492560Y-68266059D01*
X151548948Y-68307316D01*
X151574080Y-68372509D01*
X151574500Y-68382708D01*
X151574500Y-70799092D01*
X151554815Y-70866131D01*
X151502011Y-70911886D01*
X151491463Y-70916130D01*
X151435093Y-70935854D01*
X151325478Y-70974210D01*
X151172737Y-71070184D01*
X151045184Y-71197737D01*
X150949211Y-71350476D01*
X150889631Y-71520745D01*
X150889630Y-71520750D01*
X150869435Y-71699996D01*
X150869435Y-71700003D01*
X150889630Y-71879249D01*
X150889631Y-71879254D01*
X150949211Y-72049523D01*
X151045184Y-72202262D01*
X151172738Y-72329816D01*
X151325478Y-72425789D01*
X151495745Y-72485368D01*
X151582669Y-72495161D01*
X151647080Y-72522226D01*
X151656465Y-72530700D01*
X153700681Y-74574916D01*
X153734166Y-74636239D01*
X153737000Y-74662597D01*
X153737000Y-75146177D01*
X153717315Y-75213216D01*
X153664511Y-75258971D01*
X153626884Y-75269397D01*
X153558250Y-75277130D01*
X153387978Y-75336710D01*
X153235237Y-75432684D01*
X153107684Y-75560237D01*
X153011710Y-75712978D01*
X152952130Y-75883250D01*
X152945806Y-75939384D01*
X152918740Y-76003797D01*
X152861145Y-76043353D01*
X152822586Y-76049500D01*
X144655012Y-76049500D01*
X144587973Y-76029815D01*
X144542218Y-75977011D01*
X144532274Y-75907853D01*
X144553194Y-75859467D01*
X144551111Y-75858158D01*
X144554816Y-75852262D01*
X144650789Y-75699522D01*
X144710368Y-75529255D01*
X144716118Y-75478222D01*
X144730565Y-75350003D01*
X144730565Y-75349996D01*
X144710369Y-75170750D01*
X144710368Y-75170745D01*
X144704130Y-75152918D01*
X144650789Y-75000478D01*
X144650188Y-74999522D01*
X144596363Y-74913859D01*
X144554816Y-74847738D01*
X144427262Y-74720184D01*
X144355346Y-74674996D01*
X144274521Y-74624210D01*
X144104249Y-74564630D01*
X144017330Y-74554837D01*
X143952916Y-74527770D01*
X143943533Y-74519298D01*
X143886819Y-74462584D01*
X143853334Y-74401261D01*
X143850500Y-74374903D01*
X143850500Y-69649097D01*
X143870185Y-69582058D01*
X143922989Y-69536303D01*
X143992147Y-69526359D01*
X144055703Y-69555384D01*
X144062181Y-69561416D01*
X147838181Y-73337416D01*
X147871666Y-73398739D01*
X147874500Y-73425097D01*
X147874500Y-74292587D01*
X147854815Y-74359626D01*
X147847450Y-74369896D01*
X147845186Y-74372734D01*
X147749211Y-74525476D01*
X147689631Y-74695745D01*
X147689630Y-74695750D01*
X147669435Y-74874996D01*
X147669435Y-74875003D01*
X147689630Y-75054249D01*
X147689631Y-75054254D01*
X147749211Y-75224523D01*
X147799662Y-75304815D01*
X147845184Y-75377262D01*
X147972738Y-75504816D01*
X148060940Y-75560237D01*
X148106588Y-75588920D01*
X148125478Y-75600789D01*
X148295745Y-75660368D01*
X148295750Y-75660369D01*
X148474996Y-75680565D01*
X148475000Y-75680565D01*
X148475004Y-75680565D01*
X148654249Y-75660369D01*
X148654252Y-75660368D01*
X148654255Y-75660368D01*
X148824522Y-75600789D01*
X148977262Y-75504816D01*
X149104816Y-75377262D01*
X149200789Y-75224522D01*
X149260368Y-75054255D01*
X149264271Y-75019616D01*
X149280565Y-74875003D01*
X149280565Y-74874996D01*
X149260369Y-74695750D01*
X149260368Y-74695745D01*
X149230358Y-74609982D01*
X149200789Y-74525478D01*
X149182106Y-74495745D01*
X149122738Y-74401261D01*
X149104816Y-74372738D01*
X149104814Y-74372736D01*
X149104813Y-74372734D01*
X149102550Y-74369896D01*
X149101659Y-74367715D01*
X149101111Y-74366842D01*
X149101264Y-74366745D01*
X149076144Y-74305209D01*
X149075500Y-74292587D01*
X149075500Y-73214060D01*
X149075501Y-73214047D01*
X149075501Y-73045944D01*
X149065310Y-73007911D01*
X149034577Y-72893216D01*
X149022459Y-72872226D01*
X148955524Y-72756290D01*
X148955518Y-72756282D01*
X145371312Y-69172076D01*
X145337827Y-69110753D01*
X145342811Y-69041061D01*
X145384683Y-68985128D01*
X145450147Y-68960711D01*
X145499948Y-68967353D01*
X145665745Y-69025368D01*
X145665750Y-69025369D01*
X145844996Y-69045565D01*
X145845000Y-69045565D01*
X145845004Y-69045565D01*
X146024249Y-69025369D01*
X146024252Y-69025368D01*
X146024255Y-69025368D01*
X146194522Y-68965789D01*
X146347262Y-68869816D01*
X146474816Y-68742262D01*
X146570789Y-68589522D01*
X146630368Y-68419255D01*
X146631350Y-68410538D01*
X146650565Y-68240003D01*
X146650565Y-68239996D01*
X146630369Y-68060750D01*
X146630368Y-68060745D01*
X146601156Y-67977262D01*
X146570789Y-67890478D01*
X146474816Y-67737738D01*
X146347262Y-67610184D01*
X146194523Y-67514211D01*
X146024254Y-67454631D01*
X146024249Y-67454630D01*
X145845004Y-67434435D01*
X145844996Y-67434435D01*
X145665750Y-67454630D01*
X145665745Y-67454631D01*
X145495476Y-67514211D01*
X145342737Y-67610184D01*
X145215184Y-67737737D01*
X145119211Y-67890476D01*
X145059631Y-68060745D01*
X145059630Y-68060750D01*
X145039435Y-68239996D01*
X145039435Y-68240003D01*
X145059630Y-68419249D01*
X145059632Y-68419257D01*
X145117646Y-68585052D01*
X145121207Y-68654831D01*
X145086478Y-68715458D01*
X145024485Y-68747685D01*
X144954909Y-68741280D01*
X144912923Y-68713687D01*
X139986819Y-63787583D01*
X139953334Y-63726260D01*
X139950500Y-63699902D01*
X139950500Y-63665280D01*
X139969507Y-63599307D01*
X140000788Y-63549524D01*
X140007684Y-63529816D01*
X140060368Y-63379255D01*
X140060847Y-63375003D01*
X140080565Y-63200003D01*
X140080565Y-63199996D01*
X140060369Y-63020750D01*
X140060368Y-63020745D01*
X140038983Y-62959631D01*
X140000789Y-62850478D01*
X139984480Y-62824523D01*
X139961582Y-62788080D01*
X139904816Y-62697738D01*
X139777262Y-62570184D01*
X139776070Y-62569435D01*
X139624523Y-62474211D01*
X139454254Y-62414631D01*
X139454249Y-62414630D01*
X139275004Y-62394435D01*
X139274996Y-62394435D01*
X139095750Y-62414630D01*
X139095745Y-62414631D01*
X138925476Y-62474211D01*
X138772737Y-62570184D01*
X138645184Y-62697737D01*
X138549211Y-62850476D01*
X138489631Y-63020745D01*
X138489630Y-63020749D01*
X138480879Y-63098418D01*
X138453812Y-63162832D01*
X138396216Y-63202386D01*
X138326379Y-63204523D01*
X138269978Y-63172214D01*
X137486119Y-62388355D01*
X137486117Y-62388352D01*
X137367246Y-62269481D01*
X137367245Y-62269480D01*
X137280433Y-62219360D01*
X137280433Y-62219359D01*
X137280429Y-62219358D01*
X137230314Y-62190423D01*
X137077586Y-62149499D01*
X136919472Y-62149499D01*
X136911876Y-62149499D01*
X136911860Y-62149500D01*
X134399972Y-62149500D01*
X134359017Y-62142542D01*
X134279254Y-62114631D01*
X134279249Y-62114630D01*
X134100004Y-62094435D01*
X134099996Y-62094435D01*
X133920750Y-62114630D01*
X133920745Y-62114631D01*
X133750476Y-62174211D01*
X133597737Y-62270184D01*
X133470184Y-62397737D01*
X133374211Y-62550476D01*
X133314631Y-62720745D01*
X133314630Y-62720750D01*
X133294435Y-62899996D01*
X133294435Y-62900003D01*
X133314630Y-63079249D01*
X133314631Y-63079254D01*
X133374211Y-63249523D01*
X133459041Y-63384528D01*
X133478041Y-63451765D01*
X133457673Y-63518600D01*
X133404406Y-63563814D01*
X133354047Y-63574500D01*
X133075097Y-63574500D01*
X133008058Y-63554815D01*
X132987416Y-63538181D01*
X132482200Y-63032965D01*
X132448715Y-62971642D01*
X132446663Y-62959186D01*
X132436868Y-62872245D01*
X132401352Y-62770745D01*
X132377288Y-62701974D01*
X132284979Y-62555067D01*
X132265978Y-62487831D01*
X132286345Y-62420996D01*
X132302286Y-62401419D01*
X135041888Y-59661819D01*
X135103211Y-59628334D01*
X135129569Y-59625500D01*
X150400831Y-59625500D01*
X150400847Y-59625501D01*
X150408443Y-59625501D01*
X150566554Y-59625501D01*
X150566557Y-59625501D01*
X150719285Y-59584577D01*
X150769404Y-59555639D01*
X150856216Y-59505520D01*
X150968020Y-59393716D01*
X150968020Y-59393714D01*
X150978228Y-59383507D01*
X150978230Y-59383504D01*
X151893535Y-58468198D01*
X151954856Y-58434715D01*
X151967311Y-58432663D01*
X152054255Y-58422868D01*
X152224522Y-58363289D01*
X152377262Y-58267316D01*
X152504816Y-58139762D01*
X152600789Y-57987022D01*
X152660368Y-57816755D01*
X152660901Y-57812023D01*
X152680565Y-57637503D01*
X152680565Y-57637496D01*
X152660847Y-57462496D01*
X155119435Y-57462496D01*
X155119435Y-57462503D01*
X155139630Y-57641749D01*
X155139631Y-57641754D01*
X155199211Y-57812023D01*
X155278547Y-57938284D01*
X155295184Y-57964762D01*
X155422738Y-58092316D01*
X155505756Y-58144480D01*
X155557928Y-58177262D01*
X155575478Y-58188289D01*
X155745745Y-58247868D01*
X155745750Y-58247869D01*
X155924996Y-58268065D01*
X155925000Y-58268065D01*
X155925003Y-58268065D01*
X156043194Y-58254748D01*
X156112016Y-58266802D01*
X156163396Y-58314151D01*
X156181020Y-58381762D01*
X156164467Y-58439965D01*
X156152688Y-58460369D01*
X156141028Y-58480565D01*
X156090423Y-58568215D01*
X156049499Y-58720943D01*
X156049499Y-58720945D01*
X156049499Y-58889046D01*
X156049500Y-58889059D01*
X156049500Y-62175028D01*
X156042542Y-62215982D01*
X156014631Y-62295747D01*
X155994435Y-62474996D01*
X155994435Y-62475003D01*
X156014630Y-62654249D01*
X156014631Y-62654254D01*
X156074211Y-62824523D01*
X156159106Y-62959631D01*
X156170184Y-62977262D01*
X156297738Y-63104816D01*
X156388080Y-63161582D01*
X156442450Y-63195745D01*
X156450478Y-63200789D01*
X156503894Y-63219480D01*
X156620745Y-63260368D01*
X156620750Y-63260369D01*
X156799996Y-63280565D01*
X156800000Y-63280565D01*
X156800004Y-63280565D01*
X156979249Y-63260369D01*
X156979252Y-63260368D01*
X156979255Y-63260368D01*
X157149522Y-63200789D01*
X157302262Y-63104816D01*
X157429816Y-62977262D01*
X157447602Y-62948955D01*
X157499931Y-62902667D01*
X157568984Y-62892016D01*
X157593549Y-62897887D01*
X157770002Y-62959631D01*
X157770008Y-62959632D01*
X157770010Y-62959633D01*
X157770011Y-62959633D01*
X157770015Y-62959634D01*
X157949261Y-62979830D01*
X157949265Y-62979830D01*
X157949269Y-62979830D01*
X158128514Y-62959634D01*
X158128517Y-62959633D01*
X158128520Y-62959633D01*
X158298787Y-62900054D01*
X158451527Y-62804081D01*
X158579081Y-62676527D01*
X158675054Y-62523787D01*
X158734633Y-62353520D01*
X158738389Y-62320184D01*
X158754830Y-62174268D01*
X158754830Y-62174261D01*
X158734634Y-61995015D01*
X158734633Y-61995010D01*
X158675053Y-61824741D01*
X158636924Y-61764059D01*
X158579081Y-61672003D01*
X158579079Y-61672001D01*
X158579078Y-61671999D01*
X158576815Y-61669161D01*
X158575924Y-61666980D01*
X158575376Y-61666107D01*
X158575529Y-61666010D01*
X158550409Y-61604474D01*
X158549765Y-61591852D01*
X158549765Y-59075832D01*
X158569450Y-59008793D01*
X158586084Y-58988151D01*
X159262417Y-58311819D01*
X159323740Y-58278334D01*
X159350098Y-58275500D01*
X165867588Y-58275500D01*
X165934627Y-58295185D01*
X165944903Y-58302555D01*
X165947736Y-58304814D01*
X165947738Y-58304816D01*
X166040797Y-58363289D01*
X166080412Y-58388181D01*
X166100478Y-58400789D01*
X166212437Y-58439965D01*
X166270745Y-58460368D01*
X166270750Y-58460369D01*
X166449996Y-58480565D01*
X166450000Y-58480565D01*
X166450004Y-58480565D01*
X166629249Y-58460369D01*
X166629252Y-58460368D01*
X166629255Y-58460368D01*
X166799522Y-58400789D01*
X166952262Y-58304816D01*
X167079816Y-58177262D01*
X167175789Y-58024522D01*
X167235368Y-57854255D01*
X167235369Y-57854249D01*
X167255565Y-57675003D01*
X167255565Y-57674996D01*
X167240173Y-57538383D01*
X167252228Y-57469561D01*
X167299577Y-57418182D01*
X167363393Y-57400500D01*
X167517060Y-57400500D01*
X167584099Y-57420185D01*
X167604741Y-57436819D01*
X167672738Y-57504816D01*
X167726160Y-57538383D01*
X167812373Y-57592555D01*
X167825478Y-57600789D01*
X167942552Y-57641755D01*
X167995745Y-57660368D01*
X167995750Y-57660369D01*
X168174996Y-57680565D01*
X168175000Y-57680565D01*
X168175004Y-57680565D01*
X168354249Y-57660369D01*
X168354252Y-57660368D01*
X168354255Y-57660368D01*
X168524522Y-57600789D01*
X168677262Y-57504816D01*
X168804816Y-57377262D01*
X168900789Y-57224522D01*
X168960368Y-57054255D01*
X168960369Y-57054249D01*
X168980565Y-56875003D01*
X168980565Y-56874996D01*
X168960369Y-56695750D01*
X168960368Y-56695745D01*
X168900788Y-56525476D01*
X168804815Y-56372737D01*
X168677262Y-56245184D01*
X168524523Y-56149211D01*
X168354254Y-56089631D01*
X168354249Y-56089630D01*
X168175004Y-56069435D01*
X168174996Y-56069435D01*
X167995750Y-56089630D01*
X167995745Y-56089631D01*
X167825475Y-56149211D01*
X167775693Y-56180493D01*
X167709720Y-56199500D01*
X158729057Y-56199500D01*
X158570943Y-56199500D01*
X158418215Y-56240423D01*
X158418214Y-56240423D01*
X158418212Y-56240424D01*
X158418209Y-56240425D01*
X158368096Y-56269359D01*
X158368095Y-56269360D01*
X158324689Y-56294420D01*
X158281285Y-56319479D01*
X158281282Y-56319481D01*
X158169478Y-56431286D01*
X156929373Y-57671390D01*
X156868050Y-57704875D01*
X156798358Y-57699891D01*
X156742425Y-57658019D01*
X156718008Y-57592555D01*
X156718472Y-57569825D01*
X156721251Y-57545168D01*
X156728003Y-57485237D01*
X156730565Y-57462502D01*
X156730565Y-57462496D01*
X156710369Y-57283250D01*
X156710368Y-57283245D01*
X156681985Y-57202131D01*
X156650789Y-57112978D01*
X156554816Y-56960238D01*
X156427262Y-56832684D01*
X156426070Y-56831935D01*
X156274523Y-56736711D01*
X156104254Y-56677131D01*
X156104249Y-56677130D01*
X155925004Y-56656935D01*
X155924996Y-56656935D01*
X155745750Y-56677130D01*
X155745745Y-56677131D01*
X155575476Y-56736711D01*
X155422737Y-56832684D01*
X155295184Y-56960237D01*
X155199211Y-57112976D01*
X155139631Y-57283245D01*
X155139630Y-57283250D01*
X155119435Y-57462496D01*
X152660847Y-57462496D01*
X152660369Y-57458250D01*
X152660368Y-57458245D01*
X152600788Y-57287976D01*
X152504815Y-57135237D01*
X152377262Y-57007684D01*
X152224523Y-56911711D01*
X152054254Y-56852131D01*
X152054249Y-56852130D01*
X151875004Y-56831935D01*
X151874996Y-56831935D01*
X151695750Y-56852130D01*
X151695745Y-56852131D01*
X151525476Y-56911711D01*
X151372737Y-57007684D01*
X151245184Y-57135237D01*
X151149210Y-57287978D01*
X151089630Y-57458250D01*
X151079837Y-57545168D01*
X151052770Y-57609582D01*
X151044298Y-57618965D01*
X150275084Y-58388181D01*
X150213761Y-58421666D01*
X150187403Y-58424500D01*
X136719941Y-58424500D01*
X136652902Y-58404815D01*
X136607147Y-58352011D01*
X136597203Y-58282853D01*
X136602900Y-58259545D01*
X136635366Y-58166762D01*
X136635369Y-58166749D01*
X136655565Y-57987503D01*
X136655565Y-57987496D01*
X136635369Y-57808250D01*
X136635368Y-57808245D01*
X136590691Y-57680565D01*
X136575789Y-57637978D01*
X136563842Y-57618965D01*
X136532966Y-57569825D01*
X136479816Y-57485238D01*
X136352262Y-57357684D01*
X136241326Y-57287978D01*
X136199523Y-57261711D01*
X136029254Y-57202131D01*
X136029249Y-57202130D01*
X135850004Y-57181935D01*
X135849996Y-57181935D01*
X135670750Y-57202130D01*
X135670745Y-57202131D01*
X135500476Y-57261711D01*
X135347737Y-57357684D01*
X135220184Y-57485237D01*
X135124210Y-57637978D01*
X135064630Y-57808250D01*
X135054837Y-57895167D01*
X135027770Y-57959581D01*
X135019303Y-57968960D01*
X135000088Y-57988177D01*
X134938766Y-58021665D01*
X134912402Y-58024500D01*
X125995940Y-58024500D01*
X125955019Y-58035464D01*
X125955019Y-58035465D01*
X125917751Y-58045451D01*
X125843214Y-58065423D01*
X125843209Y-58065426D01*
X125706290Y-58144475D01*
X125706282Y-58144481D01*
X122544481Y-61306282D01*
X122544477Y-61306287D01*
X122496784Y-61388896D01*
X122496784Y-61388897D01*
X122465423Y-61443214D01*
X122465423Y-61443215D01*
X122424499Y-61595943D01*
X122424499Y-61595945D01*
X122424499Y-61764046D01*
X122424500Y-61764059D01*
X122424500Y-65792587D01*
X122404815Y-65859626D01*
X122397450Y-65869896D01*
X122395186Y-65872734D01*
X122299211Y-66025476D01*
X122239631Y-66195745D01*
X122239630Y-66195750D01*
X122219435Y-66374996D01*
X122219435Y-66375003D01*
X122239630Y-66554249D01*
X122239633Y-66554262D01*
X122299209Y-66724519D01*
X122313859Y-66747835D01*
X122332858Y-66815072D01*
X122312489Y-66881907D01*
X122287392Y-66908705D01*
X122287674Y-66909014D01*
X122283778Y-66912565D01*
X122283612Y-66912743D01*
X122283445Y-66912868D01*
X122119020Y-67062761D01*
X121984943Y-67240308D01*
X121984938Y-67240316D01*
X121885775Y-67439461D01*
X121885769Y-67439476D01*
X121824885Y-67653462D01*
X121824884Y-67653464D01*
X121804357Y-67874999D01*
X121500500Y-67874999D01*
X121500500Y-55926571D01*
X133499499Y-55926571D01*
X133524497Y-56052238D01*
X133524499Y-56052244D01*
X133573533Y-56170624D01*
X133573538Y-56170633D01*
X133644723Y-56277168D01*
X133644726Y-56277172D01*
X133735327Y-56367773D01*
X133735331Y-56367776D01*
X133841866Y-56438961D01*
X133841872Y-56438964D01*
X133841873Y-56438965D01*
X133960256Y-56488001D01*
X133960260Y-56488001D01*
X133960261Y-56488002D01*
X134085928Y-56513000D01*
X134085931Y-56513000D01*
X134214071Y-56513000D01*
X134298615Y-56496182D01*
X134339744Y-56488001D01*
X134458127Y-56438965D01*
X134564669Y-56367776D01*
X134655276Y-56277169D01*
X134726465Y-56170627D01*
X134775501Y-56052244D01*
X134800500Y-55926569D01*
X134800500Y-55798431D01*
X134800500Y-55798428D01*
X134775502Y-55672761D01*
X134775501Y-55672760D01*
X134775501Y-55672756D01*
X134726465Y-55554373D01*
X134726464Y-55554372D01*
X134726461Y-55554366D01*
X134655276Y-55447831D01*
X134655273Y-55447827D01*
X134564672Y-55357226D01*
X134564668Y-55357223D01*
X134458133Y-55286038D01*
X134458124Y-55286033D01*
X134339744Y-55236999D01*
X134339738Y-55236997D01*
X134214071Y-55212000D01*
X134214069Y-55212000D01*
X134085931Y-55212000D01*
X134085929Y-55212000D01*
X133960261Y-55236997D01*
X133960255Y-55236999D01*
X133841875Y-55286033D01*
X133841866Y-55286038D01*
X133735331Y-55357223D01*
X133735327Y-55357226D01*
X133644726Y-55447827D01*
X133644723Y-55447831D01*
X133573538Y-55554366D01*
X133573533Y-55554375D01*
X133524499Y-55672755D01*
X133524497Y-55672761D01*
X133499500Y-55798428D01*
X133499500Y-55798431D01*
X133499500Y-55926569D01*
X133499500Y-55926571D01*
X133499499Y-55926571D01*
X121500500Y-55926571D01*
X121500500Y-54024500D01*
X121520185Y-53957461D01*
X121572989Y-53911706D01*
X121624500Y-53900500D01*
X138694988Y-53900500D01*
X138762027Y-53920185D01*
G37*
G04 #@! TD.AperFunction*
M02*
