G04 #@! TF.GenerationSoftware,KiCad,Pcbnew,8.0.8*
G04 #@! TF.CreationDate,2025-07-12T12:58:50+02:00*
G04 #@! TF.ProjectId,main,6d61696e-2e6b-4696-9361-645f70636258,rev?*
G04 #@! TF.SameCoordinates,Original*
G04 #@! TF.FileFunction,Copper,L2,Inr*
G04 #@! TF.FilePolarity,Positive*
%FSLAX46Y46*%
G04 Gerber Fmt 4.6, Leading zero omitted, Abs format (unit mm)*
G04 Created by KiCad (PCBNEW 8.0.8) date 2025-07-12 12:58:50*
%MOMM*%
%LPD*%
G01*
G04 APERTURE LIST*
G04 #@! TA.AperFunction,ComponentPad*
%ADD10R,1.350000X1.350000*%
G04 #@! TD*
G04 #@! TA.AperFunction,ComponentPad*
%ADD11O,1.350000X1.350000*%
G04 #@! TD*
G04 #@! TA.AperFunction,ViaPad*
%ADD12C,0.600000*%
G04 #@! TD*
G04 #@! TA.AperFunction,ViaPad*
%ADD13C,1.400000*%
G04 #@! TD*
G04 #@! TA.AperFunction,ViaPad*
%ADD14C,1.000000*%
G04 #@! TD*
G04 APERTURE END LIST*
D10*
X167075000Y-78950000D03*
D11*
X169075000Y-78950000D03*
D12*
X154800000Y-68850000D03*
X153825000Y-71250000D03*
X151675000Y-71700000D03*
X145525000Y-71600000D03*
X145525000Y-71600000D03*
X153625000Y-67525000D03*
X157537500Y-77637500D03*
X157725000Y-76600000D03*
X153020343Y-66745343D03*
X168175000Y-56875000D03*
X166450000Y-57675000D03*
X139425000Y-54600000D03*
X143250000Y-83600000D03*
X153050000Y-62950000D03*
X156750000Y-64475000D03*
X168250000Y-74675000D03*
X145845000Y-68240000D03*
X166625000Y-74650000D03*
X151250000Y-67475000D03*
X132375000Y-82200000D03*
X130575000Y-66150000D03*
X129111500Y-63375000D03*
X160225000Y-80425000D03*
X157600000Y-69625000D03*
X129925000Y-82250000D03*
X155925000Y-57462500D03*
D13*
X130575000Y-67975000D03*
D12*
X135175000Y-68383000D03*
D13*
X125550000Y-67875000D03*
D12*
X133675000Y-84525000D03*
X131125000Y-84575000D03*
X135375000Y-63375000D03*
X158175000Y-64450000D03*
X130175000Y-79625000D03*
X129025000Y-74975000D03*
X136375000Y-79450000D03*
X123150000Y-57175000D03*
X164325000Y-54775000D03*
X147075000Y-75750000D03*
X125525000Y-66350000D03*
X124400000Y-83300000D03*
X126650000Y-63300000D03*
D14*
X137183200Y-68383000D03*
D12*
X162133000Y-69450000D03*
X146750000Y-64850000D03*
X136725000Y-75125000D03*
X157949265Y-62174265D03*
X152175000Y-65725000D03*
X140325000Y-72375000D03*
X141100000Y-71650000D03*
X134125000Y-75125000D03*
X156800000Y-62475000D03*
X148475000Y-74875000D03*
X139275000Y-63200000D03*
X143925000Y-75350000D03*
X134100000Y-62900000D03*
X153737500Y-76062500D03*
X141275000Y-76648750D03*
X142650000Y-81050000D03*
X153600000Y-77250000D03*
X143300000Y-75950000D03*
X131651500Y-63051500D03*
X142550000Y-75308750D03*
X136712499Y-63350000D03*
D13*
X123010000Y-67875000D03*
D12*
X135850000Y-57987500D03*
X123025000Y-66375000D03*
D13*
X130630000Y-70415000D03*
D12*
X130500000Y-72100000D03*
X151875000Y-57637500D03*
X128125000Y-72150000D03*
D13*
X128090000Y-70415000D03*
X128090000Y-67875000D03*
D12*
X156150000Y-71500000D03*
X154425000Y-60725000D03*
D14*
X137250000Y-70900000D03*
D12*
X123025000Y-72050000D03*
D13*
X123010000Y-70415000D03*
D12*
X133887500Y-71787500D03*
G04 #@! TA.AperFunction,Conductor*
G36*
X163848776Y-53920185D02*
G01*
X163894531Y-53972989D01*
X163904475Y-54042147D01*
X163875450Y-54105703D01*
X163847710Y-54129492D01*
X163839023Y-54134951D01*
X163822737Y-54145184D01*
X163695184Y-54272737D01*
X163599211Y-54425476D01*
X163539631Y-54595745D01*
X163539630Y-54595750D01*
X163519435Y-54774996D01*
X163519435Y-54775003D01*
X163539630Y-54954249D01*
X163539631Y-54954254D01*
X163599211Y-55124523D01*
X163654177Y-55212000D01*
X163695184Y-55277262D01*
X163822738Y-55404816D01*
X163975478Y-55500789D01*
X164128592Y-55554366D01*
X164145745Y-55560368D01*
X164145750Y-55560369D01*
X164324996Y-55580565D01*
X164325000Y-55580565D01*
X164325004Y-55580565D01*
X164504249Y-55560369D01*
X164504252Y-55560368D01*
X164504255Y-55560368D01*
X164674522Y-55500789D01*
X164827262Y-55404816D01*
X164954816Y-55277262D01*
X165050789Y-55124522D01*
X165110368Y-54954255D01*
X165110369Y-54954249D01*
X165130565Y-54775003D01*
X165130565Y-54774996D01*
X165110369Y-54595750D01*
X165110368Y-54595745D01*
X165050788Y-54425476D01*
X164954815Y-54272737D01*
X164827262Y-54145184D01*
X164802290Y-54129493D01*
X164756000Y-54077159D01*
X164745352Y-54008106D01*
X164773727Y-53944257D01*
X164832116Y-53905885D01*
X164868263Y-53900500D01*
X170375500Y-53900500D01*
X170442539Y-53920185D01*
X170488294Y-53972989D01*
X170499500Y-54024500D01*
X170499500Y-78900712D01*
X170484644Y-78951304D01*
X170497193Y-78975479D01*
X170499500Y-78999287D01*
X170499500Y-84875500D01*
X170479815Y-84942539D01*
X170427011Y-84988294D01*
X170375500Y-84999500D01*
X134531820Y-84999500D01*
X134464781Y-84979815D01*
X134419026Y-84927011D01*
X134409082Y-84857853D01*
X134414778Y-84834546D01*
X134460367Y-84704257D01*
X134460368Y-84704255D01*
X134474931Y-84575003D01*
X134480565Y-84525003D01*
X134480565Y-84524996D01*
X134460369Y-84345750D01*
X134460368Y-84345745D01*
X134400788Y-84175476D01*
X134304815Y-84022737D01*
X134177262Y-83895184D01*
X134024523Y-83799211D01*
X133854254Y-83739631D01*
X133854249Y-83739630D01*
X133675004Y-83719435D01*
X133674996Y-83719435D01*
X133495750Y-83739630D01*
X133495745Y-83739631D01*
X133325476Y-83799211D01*
X133172737Y-83895184D01*
X133045184Y-84022737D01*
X132949211Y-84175476D01*
X132889631Y-84345745D01*
X132889630Y-84345750D01*
X132869435Y-84524996D01*
X132869435Y-84525003D01*
X132889630Y-84704249D01*
X132889632Y-84704257D01*
X132935222Y-84834546D01*
X132938783Y-84904325D01*
X132904054Y-84964952D01*
X132842061Y-84997179D01*
X132818180Y-84999500D01*
X131999315Y-84999500D01*
X131932276Y-84979815D01*
X131886521Y-84927011D01*
X131876577Y-84857853D01*
X131882274Y-84834545D01*
X131910366Y-84754262D01*
X131910369Y-84754249D01*
X131930565Y-84575003D01*
X131930565Y-84574996D01*
X131910369Y-84395750D01*
X131910368Y-84395745D01*
X131870377Y-84281457D01*
X131850789Y-84225478D01*
X131754816Y-84072738D01*
X131627262Y-83945184D01*
X131602804Y-83929816D01*
X131474523Y-83849211D01*
X131304254Y-83789631D01*
X131304249Y-83789630D01*
X131125004Y-83769435D01*
X131124996Y-83769435D01*
X130945750Y-83789630D01*
X130945745Y-83789631D01*
X130775476Y-83849211D01*
X130622737Y-83945184D01*
X130495184Y-84072737D01*
X130399211Y-84225476D01*
X130339631Y-84395745D01*
X130339630Y-84395750D01*
X130319435Y-84574996D01*
X130319435Y-84575003D01*
X130339630Y-84754249D01*
X130339633Y-84754262D01*
X130367726Y-84834545D01*
X130371288Y-84904324D01*
X130336560Y-84964951D01*
X130274566Y-84997179D01*
X130250685Y-84999500D01*
X121624500Y-84999500D01*
X121557461Y-84979815D01*
X121511706Y-84927011D01*
X121500500Y-84875500D01*
X121500500Y-83299996D01*
X123594435Y-83299996D01*
X123594435Y-83300003D01*
X123614630Y-83479249D01*
X123614631Y-83479254D01*
X123674211Y-83649523D01*
X123730830Y-83739631D01*
X123770184Y-83802262D01*
X123897738Y-83929816D01*
X123912859Y-83939317D01*
X124045620Y-84022737D01*
X124050478Y-84025789D01*
X124070506Y-84032797D01*
X124220745Y-84085368D01*
X124220750Y-84085369D01*
X124399996Y-84105565D01*
X124400000Y-84105565D01*
X124400004Y-84105565D01*
X124579249Y-84085369D01*
X124579252Y-84085368D01*
X124579255Y-84085368D01*
X124749522Y-84025789D01*
X124902262Y-83929816D01*
X125029816Y-83802262D01*
X125125789Y-83649522D01*
X125185368Y-83479255D01*
X125205565Y-83300000D01*
X125185368Y-83120745D01*
X125125789Y-82950478D01*
X125029816Y-82797738D01*
X124902262Y-82670184D01*
X124749523Y-82574211D01*
X124579254Y-82514631D01*
X124579249Y-82514630D01*
X124400004Y-82494435D01*
X124399996Y-82494435D01*
X124220750Y-82514630D01*
X124220745Y-82514631D01*
X124050476Y-82574211D01*
X123897737Y-82670184D01*
X123770184Y-82797737D01*
X123674211Y-82950476D01*
X123614631Y-83120745D01*
X123614630Y-83120750D01*
X123594435Y-83299996D01*
X121500500Y-83299996D01*
X121500500Y-81049996D01*
X141844435Y-81049996D01*
X141844435Y-81050003D01*
X141864630Y-81229249D01*
X141864631Y-81229254D01*
X141924211Y-81399523D01*
X142020184Y-81552262D01*
X142147738Y-81679816D01*
X142300478Y-81775789D01*
X142470745Y-81835368D01*
X142470750Y-81835369D01*
X142649996Y-81855565D01*
X142650000Y-81855565D01*
X142650004Y-81855565D01*
X142829249Y-81835369D01*
X142829252Y-81835368D01*
X142829255Y-81835368D01*
X142999522Y-81775789D01*
X143152262Y-81679816D01*
X143279816Y-81552262D01*
X143375789Y-81399522D01*
X143435368Y-81229255D01*
X143455565Y-81050000D01*
X143435368Y-80870745D01*
X143375789Y-80700478D01*
X143279816Y-80547738D01*
X143152262Y-80420184D01*
X143041821Y-80350789D01*
X142999523Y-80324211D01*
X142829254Y-80264631D01*
X142829249Y-80264630D01*
X142650004Y-80244435D01*
X142649996Y-80244435D01*
X142470750Y-80264630D01*
X142470745Y-80264631D01*
X142300476Y-80324211D01*
X142147737Y-80420184D01*
X142020184Y-80547737D01*
X141924211Y-80700476D01*
X141864631Y-80870745D01*
X141864630Y-80870750D01*
X141844435Y-81049996D01*
X121500500Y-81049996D01*
X121500500Y-79624996D01*
X129369435Y-79624996D01*
X129369435Y-79625003D01*
X129389630Y-79804249D01*
X129389631Y-79804254D01*
X129449211Y-79974523D01*
X129518924Y-80085469D01*
X129545184Y-80127262D01*
X129672738Y-80254816D01*
X129825478Y-80350789D01*
X129995745Y-80410368D01*
X129995750Y-80410369D01*
X130174996Y-80430565D01*
X130175000Y-80430565D01*
X130175004Y-80430565D01*
X130354249Y-80410369D01*
X130354252Y-80410368D01*
X130354255Y-80410368D01*
X130524522Y-80350789D01*
X130677262Y-80254816D01*
X130804816Y-80127262D01*
X130900789Y-79974522D01*
X130960368Y-79804255D01*
X130960901Y-79799523D01*
X130980565Y-79625003D01*
X130980565Y-79624996D01*
X130960847Y-79449996D01*
X135569435Y-79449996D01*
X135569435Y-79450003D01*
X135589630Y-79629249D01*
X135589631Y-79629254D01*
X135649211Y-79799523D01*
X135701085Y-79882079D01*
X135745184Y-79952262D01*
X135872738Y-80079816D01*
X136025478Y-80175789D01*
X136195745Y-80235368D01*
X136195750Y-80235369D01*
X136374996Y-80255565D01*
X136375000Y-80255565D01*
X136375004Y-80255565D01*
X136554249Y-80235369D01*
X136554252Y-80235368D01*
X136554255Y-80235368D01*
X136724522Y-80175789D01*
X136877262Y-80079816D01*
X137004816Y-79952262D01*
X137100789Y-79799522D01*
X137160368Y-79629255D01*
X137160847Y-79625003D01*
X137180565Y-79450003D01*
X137180565Y-79449996D01*
X137160369Y-79270750D01*
X137160368Y-79270745D01*
X137100788Y-79100476D01*
X137034628Y-78995184D01*
X137004816Y-78947738D01*
X136877262Y-78820184D01*
X136738639Y-78733081D01*
X136724523Y-78724211D01*
X136554254Y-78664631D01*
X136554249Y-78664630D01*
X136375004Y-78644435D01*
X136374996Y-78644435D01*
X136195750Y-78664630D01*
X136195745Y-78664631D01*
X136025476Y-78724211D01*
X135872737Y-78820184D01*
X135745184Y-78947737D01*
X135649211Y-79100476D01*
X135589631Y-79270745D01*
X135589630Y-79270750D01*
X135569435Y-79449996D01*
X130960847Y-79449996D01*
X130960369Y-79445750D01*
X130960368Y-79445745D01*
X130900788Y-79275476D01*
X130804815Y-79122737D01*
X130677262Y-78995184D01*
X130524523Y-78899211D01*
X130354254Y-78839631D01*
X130354249Y-78839630D01*
X130175004Y-78819435D01*
X130174996Y-78819435D01*
X129995750Y-78839630D01*
X129995745Y-78839631D01*
X129825476Y-78899211D01*
X129672737Y-78995184D01*
X129545184Y-79122737D01*
X129449211Y-79275476D01*
X129389631Y-79445745D01*
X129389630Y-79445750D01*
X129369435Y-79624996D01*
X121500500Y-79624996D01*
X121500500Y-76648746D01*
X140469435Y-76648746D01*
X140469435Y-76648753D01*
X140489630Y-76827999D01*
X140489631Y-76828004D01*
X140549211Y-76998273D01*
X140635273Y-77135239D01*
X140645184Y-77151012D01*
X140772738Y-77278566D01*
X140925478Y-77374539D01*
X141081847Y-77429255D01*
X141095745Y-77434118D01*
X141095750Y-77434119D01*
X141274996Y-77454315D01*
X141275000Y-77454315D01*
X141275004Y-77454315D01*
X141454249Y-77434119D01*
X141454252Y-77434118D01*
X141454255Y-77434118D01*
X141624522Y-77374539D01*
X141777262Y-77278566D01*
X141805832Y-77249996D01*
X152794435Y-77249996D01*
X152794435Y-77250003D01*
X152814630Y-77429249D01*
X152814631Y-77429254D01*
X152874211Y-77599523D01*
X152898074Y-77637500D01*
X152970184Y-77752262D01*
X153097738Y-77879816D01*
X153250478Y-77975789D01*
X153370890Y-78017923D01*
X153420745Y-78035368D01*
X153420750Y-78035369D01*
X153599996Y-78055565D01*
X153600000Y-78055565D01*
X153600004Y-78055565D01*
X153779249Y-78035369D01*
X153779252Y-78035368D01*
X153779255Y-78035368D01*
X153949522Y-77975789D01*
X154102262Y-77879816D01*
X154229816Y-77752262D01*
X154301928Y-77637496D01*
X156731935Y-77637496D01*
X156731935Y-77637503D01*
X156752130Y-77816749D01*
X156752131Y-77816754D01*
X156811711Y-77987023D01*
X156842089Y-78035369D01*
X156907684Y-78139762D01*
X157035238Y-78267316D01*
X157187978Y-78363289D01*
X157358245Y-78422868D01*
X157358250Y-78422869D01*
X157537496Y-78443065D01*
X157537500Y-78443065D01*
X157537504Y-78443065D01*
X157716749Y-78422869D01*
X157716752Y-78422868D01*
X157716755Y-78422868D01*
X157887022Y-78363289D01*
X158039762Y-78267316D01*
X158079943Y-78227135D01*
X165899500Y-78227135D01*
X165899500Y-79672870D01*
X165899501Y-79672876D01*
X165905908Y-79732483D01*
X165956202Y-79867328D01*
X165956206Y-79867335D01*
X166042452Y-79982544D01*
X166042455Y-79982547D01*
X166157664Y-80068793D01*
X166157671Y-80068797D01*
X166292517Y-80119091D01*
X166292516Y-80119091D01*
X166299444Y-80119835D01*
X166352127Y-80125500D01*
X167797872Y-80125499D01*
X167857483Y-80119091D01*
X167992331Y-80068796D01*
X168107546Y-79982546D01*
X168169785Y-79899404D01*
X168225718Y-79857535D01*
X168295410Y-79852551D01*
X168352588Y-79882078D01*
X168363568Y-79892088D01*
X168363570Y-79892089D01*
X168363571Y-79892090D01*
X168548786Y-80006770D01*
X168548792Y-80006773D01*
X168571664Y-80015633D01*
X168751931Y-80085470D01*
X168966074Y-80125500D01*
X168966076Y-80125500D01*
X169183924Y-80125500D01*
X169183926Y-80125500D01*
X169398069Y-80085470D01*
X169601210Y-80006772D01*
X169786432Y-79892088D01*
X169947427Y-79745322D01*
X170078712Y-79571472D01*
X170175817Y-79376459D01*
X170235435Y-79166923D01*
X170252029Y-78987845D01*
X170266556Y-78951260D01*
X170256523Y-78935647D01*
X170252029Y-78912153D01*
X170235435Y-78733081D01*
X170235435Y-78733077D01*
X170175817Y-78523541D01*
X170078712Y-78328528D01*
X169947427Y-78154678D01*
X169920016Y-78129690D01*
X169830996Y-78048537D01*
X169786432Y-78007912D01*
X169786428Y-78007909D01*
X169786423Y-78007906D01*
X169601213Y-77893229D01*
X169601207Y-77893226D01*
X169516113Y-77860260D01*
X169398069Y-77814530D01*
X169183926Y-77774500D01*
X168966074Y-77774500D01*
X168751931Y-77814530D01*
X168708896Y-77831202D01*
X168548792Y-77893226D01*
X168548786Y-77893229D01*
X168363565Y-78007913D01*
X168352585Y-78017923D01*
X168289780Y-78048537D01*
X168220393Y-78040336D01*
X168169785Y-78000594D01*
X168143848Y-77965948D01*
X168107546Y-77917454D01*
X168107544Y-77917453D01*
X168107544Y-77917452D01*
X167992335Y-77831206D01*
X167992328Y-77831202D01*
X167857482Y-77780908D01*
X167857483Y-77780908D01*
X167797883Y-77774501D01*
X167797881Y-77774500D01*
X167797873Y-77774500D01*
X167797864Y-77774500D01*
X166352129Y-77774500D01*
X166352123Y-77774501D01*
X166292516Y-77780908D01*
X166157671Y-77831202D01*
X166157664Y-77831206D01*
X166042455Y-77917452D01*
X166042452Y-77917455D01*
X165956206Y-78032664D01*
X165956202Y-78032671D01*
X165905908Y-78167517D01*
X165899501Y-78227116D01*
X165899500Y-78227135D01*
X158079943Y-78227135D01*
X158167316Y-78139762D01*
X158263289Y-77987022D01*
X158322868Y-77816755D01*
X158343065Y-77637500D01*
X158338786Y-77599523D01*
X158322869Y-77458250D01*
X158322866Y-77458237D01*
X158264608Y-77291746D01*
X158261046Y-77221967D01*
X158293968Y-77163110D01*
X158321840Y-77135238D01*
X158354816Y-77102262D01*
X158450789Y-76949522D01*
X158510368Y-76779255D01*
X158510369Y-76779249D01*
X158530565Y-76600003D01*
X158530565Y-76599996D01*
X158510369Y-76420750D01*
X158510368Y-76420745D01*
X158467847Y-76299228D01*
X158450789Y-76250478D01*
X158445307Y-76241754D01*
X158380010Y-76137834D01*
X158354816Y-76097738D01*
X158227262Y-75970184D01*
X158074523Y-75874211D01*
X157904254Y-75814631D01*
X157904249Y-75814630D01*
X157725004Y-75794435D01*
X157724996Y-75794435D01*
X157545750Y-75814630D01*
X157545745Y-75814631D01*
X157375476Y-75874211D01*
X157222737Y-75970184D01*
X157095184Y-76097737D01*
X156999211Y-76250476D01*
X156939631Y-76420745D01*
X156939630Y-76420750D01*
X156919435Y-76599996D01*
X156919435Y-76600003D01*
X156939630Y-76779249D01*
X156939631Y-76779254D01*
X156997892Y-76945753D01*
X157001453Y-77015532D01*
X156968533Y-77074388D01*
X156907683Y-77135239D01*
X156811711Y-77287976D01*
X156752131Y-77458245D01*
X156752130Y-77458250D01*
X156731935Y-77637496D01*
X154301928Y-77637496D01*
X154325789Y-77599522D01*
X154385368Y-77429255D01*
X154391533Y-77374538D01*
X154405565Y-77250003D01*
X154405565Y-77249996D01*
X154385369Y-77070750D01*
X154385368Y-77070745D01*
X154360009Y-76998273D01*
X154325789Y-76900478D01*
X154264877Y-76803538D01*
X154245878Y-76736303D01*
X154266246Y-76669467D01*
X154282182Y-76649895D01*
X154367316Y-76564762D01*
X154463289Y-76412022D01*
X154522868Y-76241755D01*
X154522869Y-76241749D01*
X154543065Y-76062503D01*
X154543065Y-76062496D01*
X154522869Y-75883250D01*
X154522868Y-75883245D01*
X154498859Y-75814631D01*
X154463289Y-75712978D01*
X154367316Y-75560238D01*
X154239762Y-75432684D01*
X154087023Y-75336711D01*
X153916754Y-75277131D01*
X153916749Y-75277130D01*
X153737504Y-75256935D01*
X153737496Y-75256935D01*
X153558250Y-75277130D01*
X153558245Y-75277131D01*
X153387976Y-75336711D01*
X153235237Y-75432684D01*
X153107684Y-75560237D01*
X153011711Y-75712976D01*
X152952131Y-75883245D01*
X152952130Y-75883250D01*
X152931935Y-76062496D01*
X152931935Y-76062503D01*
X152952130Y-76241749D01*
X152952131Y-76241754D01*
X153011711Y-76412023D01*
X153072621Y-76508960D01*
X153091621Y-76576197D01*
X153071253Y-76643032D01*
X153055309Y-76662613D01*
X152970183Y-76747739D01*
X152874211Y-76900476D01*
X152814631Y-77070745D01*
X152814630Y-77070750D01*
X152794435Y-77249996D01*
X141805832Y-77249996D01*
X141904816Y-77151012D01*
X142000789Y-76998272D01*
X142060368Y-76828005D01*
X142065861Y-76779254D01*
X142080565Y-76648753D01*
X142080565Y-76648746D01*
X142060369Y-76469500D01*
X142060368Y-76469495D01*
X142028988Y-76379816D01*
X142000789Y-76299228D01*
X141904816Y-76146488D01*
X141777262Y-76018934D01*
X141624523Y-75922961D01*
X141454254Y-75863381D01*
X141454249Y-75863380D01*
X141275004Y-75843185D01*
X141274996Y-75843185D01*
X141095750Y-75863380D01*
X141095745Y-75863381D01*
X140925476Y-75922961D01*
X140772737Y-76018934D01*
X140645184Y-76146487D01*
X140549211Y-76299226D01*
X140489631Y-76469495D01*
X140489630Y-76469500D01*
X140469435Y-76648746D01*
X121500500Y-76648746D01*
X121500500Y-74974996D01*
X128219435Y-74974996D01*
X128219435Y-74975003D01*
X128239630Y-75154249D01*
X128239631Y-75154254D01*
X128299211Y-75324523D01*
X128346936Y-75400476D01*
X128395184Y-75477262D01*
X128522738Y-75604816D01*
X128558461Y-75627262D01*
X128673461Y-75699522D01*
X128675478Y-75700789D01*
X128829878Y-75754816D01*
X128845745Y-75760368D01*
X128845750Y-75760369D01*
X129024996Y-75780565D01*
X129025000Y-75780565D01*
X129025004Y-75780565D01*
X129204249Y-75760369D01*
X129204252Y-75760368D01*
X129204255Y-75760368D01*
X129374522Y-75700789D01*
X129527262Y-75604816D01*
X129654816Y-75477262D01*
X129750789Y-75324522D01*
X129810368Y-75154255D01*
X129810369Y-75154249D01*
X129813665Y-75124996D01*
X133319435Y-75124996D01*
X133319435Y-75125003D01*
X133339630Y-75304249D01*
X133339631Y-75304254D01*
X133399211Y-75474523D01*
X133453069Y-75560237D01*
X133495184Y-75627262D01*
X133622738Y-75754816D01*
X133685791Y-75794435D01*
X133717934Y-75814632D01*
X133775478Y-75850789D01*
X133945745Y-75910368D01*
X133945750Y-75910369D01*
X134124996Y-75930565D01*
X134125000Y-75930565D01*
X134125004Y-75930565D01*
X134304249Y-75910369D01*
X134304252Y-75910368D01*
X134304255Y-75910368D01*
X134474522Y-75850789D01*
X134627262Y-75754816D01*
X134754816Y-75627262D01*
X134850789Y-75474522D01*
X134910368Y-75304255D01*
X134913424Y-75277131D01*
X134930565Y-75125003D01*
X134930565Y-75124996D01*
X135919435Y-75124996D01*
X135919435Y-75125003D01*
X135939630Y-75304249D01*
X135939631Y-75304254D01*
X135999211Y-75474523D01*
X136053069Y-75560237D01*
X136095184Y-75627262D01*
X136222738Y-75754816D01*
X136285791Y-75794435D01*
X136317934Y-75814632D01*
X136375478Y-75850789D01*
X136545745Y-75910368D01*
X136545750Y-75910369D01*
X136724996Y-75930565D01*
X136725000Y-75930565D01*
X136725004Y-75930565D01*
X136904249Y-75910369D01*
X136904252Y-75910368D01*
X136904255Y-75910368D01*
X137074522Y-75850789D01*
X137227262Y-75754816D01*
X137354816Y-75627262D01*
X137450789Y-75474522D01*
X137508797Y-75308746D01*
X141744435Y-75308746D01*
X141744435Y-75308753D01*
X141764630Y-75487999D01*
X141764631Y-75488004D01*
X141824211Y-75658273D01*
X141888362Y-75760368D01*
X141920184Y-75811012D01*
X142047738Y-75938566D01*
X142200478Y-76034539D01*
X142370745Y-76094118D01*
X142430314Y-76100829D01*
X142494726Y-76127894D01*
X142533470Y-76183093D01*
X142539428Y-76200118D01*
X142574210Y-76299521D01*
X142650384Y-76420750D01*
X142670184Y-76452262D01*
X142797738Y-76579816D01*
X142861983Y-76620184D01*
X142940416Y-76669467D01*
X142950478Y-76675789D01*
X143069796Y-76717540D01*
X143120745Y-76735368D01*
X143120750Y-76735369D01*
X143299996Y-76755565D01*
X143300000Y-76755565D01*
X143300004Y-76755565D01*
X143479249Y-76735369D01*
X143479252Y-76735368D01*
X143479255Y-76735368D01*
X143649522Y-76675789D01*
X143802262Y-76579816D01*
X143929816Y-76452262D01*
X144025789Y-76299522D01*
X144060571Y-76200117D01*
X144101292Y-76143341D01*
X144136657Y-76124029D01*
X144274522Y-76075789D01*
X144427262Y-75979816D01*
X144554816Y-75852262D01*
X144619074Y-75749996D01*
X146269435Y-75749996D01*
X146269435Y-75750003D01*
X146289630Y-75929249D01*
X146289631Y-75929254D01*
X146349211Y-76099523D01*
X146401723Y-76183095D01*
X146445184Y-76252262D01*
X146572738Y-76379816D01*
X146725478Y-76475789D01*
X146895745Y-76535368D01*
X146895750Y-76535369D01*
X147074996Y-76555565D01*
X147075000Y-76555565D01*
X147075004Y-76555565D01*
X147254249Y-76535369D01*
X147254252Y-76535368D01*
X147254255Y-76535368D01*
X147424522Y-76475789D01*
X147577262Y-76379816D01*
X147704816Y-76252262D01*
X147800789Y-76099522D01*
X147860368Y-75929255D01*
X147862496Y-75910368D01*
X147880565Y-75750003D01*
X147880565Y-75749998D01*
X147878332Y-75730187D01*
X147872641Y-75679675D01*
X147884695Y-75610855D01*
X147932044Y-75559475D01*
X147999654Y-75541850D01*
X148061834Y-75560799D01*
X148125475Y-75600788D01*
X148295745Y-75660368D01*
X148295750Y-75660369D01*
X148474996Y-75680565D01*
X148475000Y-75680565D01*
X148475004Y-75680565D01*
X148654249Y-75660369D01*
X148654252Y-75660368D01*
X148654255Y-75660368D01*
X148824522Y-75600789D01*
X148977262Y-75504816D01*
X149104816Y-75377262D01*
X149200789Y-75224522D01*
X149260368Y-75054255D01*
X149266427Y-75000478D01*
X149280565Y-74875003D01*
X149280565Y-74874996D01*
X149260369Y-74695750D01*
X149260368Y-74695745D01*
X149252117Y-74672165D01*
X149200789Y-74525478D01*
X149199471Y-74523381D01*
X149104815Y-74372737D01*
X148977262Y-74245184D01*
X148824523Y-74149211D01*
X148654254Y-74089631D01*
X148654249Y-74089630D01*
X148475004Y-74069435D01*
X148474996Y-74069435D01*
X148295750Y-74089630D01*
X148295745Y-74089631D01*
X148125476Y-74149211D01*
X147972737Y-74245184D01*
X147845184Y-74372737D01*
X147749211Y-74525476D01*
X147689631Y-74695745D01*
X147689630Y-74695750D01*
X147669435Y-74874996D01*
X147669435Y-74875003D01*
X147677358Y-74945324D01*
X147665303Y-75014146D01*
X147617954Y-75065525D01*
X147550344Y-75083149D01*
X147488166Y-75064201D01*
X147424523Y-75024211D01*
X147254254Y-74964631D01*
X147254249Y-74964630D01*
X147075004Y-74944435D01*
X147074996Y-74944435D01*
X146895750Y-74964630D01*
X146895745Y-74964631D01*
X146725476Y-75024211D01*
X146572737Y-75120184D01*
X146445184Y-75247737D01*
X146349211Y-75400476D01*
X146289631Y-75570745D01*
X146289630Y-75570750D01*
X146269435Y-75749996D01*
X144619074Y-75749996D01*
X144650789Y-75699522D01*
X144710368Y-75529255D01*
X144715016Y-75488004D01*
X144730565Y-75350003D01*
X144730565Y-75349996D01*
X144710369Y-75170750D01*
X144710368Y-75170745D01*
X144673550Y-75065525D01*
X144650789Y-75000478D01*
X144628265Y-74964632D01*
X144599540Y-74918916D01*
X144554816Y-74847738D01*
X144427262Y-74720184D01*
X144361613Y-74678934D01*
X144274523Y-74624211D01*
X144104254Y-74564631D01*
X144104249Y-74564630D01*
X143925004Y-74544435D01*
X143924996Y-74544435D01*
X143745750Y-74564630D01*
X143745745Y-74564631D01*
X143575476Y-74624211D01*
X143422737Y-74720184D01*
X143345806Y-74797116D01*
X143284483Y-74830601D01*
X143214791Y-74825617D01*
X143170444Y-74797116D01*
X143052262Y-74678934D01*
X142899523Y-74582961D01*
X142729254Y-74523381D01*
X142729249Y-74523380D01*
X142550004Y-74503185D01*
X142549996Y-74503185D01*
X142370750Y-74523380D01*
X142370745Y-74523381D01*
X142200476Y-74582961D01*
X142047737Y-74678934D01*
X141920184Y-74806487D01*
X141824211Y-74959226D01*
X141764631Y-75129495D01*
X141764630Y-75129500D01*
X141744435Y-75308746D01*
X137508797Y-75308746D01*
X137510368Y-75304255D01*
X137513424Y-75277131D01*
X137530565Y-75125003D01*
X137530565Y-75124996D01*
X137510369Y-74945750D01*
X137510368Y-74945745D01*
X137476074Y-74847738D01*
X137450789Y-74775478D01*
X137354816Y-74622738D01*
X137227262Y-74495184D01*
X137074523Y-74399211D01*
X136904254Y-74339631D01*
X136904249Y-74339630D01*
X136725004Y-74319435D01*
X136724996Y-74319435D01*
X136545750Y-74339630D01*
X136545745Y-74339631D01*
X136375476Y-74399211D01*
X136222737Y-74495184D01*
X136095184Y-74622737D01*
X135999211Y-74775476D01*
X135939631Y-74945745D01*
X135939630Y-74945750D01*
X135919435Y-75124996D01*
X134930565Y-75124996D01*
X134910369Y-74945750D01*
X134910368Y-74945745D01*
X134876074Y-74847738D01*
X134850789Y-74775478D01*
X134754816Y-74622738D01*
X134627262Y-74495184D01*
X134474523Y-74399211D01*
X134304254Y-74339631D01*
X134304249Y-74339630D01*
X134125004Y-74319435D01*
X134124996Y-74319435D01*
X133945750Y-74339630D01*
X133945745Y-74339631D01*
X133775476Y-74399211D01*
X133622737Y-74495184D01*
X133495184Y-74622737D01*
X133399211Y-74775476D01*
X133339631Y-74945745D01*
X133339630Y-74945750D01*
X133319435Y-75124996D01*
X129813665Y-75124996D01*
X129830565Y-74975003D01*
X129830565Y-74974996D01*
X129810369Y-74795750D01*
X129810368Y-74795745D01*
X129750788Y-74625476D01*
X129687955Y-74525478D01*
X129654816Y-74472738D01*
X129527262Y-74345184D01*
X129518426Y-74339632D01*
X129374523Y-74249211D01*
X129204254Y-74189631D01*
X129204249Y-74189630D01*
X129025004Y-74169435D01*
X129024996Y-74169435D01*
X128845750Y-74189630D01*
X128845745Y-74189631D01*
X128675476Y-74249211D01*
X128522737Y-74345184D01*
X128395184Y-74472737D01*
X128299211Y-74625476D01*
X128239631Y-74795745D01*
X128239630Y-74795750D01*
X128219435Y-74974996D01*
X121500500Y-74974996D01*
X121500500Y-67874999D01*
X121804357Y-67874999D01*
X121804357Y-67875000D01*
X121824884Y-68096535D01*
X121824885Y-68096537D01*
X121885769Y-68310523D01*
X121885775Y-68310538D01*
X121984938Y-68509683D01*
X121984943Y-68509691D01*
X122119020Y-68687238D01*
X122283437Y-68837123D01*
X122283439Y-68837125D01*
X122472595Y-68954245D01*
X122472596Y-68954245D01*
X122472599Y-68954247D01*
X122666524Y-69029374D01*
X122721924Y-69071946D01*
X122745515Y-69137713D01*
X122729804Y-69205793D01*
X122679780Y-69254572D01*
X122666533Y-69260622D01*
X122534400Y-69311811D01*
X122472601Y-69335752D01*
X122472595Y-69335754D01*
X122283439Y-69452874D01*
X122283437Y-69452876D01*
X122119020Y-69602761D01*
X121984943Y-69780308D01*
X121984938Y-69780316D01*
X121885775Y-69979461D01*
X121885769Y-69979476D01*
X121824885Y-70193462D01*
X121824884Y-70193464D01*
X121804357Y-70414999D01*
X121804357Y-70415000D01*
X121824884Y-70636535D01*
X121824885Y-70636537D01*
X121885769Y-70850523D01*
X121885775Y-70850538D01*
X121984938Y-71049683D01*
X121984943Y-71049691D01*
X122119020Y-71227238D01*
X122283437Y-71377123D01*
X122283439Y-71377125D01*
X122334937Y-71409011D01*
X122381573Y-71461039D01*
X122392677Y-71530020D01*
X122374654Y-71580410D01*
X122299211Y-71700476D01*
X122239631Y-71870745D01*
X122239630Y-71870750D01*
X122219435Y-72049996D01*
X122219435Y-72050003D01*
X122239630Y-72229249D01*
X122239631Y-72229254D01*
X122299211Y-72399523D01*
X122392170Y-72547466D01*
X122395184Y-72552262D01*
X122522738Y-72679816D01*
X122675478Y-72775789D01*
X122686984Y-72779815D01*
X122845745Y-72835368D01*
X122845750Y-72835369D01*
X123024996Y-72855565D01*
X123025000Y-72855565D01*
X123025004Y-72855565D01*
X123204249Y-72835369D01*
X123204252Y-72835368D01*
X123204255Y-72835368D01*
X123374522Y-72775789D01*
X123527262Y-72679816D01*
X123654816Y-72552262D01*
X123750789Y-72399522D01*
X123810368Y-72229255D01*
X123810759Y-72225788D01*
X123830565Y-72050003D01*
X123830565Y-72049996D01*
X123810369Y-71870750D01*
X123810368Y-71870745D01*
X123795696Y-71828814D01*
X123750789Y-71700478D01*
X123666941Y-71567035D01*
X123647942Y-71499801D01*
X123668310Y-71432965D01*
X123706659Y-71395638D01*
X123736562Y-71377124D01*
X123900981Y-71227236D01*
X124035058Y-71049689D01*
X124134229Y-70850528D01*
X124195115Y-70636536D01*
X124215643Y-70415000D01*
X124195115Y-70193464D01*
X124134229Y-69979472D01*
X124134224Y-69979461D01*
X124035061Y-69780316D01*
X124035056Y-69780308D01*
X123900979Y-69602761D01*
X123736562Y-69452876D01*
X123736560Y-69452874D01*
X123547404Y-69335754D01*
X123547395Y-69335750D01*
X123453956Y-69299552D01*
X123353475Y-69260625D01*
X123298075Y-69218054D01*
X123274484Y-69152288D01*
X123290195Y-69084207D01*
X123340219Y-69035428D01*
X123353466Y-69029377D01*
X123547401Y-68954247D01*
X123736562Y-68837124D01*
X123900981Y-68687236D01*
X124035058Y-68509689D01*
X124134229Y-68310528D01*
X124160734Y-68217371D01*
X124198013Y-68158278D01*
X124261323Y-68128721D01*
X124330562Y-68138083D01*
X124383749Y-68183393D01*
X124399266Y-68217372D01*
X124425769Y-68310523D01*
X124425775Y-68310538D01*
X124524938Y-68509683D01*
X124524943Y-68509691D01*
X124659020Y-68687238D01*
X124823437Y-68837123D01*
X124823439Y-68837125D01*
X125012595Y-68954245D01*
X125012596Y-68954245D01*
X125012599Y-68954247D01*
X125220060Y-69034618D01*
X125438757Y-69075500D01*
X125438759Y-69075500D01*
X125661241Y-69075500D01*
X125661243Y-69075500D01*
X125879940Y-69034618D01*
X126087401Y-68954247D01*
X126276562Y-68837124D01*
X126440981Y-68687236D01*
X126575058Y-68509689D01*
X126674229Y-68310528D01*
X126700734Y-68217371D01*
X126738013Y-68158278D01*
X126801323Y-68128721D01*
X126870562Y-68138083D01*
X126923749Y-68183393D01*
X126939266Y-68217372D01*
X126965769Y-68310523D01*
X126965775Y-68310538D01*
X127064938Y-68509683D01*
X127064943Y-68509691D01*
X127199020Y-68687238D01*
X127363437Y-68837123D01*
X127363439Y-68837125D01*
X127552595Y-68954245D01*
X127552596Y-68954245D01*
X127552599Y-68954247D01*
X127746524Y-69029374D01*
X127801924Y-69071946D01*
X127825515Y-69137713D01*
X127809804Y-69205793D01*
X127759780Y-69254572D01*
X127746533Y-69260622D01*
X127614400Y-69311811D01*
X127552601Y-69335752D01*
X127552595Y-69335754D01*
X127363439Y-69452874D01*
X127363437Y-69452876D01*
X127199020Y-69602761D01*
X127064943Y-69780308D01*
X127064938Y-69780316D01*
X126965775Y-69979461D01*
X126965769Y-69979476D01*
X126904885Y-70193462D01*
X126904884Y-70193464D01*
X126884357Y-70414999D01*
X126884357Y-70415000D01*
X126904884Y-70636535D01*
X126904885Y-70636537D01*
X126965769Y-70850523D01*
X126965775Y-70850538D01*
X127064938Y-71049683D01*
X127064943Y-71049691D01*
X127199020Y-71227238D01*
X127363437Y-71377123D01*
X127363439Y-71377125D01*
X127478834Y-71448574D01*
X127525470Y-71500602D01*
X127536574Y-71569583D01*
X127508621Y-71633618D01*
X127501242Y-71641678D01*
X127495186Y-71647734D01*
X127399211Y-71800476D01*
X127339631Y-71970745D01*
X127339630Y-71970750D01*
X127319435Y-72149996D01*
X127319435Y-72150003D01*
X127339630Y-72329249D01*
X127339631Y-72329254D01*
X127399211Y-72499523D01*
X127433598Y-72554249D01*
X127495184Y-72652262D01*
X127622738Y-72779816D01*
X127775478Y-72875789D01*
X127860573Y-72905565D01*
X127945745Y-72935368D01*
X127945750Y-72935369D01*
X128124996Y-72955565D01*
X128125000Y-72955565D01*
X128125004Y-72955565D01*
X128304249Y-72935369D01*
X128304252Y-72935368D01*
X128304255Y-72935368D01*
X128474522Y-72875789D01*
X128627262Y-72779816D01*
X128754816Y-72652262D01*
X128850789Y-72499522D01*
X128910368Y-72329255D01*
X128910759Y-72325788D01*
X128930565Y-72150003D01*
X128930565Y-72149996D01*
X128910369Y-71970750D01*
X128910368Y-71970745D01*
X128880723Y-71886024D01*
X128850789Y-71800478D01*
X128842634Y-71787500D01*
X128787954Y-71700477D01*
X128754816Y-71647738D01*
X128740696Y-71633618D01*
X128721992Y-71614913D01*
X128688507Y-71553589D01*
X128693493Y-71483898D01*
X128735365Y-71427965D01*
X128744384Y-71421814D01*
X128816562Y-71377124D01*
X128917910Y-71284733D01*
X128980979Y-71227238D01*
X129003257Y-71197738D01*
X129115058Y-71049689D01*
X129214229Y-70850528D01*
X129240734Y-70757371D01*
X129278013Y-70698278D01*
X129341323Y-70668721D01*
X129410562Y-70678083D01*
X129463749Y-70723393D01*
X129479266Y-70757372D01*
X129505769Y-70850523D01*
X129505775Y-70850538D01*
X129604938Y-71049683D01*
X129604943Y-71049691D01*
X129739020Y-71227238D01*
X129905477Y-71378983D01*
X129941759Y-71438694D01*
X129939998Y-71508542D01*
X129909621Y-71558300D01*
X129870184Y-71597737D01*
X129774211Y-71750476D01*
X129714631Y-71920745D01*
X129714630Y-71920750D01*
X129694435Y-72099996D01*
X129694435Y-72100003D01*
X129714630Y-72279249D01*
X129714631Y-72279254D01*
X129774211Y-72449523D01*
X129851715Y-72572869D01*
X129870184Y-72602262D01*
X129997738Y-72729816D01*
X130150478Y-72825789D01*
X130235573Y-72855565D01*
X130320745Y-72885368D01*
X130320750Y-72885369D01*
X130499996Y-72905565D01*
X130500000Y-72905565D01*
X130500004Y-72905565D01*
X130679249Y-72885369D01*
X130679252Y-72885368D01*
X130679255Y-72885368D01*
X130849522Y-72825789D01*
X131002262Y-72729816D01*
X131129816Y-72602262D01*
X131225789Y-72449522D01*
X131285368Y-72279255D01*
X131285369Y-72279249D01*
X131305565Y-72100003D01*
X131305565Y-72099996D01*
X131285369Y-71920750D01*
X131285368Y-71920745D01*
X131243284Y-71800476D01*
X131238742Y-71787496D01*
X133081935Y-71787496D01*
X133081935Y-71787503D01*
X133102130Y-71966749D01*
X133102131Y-71966754D01*
X133161711Y-72137023D01*
X133254923Y-72285368D01*
X133257684Y-72289762D01*
X133385238Y-72417316D01*
X133436494Y-72449522D01*
X133516069Y-72499523D01*
X133537978Y-72513289D01*
X133655052Y-72554255D01*
X133708245Y-72572868D01*
X133708250Y-72572869D01*
X133887496Y-72593065D01*
X133887500Y-72593065D01*
X133887504Y-72593065D01*
X134066749Y-72572869D01*
X134066752Y-72572868D01*
X134066755Y-72572868D01*
X134237022Y-72513289D01*
X134389762Y-72417316D01*
X134432082Y-72374996D01*
X139519435Y-72374996D01*
X139519435Y-72375003D01*
X139539630Y-72554249D01*
X139539631Y-72554254D01*
X139599211Y-72724523D01*
X139662841Y-72825789D01*
X139695184Y-72877262D01*
X139822738Y-73004816D01*
X139975478Y-73100789D01*
X140145745Y-73160368D01*
X140145750Y-73160369D01*
X140324996Y-73180565D01*
X140325000Y-73180565D01*
X140325004Y-73180565D01*
X140504249Y-73160369D01*
X140504252Y-73160368D01*
X140504255Y-73160368D01*
X140674522Y-73100789D01*
X140827262Y-73004816D01*
X140954816Y-72877262D01*
X141050789Y-72724522D01*
X141110368Y-72554255D01*
X141110691Y-72551384D01*
X141111418Y-72549653D01*
X141111918Y-72547466D01*
X141112300Y-72547553D01*
X141137752Y-72486972D01*
X141195343Y-72447412D01*
X141220030Y-72442041D01*
X141279252Y-72435369D01*
X141306633Y-72425788D01*
X141449522Y-72375789D01*
X141602262Y-72279816D01*
X141729816Y-72152262D01*
X141825789Y-71999522D01*
X141885368Y-71829255D01*
X141885418Y-71828811D01*
X141905565Y-71650003D01*
X141905565Y-71649996D01*
X141899931Y-71599996D01*
X144719435Y-71599996D01*
X144719435Y-71600003D01*
X144739630Y-71779249D01*
X144739631Y-71779254D01*
X144799211Y-71949523D01*
X144862347Y-72050003D01*
X144895184Y-72102262D01*
X145022738Y-72229816D01*
X145175478Y-72325789D01*
X145186984Y-72329815D01*
X145345745Y-72385368D01*
X145345750Y-72385369D01*
X145524996Y-72405565D01*
X145525000Y-72405565D01*
X145525004Y-72405565D01*
X145704249Y-72385369D01*
X145704252Y-72385368D01*
X145704255Y-72385368D01*
X145874522Y-72325789D01*
X146027262Y-72229816D01*
X146154816Y-72102262D01*
X146250789Y-71949522D01*
X146310368Y-71779255D01*
X146310369Y-71779249D01*
X146319299Y-71699996D01*
X150869435Y-71699996D01*
X150869435Y-71700003D01*
X150889630Y-71879249D01*
X150889631Y-71879254D01*
X150949211Y-72049523D01*
X151012347Y-72150003D01*
X151045184Y-72202262D01*
X151172738Y-72329816D01*
X151244648Y-72375000D01*
X151311991Y-72417315D01*
X151325478Y-72425789D01*
X151393306Y-72449523D01*
X151495745Y-72485368D01*
X151495750Y-72485369D01*
X151674996Y-72505565D01*
X151675000Y-72505565D01*
X151675004Y-72505565D01*
X151854249Y-72485369D01*
X151854252Y-72485368D01*
X151854255Y-72485368D01*
X152024522Y-72425789D01*
X152177262Y-72329816D01*
X152304816Y-72202262D01*
X152400789Y-72049522D01*
X152460368Y-71879255D01*
X152460369Y-71879249D01*
X152480565Y-71700003D01*
X152480565Y-71699996D01*
X152460369Y-71520750D01*
X152460368Y-71520745D01*
X152431657Y-71438694D01*
X152400789Y-71350478D01*
X152382106Y-71320745D01*
X152337955Y-71250478D01*
X152337652Y-71249996D01*
X153019435Y-71249996D01*
X153019435Y-71250003D01*
X153039630Y-71429249D01*
X153039631Y-71429254D01*
X153099211Y-71599523D01*
X153162645Y-71700477D01*
X153195184Y-71752262D01*
X153322738Y-71879816D01*
X153332618Y-71886024D01*
X153467450Y-71970745D01*
X153475478Y-71975789D01*
X153617475Y-72025476D01*
X153645745Y-72035368D01*
X153645750Y-72035369D01*
X153824996Y-72055565D01*
X153825000Y-72055565D01*
X153825004Y-72055565D01*
X154004249Y-72035369D01*
X154004252Y-72035368D01*
X154004255Y-72035368D01*
X154174522Y-71975789D01*
X154327262Y-71879816D01*
X154454816Y-71752262D01*
X154550789Y-71599522D01*
X154585615Y-71499996D01*
X155344435Y-71499996D01*
X155344435Y-71500003D01*
X155364630Y-71679249D01*
X155364631Y-71679254D01*
X155424211Y-71849523D01*
X155500384Y-71970750D01*
X155520184Y-72002262D01*
X155647738Y-72129816D01*
X155800478Y-72225789D01*
X155954878Y-72279816D01*
X155970745Y-72285368D01*
X155970750Y-72285369D01*
X156149996Y-72305565D01*
X156150000Y-72305565D01*
X156150004Y-72305565D01*
X156329249Y-72285369D01*
X156329252Y-72285368D01*
X156329255Y-72285368D01*
X156499522Y-72225789D01*
X156652262Y-72129816D01*
X156779816Y-72002262D01*
X156875789Y-71849522D01*
X156935368Y-71679255D01*
X156938664Y-71650003D01*
X156955565Y-71500003D01*
X156955565Y-71499996D01*
X156935369Y-71320750D01*
X156935368Y-71320745D01*
X156922765Y-71284727D01*
X156875789Y-71150478D01*
X156874067Y-71147738D01*
X156836582Y-71088080D01*
X156779816Y-70997738D01*
X156652262Y-70870184D01*
X156643426Y-70864632D01*
X156499523Y-70774211D01*
X156329254Y-70714631D01*
X156329249Y-70714630D01*
X156150004Y-70694435D01*
X156149996Y-70694435D01*
X155970750Y-70714630D01*
X155970745Y-70714631D01*
X155800476Y-70774211D01*
X155647737Y-70870184D01*
X155520184Y-70997737D01*
X155424211Y-71150476D01*
X155364631Y-71320745D01*
X155364630Y-71320750D01*
X155344435Y-71499996D01*
X154585615Y-71499996D01*
X154610368Y-71429255D01*
X154610369Y-71429249D01*
X154630565Y-71250003D01*
X154630565Y-71249996D01*
X154610369Y-71070750D01*
X154610368Y-71070745D01*
X154586359Y-71002131D01*
X154550789Y-70900478D01*
X154528265Y-70864632D01*
X154454815Y-70747737D01*
X154327262Y-70620184D01*
X154174523Y-70524211D01*
X154004254Y-70464631D01*
X154004249Y-70464630D01*
X153825004Y-70444435D01*
X153824996Y-70444435D01*
X153645750Y-70464630D01*
X153645745Y-70464631D01*
X153475476Y-70524211D01*
X153322737Y-70620184D01*
X153195184Y-70747737D01*
X153099211Y-70900476D01*
X153039631Y-71070745D01*
X153039630Y-71070750D01*
X153019435Y-71249996D01*
X152337652Y-71249996D01*
X152304816Y-71197738D01*
X152177262Y-71070184D01*
X152144648Y-71049691D01*
X152024523Y-70974211D01*
X151854254Y-70914631D01*
X151854249Y-70914630D01*
X151675004Y-70894435D01*
X151674996Y-70894435D01*
X151495750Y-70914630D01*
X151495745Y-70914631D01*
X151325476Y-70974211D01*
X151172737Y-71070184D01*
X151045184Y-71197737D01*
X150949211Y-71350476D01*
X150889631Y-71520745D01*
X150889630Y-71520750D01*
X150869435Y-71699996D01*
X146319299Y-71699996D01*
X146330565Y-71600003D01*
X146330565Y-71599996D01*
X146310369Y-71420750D01*
X146310368Y-71420745D01*
X146295103Y-71377120D01*
X146250789Y-71250478D01*
X146154816Y-71097738D01*
X146027262Y-70970184D01*
X145874523Y-70874211D01*
X145704254Y-70814631D01*
X145704249Y-70814630D01*
X145525004Y-70794435D01*
X145524996Y-70794435D01*
X145345750Y-70814630D01*
X145345745Y-70814631D01*
X145175476Y-70874211D01*
X145022737Y-70970184D01*
X144895184Y-71097737D01*
X144799211Y-71250476D01*
X144739631Y-71420745D01*
X144739630Y-71420750D01*
X144719435Y-71599996D01*
X141899931Y-71599996D01*
X141885369Y-71470750D01*
X141885368Y-71470745D01*
X141863766Y-71409011D01*
X141825789Y-71300478D01*
X141816212Y-71285237D01*
X141736065Y-71157684D01*
X141729816Y-71147738D01*
X141602262Y-71020184D01*
X141449523Y-70924211D01*
X141279254Y-70864631D01*
X141279249Y-70864630D01*
X141100004Y-70844435D01*
X141099996Y-70844435D01*
X140920750Y-70864630D01*
X140920745Y-70864631D01*
X140750476Y-70924211D01*
X140597737Y-71020184D01*
X140470184Y-71147737D01*
X140374210Y-71300478D01*
X140314630Y-71470750D01*
X140314307Y-71473623D01*
X140313578Y-71475355D01*
X140313080Y-71477541D01*
X140312697Y-71477453D01*
X140287239Y-71538037D01*
X140229644Y-71577591D01*
X140204971Y-71582958D01*
X140145750Y-71589630D01*
X139975478Y-71649210D01*
X139822737Y-71745184D01*
X139695184Y-71872737D01*
X139599211Y-72025476D01*
X139539631Y-72195745D01*
X139539630Y-72195750D01*
X139519435Y-72374996D01*
X134432082Y-72374996D01*
X134517316Y-72289762D01*
X134613289Y-72137022D01*
X134672868Y-71966755D01*
X134674810Y-71949522D01*
X134693065Y-71787503D01*
X134693065Y-71787496D01*
X134672869Y-71608250D01*
X134672868Y-71608245D01*
X134645496Y-71530020D01*
X134613289Y-71437978D01*
X134607807Y-71429254D01*
X134558308Y-71350476D01*
X134517316Y-71285238D01*
X134389762Y-71157684D01*
X134373933Y-71147738D01*
X134237023Y-71061711D01*
X134066754Y-71002131D01*
X134066749Y-71002130D01*
X133887504Y-70981935D01*
X133887496Y-70981935D01*
X133708250Y-71002130D01*
X133708245Y-71002131D01*
X133537976Y-71061711D01*
X133385237Y-71157684D01*
X133257684Y-71285237D01*
X133161711Y-71437976D01*
X133102131Y-71608245D01*
X133102130Y-71608250D01*
X133081935Y-71787496D01*
X131238742Y-71787496D01*
X131225789Y-71750478D01*
X131216635Y-71735910D01*
X131159937Y-71645675D01*
X131140937Y-71578438D01*
X131161305Y-71511603D01*
X131199651Y-71474278D01*
X131356562Y-71377124D01*
X131520981Y-71227236D01*
X131655058Y-71049689D01*
X131729595Y-70900000D01*
X136244659Y-70900000D01*
X136263975Y-71096129D01*
X136263976Y-71096132D01*
X136310650Y-71249996D01*
X136321188Y-71284733D01*
X136414086Y-71458532D01*
X136414090Y-71458539D01*
X136539116Y-71610883D01*
X136691460Y-71735909D01*
X136691467Y-71735913D01*
X136865266Y-71828811D01*
X136865269Y-71828811D01*
X136865273Y-71828814D01*
X137053868Y-71886024D01*
X137250000Y-71905341D01*
X137446132Y-71886024D01*
X137634727Y-71828814D01*
X137712028Y-71787496D01*
X137727447Y-71779254D01*
X137808538Y-71735910D01*
X137960883Y-71610883D01*
X138085910Y-71458538D01*
X138178541Y-71285238D01*
X138178811Y-71284733D01*
X138178811Y-71284732D01*
X138178814Y-71284727D01*
X138236024Y-71096132D01*
X138255341Y-70900000D01*
X138236024Y-70703868D01*
X138178814Y-70515273D01*
X138178811Y-70515269D01*
X138178811Y-70515266D01*
X138085913Y-70341467D01*
X138085909Y-70341460D01*
X137960883Y-70189116D01*
X137808539Y-70064090D01*
X137808532Y-70064086D01*
X137634733Y-69971188D01*
X137634727Y-69971186D01*
X137446132Y-69913976D01*
X137446129Y-69913975D01*
X137250000Y-69894659D01*
X137053870Y-69913975D01*
X136865266Y-69971188D01*
X136691467Y-70064086D01*
X136691460Y-70064090D01*
X136539116Y-70189116D01*
X136414090Y-70341460D01*
X136414086Y-70341467D01*
X136321188Y-70515266D01*
X136263975Y-70703870D01*
X136244659Y-70900000D01*
X131729595Y-70900000D01*
X131754229Y-70850528D01*
X131815115Y-70636536D01*
X131835643Y-70415000D01*
X131815115Y-70193464D01*
X131754229Y-69979472D01*
X131754224Y-69979461D01*
X131655061Y-69780316D01*
X131655056Y-69780308D01*
X131520979Y-69602761D01*
X131356562Y-69452876D01*
X131356560Y-69452874D01*
X131167404Y-69335754D01*
X131167398Y-69335752D01*
X131167393Y-69335750D01*
X130959940Y-69255382D01*
X130741243Y-69214500D01*
X130518757Y-69214500D01*
X130300060Y-69255382D01*
X130260404Y-69270745D01*
X130092601Y-69335752D01*
X130092595Y-69335754D01*
X129903439Y-69452874D01*
X129903437Y-69452876D01*
X129739020Y-69602761D01*
X129604943Y-69780308D01*
X129604938Y-69780316D01*
X129505775Y-69979461D01*
X129505769Y-69979476D01*
X129479266Y-70072627D01*
X129441987Y-70131721D01*
X129378677Y-70161278D01*
X129309438Y-70151916D01*
X129256251Y-70106606D01*
X129240734Y-70072627D01*
X129214230Y-69979476D01*
X129214229Y-69979472D01*
X129214224Y-69979461D01*
X129115061Y-69780316D01*
X129115056Y-69780308D01*
X128980979Y-69602761D01*
X128816562Y-69452876D01*
X128816560Y-69452874D01*
X128627404Y-69335754D01*
X128627395Y-69335750D01*
X128533956Y-69299552D01*
X128433475Y-69260625D01*
X128378075Y-69218054D01*
X128354484Y-69152288D01*
X128370195Y-69084207D01*
X128420219Y-69035428D01*
X128433466Y-69029377D01*
X128627401Y-68954247D01*
X128816562Y-68837124D01*
X128980981Y-68687236D01*
X129115058Y-68509689D01*
X129178144Y-68382996D01*
X134369435Y-68382996D01*
X134369435Y-68383003D01*
X134389630Y-68562249D01*
X134389631Y-68562254D01*
X134449211Y-68732523D01*
X134514936Y-68837123D01*
X134545184Y-68885262D01*
X134672738Y-69012816D01*
X134825478Y-69108789D01*
X134908138Y-69137713D01*
X134995745Y-69168368D01*
X134995750Y-69168369D01*
X135174996Y-69188565D01*
X135175000Y-69188565D01*
X135175004Y-69188565D01*
X135354249Y-69168369D01*
X135354252Y-69168368D01*
X135354255Y-69168368D01*
X135524522Y-69108789D01*
X135677262Y-69012816D01*
X135804816Y-68885262D01*
X135900789Y-68732522D01*
X135959173Y-68565669D01*
X135999895Y-68508894D01*
X136064848Y-68483146D01*
X136133409Y-68496602D01*
X136183812Y-68544989D01*
X136194515Y-68573572D01*
X136195408Y-68573302D01*
X136197175Y-68579129D01*
X136197176Y-68579132D01*
X136243707Y-68732522D01*
X136254388Y-68767733D01*
X136347286Y-68941532D01*
X136347290Y-68941539D01*
X136472316Y-69093883D01*
X136624660Y-69218909D01*
X136624667Y-69218913D01*
X136798466Y-69311811D01*
X136798469Y-69311811D01*
X136798473Y-69311814D01*
X136987068Y-69369024D01*
X137183200Y-69388341D01*
X137379332Y-69369024D01*
X137567927Y-69311814D01*
X137741738Y-69218910D01*
X137894083Y-69093883D01*
X138019110Y-68941538D01*
X138074920Y-68837125D01*
X138112011Y-68767733D01*
X138112011Y-68767732D01*
X138112014Y-68767727D01*
X138169224Y-68579132D01*
X138188541Y-68383000D01*
X138169224Y-68186868D01*
X138112014Y-67998273D01*
X138112011Y-67998269D01*
X138112011Y-67998266D01*
X138019113Y-67824467D01*
X138019109Y-67824460D01*
X137894083Y-67672116D01*
X137741739Y-67547090D01*
X137741732Y-67547086D01*
X137567933Y-67454188D01*
X137567927Y-67454186D01*
X137379332Y-67396976D01*
X137379329Y-67396975D01*
X137183200Y-67377659D01*
X136987070Y-67396975D01*
X136798466Y-67454188D01*
X136624667Y-67547086D01*
X136624660Y-67547090D01*
X136472316Y-67672116D01*
X136347290Y-67824460D01*
X136347286Y-67824467D01*
X136254388Y-67998266D01*
X136254386Y-67998273D01*
X136197176Y-68186868D01*
X136197175Y-68186870D01*
X136195408Y-68192698D01*
X136193380Y-68192083D01*
X136165438Y-68245487D01*
X136104718Y-68280055D01*
X136034949Y-68276307D01*
X135978282Y-68235435D01*
X135959173Y-68200330D01*
X135954462Y-68186868D01*
X135900789Y-68033478D01*
X135804816Y-67880738D01*
X135677262Y-67753184D01*
X135606325Y-67708611D01*
X135524523Y-67657211D01*
X135354254Y-67597631D01*
X135354249Y-67597630D01*
X135175004Y-67577435D01*
X135174996Y-67577435D01*
X134995750Y-67597630D01*
X134995745Y-67597631D01*
X134825476Y-67657211D01*
X134672737Y-67753184D01*
X134545184Y-67880737D01*
X134449211Y-68033476D01*
X134389631Y-68203745D01*
X134389630Y-68203750D01*
X134369435Y-68382996D01*
X129178144Y-68382996D01*
X129214229Y-68310528D01*
X129275115Y-68096536D01*
X129295643Y-67875000D01*
X129290856Y-67823344D01*
X129275115Y-67653464D01*
X129275114Y-67653462D01*
X129263293Y-67611916D01*
X129214229Y-67439472D01*
X129214224Y-67439461D01*
X129115061Y-67240316D01*
X129115056Y-67240308D01*
X128980979Y-67062761D01*
X128816562Y-66912876D01*
X128816560Y-66912874D01*
X128627404Y-66795754D01*
X128627398Y-66795752D01*
X128603077Y-66786330D01*
X128419940Y-66715382D01*
X128201243Y-66674500D01*
X127978757Y-66674500D01*
X127760060Y-66715382D01*
X127641163Y-66761443D01*
X127552601Y-66795752D01*
X127552595Y-66795754D01*
X127363439Y-66912874D01*
X127363437Y-66912876D01*
X127199020Y-67062761D01*
X127064943Y-67240308D01*
X127064938Y-67240316D01*
X126965775Y-67439461D01*
X126965769Y-67439476D01*
X126939266Y-67532627D01*
X126901987Y-67591721D01*
X126838677Y-67621278D01*
X126769438Y-67611916D01*
X126716251Y-67566606D01*
X126700734Y-67532627D01*
X126674230Y-67439476D01*
X126674229Y-67439472D01*
X126674224Y-67439461D01*
X126575061Y-67240316D01*
X126575056Y-67240308D01*
X126440979Y-67062761D01*
X126276563Y-66912877D01*
X126276562Y-66912876D01*
X126267620Y-66907339D01*
X126220986Y-66855311D01*
X126209882Y-66786330D01*
X126227906Y-66735940D01*
X126250788Y-66699524D01*
X126250789Y-66699522D01*
X126310368Y-66529255D01*
X126310983Y-66523800D01*
X126330565Y-66350003D01*
X126330565Y-66349996D01*
X126310369Y-66170750D01*
X126310368Y-66170745D01*
X126297953Y-66135266D01*
X126250789Y-66000478D01*
X126154816Y-65847738D01*
X126032074Y-65724996D01*
X151369435Y-65724996D01*
X151369435Y-65725003D01*
X151389630Y-65904249D01*
X151389631Y-65904254D01*
X151449211Y-66074523D01*
X151525384Y-66195750D01*
X151545184Y-66227262D01*
X151672738Y-66354816D01*
X151825478Y-66450789D01*
X151995745Y-66510368D01*
X151995750Y-66510369D01*
X152114954Y-66523800D01*
X152179368Y-66550866D01*
X152218923Y-66608461D01*
X152224291Y-66660903D01*
X152214778Y-66745338D01*
X152214778Y-66745346D01*
X152234973Y-66924592D01*
X152234974Y-66924597D01*
X152294554Y-67094866D01*
X152376083Y-67224617D01*
X152390527Y-67247605D01*
X152518081Y-67375159D01*
X152620441Y-67439476D01*
X152670821Y-67471132D01*
X152745673Y-67497324D01*
X152802449Y-67538046D01*
X152827939Y-67600482D01*
X152839630Y-67704250D01*
X152839631Y-67704254D01*
X152899211Y-67874523D01*
X152976969Y-67998273D01*
X152995184Y-68027262D01*
X153122738Y-68154816D01*
X153173752Y-68186870D01*
X153272923Y-68249184D01*
X153275478Y-68250789D01*
X153370141Y-68283913D01*
X153445745Y-68310368D01*
X153445750Y-68310369D01*
X153624996Y-68330565D01*
X153625000Y-68330565D01*
X153625004Y-68330565D01*
X153804249Y-68310369D01*
X153804251Y-68310368D01*
X153804255Y-68310368D01*
X153804258Y-68310366D01*
X153804262Y-68310366D01*
X153968926Y-68252747D01*
X154038705Y-68249184D01*
X154099332Y-68283913D01*
X154131560Y-68345906D01*
X154125155Y-68415482D01*
X154114875Y-68435759D01*
X154074212Y-68500474D01*
X154014631Y-68670745D01*
X154014630Y-68670750D01*
X153994435Y-68849996D01*
X153994435Y-68850003D01*
X154014630Y-69029249D01*
X154014631Y-69029254D01*
X154074211Y-69199523D01*
X154144767Y-69311811D01*
X154170184Y-69352262D01*
X154297738Y-69479816D01*
X154450478Y-69575789D01*
X154603258Y-69629249D01*
X154620745Y-69635368D01*
X154620750Y-69635369D01*
X154799996Y-69655565D01*
X154800000Y-69655565D01*
X154800004Y-69655565D01*
X154979249Y-69635369D01*
X154979252Y-69635368D01*
X154979255Y-69635368D01*
X155149522Y-69575789D01*
X155302262Y-69479816D01*
X155332082Y-69449996D01*
X161327435Y-69449996D01*
X161327435Y-69450003D01*
X161347630Y-69629249D01*
X161347631Y-69629254D01*
X161407211Y-69799523D01*
X161479127Y-69913975D01*
X161503184Y-69952262D01*
X161630738Y-70079816D01*
X161783478Y-70175789D01*
X161953745Y-70235368D01*
X161953750Y-70235369D01*
X162132996Y-70255565D01*
X162133000Y-70255565D01*
X162133004Y-70255565D01*
X162312249Y-70235369D01*
X162312252Y-70235368D01*
X162312255Y-70235368D01*
X162482522Y-70175789D01*
X162635262Y-70079816D01*
X162762816Y-69952262D01*
X162858789Y-69799522D01*
X162918368Y-69629255D01*
X162924392Y-69575789D01*
X162938565Y-69450003D01*
X162938565Y-69449996D01*
X162918369Y-69270750D01*
X162918368Y-69270745D01*
X162858788Y-69100476D01*
X162766906Y-68954247D01*
X162762816Y-68947738D01*
X162635262Y-68820184D01*
X162551787Y-68767733D01*
X162482523Y-68724211D01*
X162312254Y-68664631D01*
X162312249Y-68664630D01*
X162133004Y-68644435D01*
X162132996Y-68644435D01*
X161953750Y-68664630D01*
X161953745Y-68664631D01*
X161783476Y-68724211D01*
X161630737Y-68820184D01*
X161503184Y-68947737D01*
X161407211Y-69100476D01*
X161347631Y-69270745D01*
X161347630Y-69270750D01*
X161327435Y-69449996D01*
X155332082Y-69449996D01*
X155429816Y-69352262D01*
X155525789Y-69199522D01*
X155585368Y-69029255D01*
X155585369Y-69029249D01*
X155605565Y-68850003D01*
X155605565Y-68849996D01*
X155585369Y-68670750D01*
X155585368Y-68670745D01*
X155551271Y-68573302D01*
X155525789Y-68500478D01*
X155525786Y-68500474D01*
X155451974Y-68383003D01*
X155429816Y-68347738D01*
X155302262Y-68220184D01*
X155297787Y-68217372D01*
X155149523Y-68124211D01*
X154979254Y-68064631D01*
X154979249Y-68064630D01*
X154800004Y-68044435D01*
X154799996Y-68044435D01*
X154620750Y-68064630D01*
X154620742Y-68064632D01*
X154456072Y-68122253D01*
X154386294Y-68125814D01*
X154325666Y-68091085D01*
X154293439Y-68029092D01*
X154299844Y-67959516D01*
X154310125Y-67939238D01*
X154350788Y-67874524D01*
X154368304Y-67824467D01*
X154410368Y-67704255D01*
X154416091Y-67653462D01*
X154430565Y-67525003D01*
X154430565Y-67524996D01*
X154410369Y-67345750D01*
X154410368Y-67345745D01*
X154350788Y-67175476D01*
X154279964Y-67062761D01*
X154254816Y-67022738D01*
X154127262Y-66895184D01*
X154075483Y-66862649D01*
X153974524Y-66799212D01*
X153974520Y-66799210D01*
X153899668Y-66773018D01*
X153842892Y-66732296D01*
X153817403Y-66669860D01*
X153805712Y-66566092D01*
X153805711Y-66566088D01*
X153746131Y-66395819D01*
X153650158Y-66243080D01*
X153542336Y-66135258D01*
X163132500Y-66135258D01*
X163132500Y-66364741D01*
X163153214Y-66522072D01*
X163162452Y-66592238D01*
X163203475Y-66745338D01*
X163221842Y-66813887D01*
X163309650Y-67025876D01*
X163309657Y-67025890D01*
X163424392Y-67224617D01*
X163564081Y-67406661D01*
X163564089Y-67406670D01*
X163726330Y-67568911D01*
X163726338Y-67568918D01*
X163908382Y-67708607D01*
X163908385Y-67708608D01*
X163908388Y-67708611D01*
X164107112Y-67823344D01*
X164107117Y-67823346D01*
X164107123Y-67823349D01*
X164198480Y-67861190D01*
X164319113Y-67911158D01*
X164540762Y-67970548D01*
X164768266Y-68000500D01*
X164768273Y-68000500D01*
X164997727Y-68000500D01*
X164997734Y-68000500D01*
X165225238Y-67970548D01*
X165446887Y-67911158D01*
X165658888Y-67823344D01*
X165857612Y-67708611D01*
X166039661Y-67568919D01*
X166039665Y-67568914D01*
X166039670Y-67568911D01*
X166201911Y-67406670D01*
X166201914Y-67406665D01*
X166201919Y-67406661D01*
X166341611Y-67224612D01*
X166456344Y-67025888D01*
X166544158Y-66813887D01*
X166603548Y-66592238D01*
X166633500Y-66364734D01*
X166633500Y-66135266D01*
X166603548Y-65907762D01*
X166544158Y-65686113D01*
X166486018Y-65545750D01*
X166456349Y-65474123D01*
X166456346Y-65474117D01*
X166456344Y-65474112D01*
X166341611Y-65275388D01*
X166341608Y-65275385D01*
X166341607Y-65275382D01*
X166201918Y-65093338D01*
X166201911Y-65093330D01*
X166039670Y-64931089D01*
X166039661Y-64931081D01*
X165857617Y-64791392D01*
X165658890Y-64676657D01*
X165658876Y-64676650D01*
X165446887Y-64588842D01*
X165225238Y-64529452D01*
X165187215Y-64524446D01*
X164997741Y-64499500D01*
X164997734Y-64499500D01*
X164768266Y-64499500D01*
X164768258Y-64499500D01*
X164551715Y-64528009D01*
X164540762Y-64529452D01*
X164447076Y-64554554D01*
X164319112Y-64588842D01*
X164107123Y-64676650D01*
X164107109Y-64676657D01*
X163908382Y-64791392D01*
X163726338Y-64931081D01*
X163564081Y-65093338D01*
X163424392Y-65275382D01*
X163309657Y-65474109D01*
X163309650Y-65474123D01*
X163221842Y-65686112D01*
X163206014Y-65745184D01*
X163178536Y-65847737D01*
X163162453Y-65907759D01*
X163162451Y-65907770D01*
X163132500Y-66135258D01*
X153542336Y-66135258D01*
X153522605Y-66115527D01*
X153369866Y-66019554D01*
X153199597Y-65959974D01*
X153199593Y-65959973D01*
X153080387Y-65946542D01*
X153015973Y-65919475D01*
X152976418Y-65861880D01*
X152971051Y-65809438D01*
X152980565Y-65725002D01*
X152980565Y-65724996D01*
X152960369Y-65545750D01*
X152960368Y-65545745D01*
X152935306Y-65474123D01*
X152900789Y-65375478D01*
X152886201Y-65352262D01*
X152837894Y-65275382D01*
X152804816Y-65222738D01*
X152677262Y-65095184D01*
X152652804Y-65079816D01*
X152524523Y-64999211D01*
X152354254Y-64939631D01*
X152354249Y-64939630D01*
X152175004Y-64919435D01*
X152174996Y-64919435D01*
X151995750Y-64939630D01*
X151995745Y-64939631D01*
X151825476Y-64999211D01*
X151672737Y-65095184D01*
X151545184Y-65222737D01*
X151449211Y-65375476D01*
X151389631Y-65545745D01*
X151389630Y-65545750D01*
X151369435Y-65724996D01*
X126032074Y-65724996D01*
X126027262Y-65720184D01*
X125874523Y-65624211D01*
X125704254Y-65564631D01*
X125704249Y-65564630D01*
X125525004Y-65544435D01*
X125524996Y-65544435D01*
X125345750Y-65564630D01*
X125345745Y-65564631D01*
X125175476Y-65624211D01*
X125022737Y-65720184D01*
X124895184Y-65847737D01*
X124799211Y-66000476D01*
X124739631Y-66170745D01*
X124739630Y-66170750D01*
X124719435Y-66349996D01*
X124719435Y-66350003D01*
X124739630Y-66529249D01*
X124739631Y-66529254D01*
X124799211Y-66699523D01*
X124838118Y-66761443D01*
X124857118Y-66828680D01*
X124836750Y-66895515D01*
X124816663Y-66919052D01*
X124659018Y-67062764D01*
X124524943Y-67240308D01*
X124524938Y-67240316D01*
X124425775Y-67439461D01*
X124425769Y-67439476D01*
X124399266Y-67532627D01*
X124361987Y-67591721D01*
X124298677Y-67621278D01*
X124229438Y-67611916D01*
X124176251Y-67566606D01*
X124160734Y-67532627D01*
X124134230Y-67439476D01*
X124134229Y-67439472D01*
X124134224Y-67439461D01*
X124035061Y-67240316D01*
X124035056Y-67240308D01*
X123900979Y-67062761D01*
X123746966Y-66922360D01*
X123710684Y-66862649D01*
X123712445Y-66792801D01*
X123725508Y-66764754D01*
X123750789Y-66724522D01*
X123810368Y-66554255D01*
X123810750Y-66550866D01*
X123830565Y-66375003D01*
X123830565Y-66374996D01*
X123810369Y-66195750D01*
X123810368Y-66195745D01*
X123801620Y-66170745D01*
X123750789Y-66025478D01*
X123735080Y-66000478D01*
X123674619Y-65904254D01*
X123654816Y-65872738D01*
X123527262Y-65745184D01*
X123495143Y-65725002D01*
X123374523Y-65649211D01*
X123204254Y-65589631D01*
X123204249Y-65589630D01*
X123025004Y-65569435D01*
X123024996Y-65569435D01*
X122845750Y-65589630D01*
X122845745Y-65589631D01*
X122675476Y-65649211D01*
X122522737Y-65745184D01*
X122395184Y-65872737D01*
X122299211Y-66025476D01*
X122239631Y-66195745D01*
X122239630Y-66195750D01*
X122219435Y-66374996D01*
X122219435Y-66375003D01*
X122239630Y-66554249D01*
X122239633Y-66554262D01*
X122299209Y-66724519D01*
X122313859Y-66747835D01*
X122332858Y-66815072D01*
X122312489Y-66881907D01*
X122287392Y-66908705D01*
X122287674Y-66909014D01*
X122283778Y-66912565D01*
X122283612Y-66912743D01*
X122283445Y-66912868D01*
X122119020Y-67062761D01*
X121984943Y-67240308D01*
X121984938Y-67240316D01*
X121885775Y-67439461D01*
X121885769Y-67439476D01*
X121824885Y-67653462D01*
X121824884Y-67653464D01*
X121804357Y-67874999D01*
X121500500Y-67874999D01*
X121500500Y-64849996D01*
X145944435Y-64849996D01*
X145944435Y-64850003D01*
X145964630Y-65029249D01*
X145964631Y-65029254D01*
X146024211Y-65199523D01*
X146120184Y-65352262D01*
X146247738Y-65479816D01*
X146338080Y-65536582D01*
X146390365Y-65569435D01*
X146400478Y-65575789D01*
X146538860Y-65624211D01*
X146570745Y-65635368D01*
X146570750Y-65635369D01*
X146749996Y-65655565D01*
X146750000Y-65655565D01*
X146750004Y-65655565D01*
X146929249Y-65635369D01*
X146929252Y-65635368D01*
X146929255Y-65635368D01*
X147099522Y-65575789D01*
X147252262Y-65479816D01*
X147379816Y-65352262D01*
X147475789Y-65199522D01*
X147535368Y-65029255D01*
X147545466Y-64939631D01*
X147555565Y-64850003D01*
X147555565Y-64849996D01*
X147535369Y-64670750D01*
X147535368Y-64670745D01*
X147475788Y-64500476D01*
X147444069Y-64449996D01*
X157369435Y-64449996D01*
X157369435Y-64450003D01*
X157389630Y-64629249D01*
X157389631Y-64629254D01*
X157449211Y-64799523D01*
X157480926Y-64849996D01*
X157545184Y-64952262D01*
X157672738Y-65079816D01*
X157825478Y-65175789D01*
X157893306Y-65199523D01*
X157995745Y-65235368D01*
X157995750Y-65235369D01*
X158174996Y-65255565D01*
X158175000Y-65255565D01*
X158175004Y-65255565D01*
X158354249Y-65235369D01*
X158354252Y-65235368D01*
X158354255Y-65235368D01*
X158524522Y-65175789D01*
X158677262Y-65079816D01*
X158804816Y-64952262D01*
X158900789Y-64799522D01*
X158960368Y-64629255D01*
X158960369Y-64629249D01*
X158980565Y-64450003D01*
X158980565Y-64449996D01*
X158960369Y-64270750D01*
X158960368Y-64270745D01*
X158942676Y-64220184D01*
X158900789Y-64100478D01*
X158891295Y-64085369D01*
X158840681Y-64004817D01*
X158804816Y-63947738D01*
X158677262Y-63820184D01*
X158649594Y-63802799D01*
X158524523Y-63724211D01*
X158354254Y-63664631D01*
X158354249Y-63664630D01*
X158175004Y-63644435D01*
X158174996Y-63644435D01*
X157995750Y-63664630D01*
X157995745Y-63664631D01*
X157825476Y-63724211D01*
X157672737Y-63820184D01*
X157545184Y-63947737D01*
X157449211Y-64100476D01*
X157389631Y-64270745D01*
X157389630Y-64270750D01*
X157369435Y-64449996D01*
X147444069Y-64449996D01*
X147379815Y-64347737D01*
X147252262Y-64220184D01*
X147099523Y-64124211D01*
X146929254Y-64064631D01*
X146929249Y-64064630D01*
X146750004Y-64044435D01*
X146749996Y-64044435D01*
X146570750Y-64064630D01*
X146570745Y-64064631D01*
X146400476Y-64124211D01*
X146247737Y-64220184D01*
X146120184Y-64347737D01*
X146024211Y-64500476D01*
X145964631Y-64670745D01*
X145964630Y-64670750D01*
X145944435Y-64849996D01*
X121500500Y-64849996D01*
X121500500Y-63299996D01*
X125844435Y-63299996D01*
X125844435Y-63300003D01*
X125864630Y-63479249D01*
X125864631Y-63479254D01*
X125924211Y-63649523D01*
X126004492Y-63777288D01*
X126020184Y-63802262D01*
X126147738Y-63929816D01*
X126300478Y-64025789D01*
X126411479Y-64064630D01*
X126470745Y-64085368D01*
X126470750Y-64085369D01*
X126649996Y-64105565D01*
X126650000Y-64105565D01*
X126650004Y-64105565D01*
X126829249Y-64085369D01*
X126829252Y-64085368D01*
X126829255Y-64085368D01*
X126999522Y-64025789D01*
X127152262Y-63929816D01*
X127279816Y-63802262D01*
X127375789Y-63649522D01*
X127435368Y-63479255D01*
X127444183Y-63401022D01*
X127455565Y-63300003D01*
X127455565Y-63299996D01*
X127435369Y-63120750D01*
X127435368Y-63120745D01*
X127411137Y-63051496D01*
X130845935Y-63051496D01*
X130845935Y-63051503D01*
X130866130Y-63230749D01*
X130866131Y-63230754D01*
X130925711Y-63401023D01*
X131006285Y-63529255D01*
X131021684Y-63553762D01*
X131149238Y-63681316D01*
X131301978Y-63777289D01*
X131424565Y-63820184D01*
X131472245Y-63836868D01*
X131472250Y-63836869D01*
X131651496Y-63857065D01*
X131651500Y-63857065D01*
X131651504Y-63857065D01*
X131830749Y-63836869D01*
X131830752Y-63836868D01*
X131830755Y-63836868D01*
X132001022Y-63777289D01*
X132153762Y-63681316D01*
X132281316Y-63553762D01*
X132377289Y-63401022D01*
X132436868Y-63230755D01*
X132436869Y-63230749D01*
X132457065Y-63051503D01*
X132457065Y-63051496D01*
X132439995Y-62899996D01*
X133294435Y-62899996D01*
X133294435Y-62900003D01*
X133314630Y-63079249D01*
X133314631Y-63079254D01*
X133374211Y-63249523D01*
X133437347Y-63350003D01*
X133470184Y-63402262D01*
X133597738Y-63529816D01*
X133688080Y-63586582D01*
X133746766Y-63623457D01*
X133750478Y-63625789D01*
X133818306Y-63649523D01*
X133920745Y-63685368D01*
X133920750Y-63685369D01*
X134099996Y-63705565D01*
X134100000Y-63705565D01*
X134100004Y-63705565D01*
X134279249Y-63685369D01*
X134279252Y-63685368D01*
X134279255Y-63685368D01*
X134449522Y-63625789D01*
X134453233Y-63623456D01*
X134520469Y-63604453D01*
X134587305Y-63624817D01*
X134632522Y-63678082D01*
X134636252Y-63687491D01*
X134649209Y-63724520D01*
X134719803Y-63836868D01*
X134745184Y-63877262D01*
X134872738Y-64004816D01*
X134935791Y-64044435D01*
X135024979Y-64100476D01*
X135025478Y-64100789D01*
X135124299Y-64135368D01*
X135195745Y-64160368D01*
X135195750Y-64160369D01*
X135374996Y-64180565D01*
X135375000Y-64180565D01*
X135375004Y-64180565D01*
X135554249Y-64160369D01*
X135554252Y-64160368D01*
X135554255Y-64160368D01*
X135724522Y-64100789D01*
X135877262Y-64004816D01*
X135968571Y-63913506D01*
X136029890Y-63880024D01*
X136099582Y-63885008D01*
X136143930Y-63913509D01*
X136210237Y-63979816D01*
X136283401Y-64025788D01*
X136345220Y-64064632D01*
X136362977Y-64075789D01*
X136434423Y-64100789D01*
X136533244Y-64135368D01*
X136533249Y-64135369D01*
X136712495Y-64155565D01*
X136712499Y-64155565D01*
X136712503Y-64155565D01*
X136891748Y-64135369D01*
X136891751Y-64135368D01*
X136891754Y-64135368D01*
X137062021Y-64075789D01*
X137214761Y-63979816D01*
X137342315Y-63852262D01*
X137438288Y-63699522D01*
X137497867Y-63529255D01*
X137503501Y-63479254D01*
X137518064Y-63350003D01*
X137518064Y-63349996D01*
X137501163Y-63199996D01*
X138469435Y-63199996D01*
X138469435Y-63200003D01*
X138489630Y-63379249D01*
X138489631Y-63379254D01*
X138549211Y-63549523D01*
X138608849Y-63644435D01*
X138645184Y-63702262D01*
X138772738Y-63829816D01*
X138860575Y-63885008D01*
X138905934Y-63913509D01*
X138925478Y-63925789D01*
X139079878Y-63979816D01*
X139095745Y-63985368D01*
X139095750Y-63985369D01*
X139274996Y-64005565D01*
X139275000Y-64005565D01*
X139275004Y-64005565D01*
X139454249Y-63985369D01*
X139454252Y-63985368D01*
X139454255Y-63985368D01*
X139624522Y-63925789D01*
X139777262Y-63829816D01*
X139904816Y-63702262D01*
X140000789Y-63549522D01*
X140060368Y-63379255D01*
X140063664Y-63350003D01*
X140080565Y-63200003D01*
X140080565Y-63199996D01*
X140060369Y-63020750D01*
X140060368Y-63020745D01*
X140038983Y-62959631D01*
X140000789Y-62850478D01*
X139999067Y-62847738D01*
X139934628Y-62745184D01*
X139904816Y-62697738D01*
X139777262Y-62570184D01*
X139768426Y-62564632D01*
X139625772Y-62474996D01*
X155994435Y-62474996D01*
X155994435Y-62475003D01*
X156014630Y-62654249D01*
X156014631Y-62654254D01*
X156074211Y-62824523D01*
X156121637Y-62900000D01*
X156170184Y-62977262D01*
X156297738Y-63104816D01*
X156450478Y-63200789D01*
X156536099Y-63230749D01*
X156620745Y-63260368D01*
X156620750Y-63260369D01*
X156799996Y-63280565D01*
X156800000Y-63280565D01*
X156800004Y-63280565D01*
X156979249Y-63260369D01*
X156979252Y-63260368D01*
X156979255Y-63260368D01*
X157149522Y-63200789D01*
X157302262Y-63104816D01*
X157429816Y-62977262D01*
X157447602Y-62948955D01*
X157499931Y-62902667D01*
X157568984Y-62892016D01*
X157593549Y-62897887D01*
X157770002Y-62959631D01*
X157770008Y-62959632D01*
X157770010Y-62959633D01*
X157770011Y-62959633D01*
X157770015Y-62959634D01*
X157949261Y-62979830D01*
X157949265Y-62979830D01*
X157949269Y-62979830D01*
X158128514Y-62959634D01*
X158128517Y-62959633D01*
X158128520Y-62959633D01*
X158298787Y-62900054D01*
X158451527Y-62804081D01*
X158579081Y-62676527D01*
X158675054Y-62523787D01*
X158734633Y-62353520D01*
X158734634Y-62353514D01*
X158754830Y-62174268D01*
X158754830Y-62174261D01*
X158734634Y-61995015D01*
X158734633Y-61995010D01*
X158726839Y-61972737D01*
X158675054Y-61824743D01*
X158579081Y-61672003D01*
X158451527Y-61544449D01*
X158397289Y-61510369D01*
X158298788Y-61448476D01*
X158128519Y-61388896D01*
X158128514Y-61388895D01*
X157949269Y-61368700D01*
X157949261Y-61368700D01*
X157770015Y-61388895D01*
X157770010Y-61388896D01*
X157599741Y-61448476D01*
X157447002Y-61544449D01*
X157319447Y-61672004D01*
X157319443Y-61672009D01*
X157301661Y-61700309D01*
X157249326Y-61746599D01*
X157180272Y-61757246D01*
X157155715Y-61751377D01*
X156979257Y-61689632D01*
X156979249Y-61689630D01*
X156800004Y-61669435D01*
X156799996Y-61669435D01*
X156620750Y-61689630D01*
X156620745Y-61689631D01*
X156450476Y-61749211D01*
X156297737Y-61845184D01*
X156170184Y-61972737D01*
X156074211Y-62125476D01*
X156014631Y-62295745D01*
X156014630Y-62295750D01*
X155994435Y-62474996D01*
X139625772Y-62474996D01*
X139624523Y-62474211D01*
X139454254Y-62414631D01*
X139454249Y-62414630D01*
X139275004Y-62394435D01*
X139274996Y-62394435D01*
X139095750Y-62414630D01*
X139095745Y-62414631D01*
X138925476Y-62474211D01*
X138772737Y-62570184D01*
X138645184Y-62697737D01*
X138549211Y-62850476D01*
X138489631Y-63020745D01*
X138489630Y-63020750D01*
X138469435Y-63199996D01*
X137501163Y-63199996D01*
X137497868Y-63170750D01*
X137497867Y-63170745D01*
X137445381Y-63020750D01*
X137438288Y-63000478D01*
X137423700Y-62977262D01*
X137370137Y-62892016D01*
X137342315Y-62847738D01*
X137214761Y-62720184D01*
X137214759Y-62720183D01*
X137062022Y-62624211D01*
X136891753Y-62564631D01*
X136891748Y-62564630D01*
X136712503Y-62544435D01*
X136712495Y-62544435D01*
X136533249Y-62564630D01*
X136533244Y-62564631D01*
X136362975Y-62624211D01*
X136210238Y-62720183D01*
X136118930Y-62811491D01*
X136057606Y-62844975D01*
X135987915Y-62839991D01*
X135943568Y-62811490D01*
X135877262Y-62745184D01*
X135724523Y-62649211D01*
X135554254Y-62589631D01*
X135554249Y-62589630D01*
X135375004Y-62569435D01*
X135374996Y-62569435D01*
X135195750Y-62589630D01*
X135195737Y-62589633D01*
X135025478Y-62649210D01*
X135021756Y-62651549D01*
X134954519Y-62670547D01*
X134887684Y-62650177D01*
X134842472Y-62596907D01*
X134838746Y-62587507D01*
X134825789Y-62550478D01*
X134821992Y-62544435D01*
X134729816Y-62397738D01*
X134602262Y-62270184D01*
X134563670Y-62245935D01*
X134449523Y-62174211D01*
X134279254Y-62114631D01*
X134279249Y-62114630D01*
X134100004Y-62094435D01*
X134099996Y-62094435D01*
X133920750Y-62114630D01*
X133920745Y-62114631D01*
X133750476Y-62174211D01*
X133597737Y-62270184D01*
X133470184Y-62397737D01*
X133374211Y-62550476D01*
X133314631Y-62720745D01*
X133314630Y-62720750D01*
X133294435Y-62899996D01*
X132439995Y-62899996D01*
X132436869Y-62872250D01*
X132436868Y-62872245D01*
X132410797Y-62797738D01*
X132377289Y-62701978D01*
X132357311Y-62670184D01*
X132306697Y-62589632D01*
X132281316Y-62549238D01*
X132153762Y-62421684D01*
X132045280Y-62353520D01*
X132001023Y-62325711D01*
X131830754Y-62266131D01*
X131830749Y-62266130D01*
X131651504Y-62245935D01*
X131651496Y-62245935D01*
X131472250Y-62266130D01*
X131472245Y-62266131D01*
X131301976Y-62325711D01*
X131149237Y-62421684D01*
X131021684Y-62549237D01*
X130925711Y-62701976D01*
X130866131Y-62872245D01*
X130866130Y-62872250D01*
X130845935Y-63051496D01*
X127411137Y-63051496D01*
X127393284Y-63000476D01*
X127375789Y-62950478D01*
X127344105Y-62900054D01*
X127312955Y-62850478D01*
X127279816Y-62797738D01*
X127152262Y-62670184D01*
X127118882Y-62649210D01*
X126999523Y-62574211D01*
X126829254Y-62514631D01*
X126829249Y-62514630D01*
X126650004Y-62494435D01*
X126649996Y-62494435D01*
X126470750Y-62514630D01*
X126470745Y-62514631D01*
X126300476Y-62574211D01*
X126147737Y-62670184D01*
X126020184Y-62797737D01*
X125924211Y-62950476D01*
X125864631Y-63120745D01*
X125864630Y-63120750D01*
X125844435Y-63299996D01*
X121500500Y-63299996D01*
X121500500Y-60724996D01*
X153619435Y-60724996D01*
X153619435Y-60725003D01*
X153639630Y-60904249D01*
X153639631Y-60904254D01*
X153699211Y-61074523D01*
X153795184Y-61227262D01*
X153922738Y-61354816D01*
X154075478Y-61450789D01*
X154245745Y-61510368D01*
X154245750Y-61510369D01*
X154424996Y-61530565D01*
X154425000Y-61530565D01*
X154425004Y-61530565D01*
X154604249Y-61510369D01*
X154604252Y-61510368D01*
X154604255Y-61510368D01*
X154774522Y-61450789D01*
X154927262Y-61354816D01*
X155054816Y-61227262D01*
X155150789Y-61074522D01*
X155210368Y-60904255D01*
X155230565Y-60725000D01*
X155210368Y-60545745D01*
X155150789Y-60375478D01*
X155054816Y-60222738D01*
X154927262Y-60095184D01*
X154774523Y-59999211D01*
X154604254Y-59939631D01*
X154604249Y-59939630D01*
X154425004Y-59919435D01*
X154424996Y-59919435D01*
X154245750Y-59939630D01*
X154245745Y-59939631D01*
X154075476Y-59999211D01*
X153922737Y-60095184D01*
X153795184Y-60222737D01*
X153699211Y-60375476D01*
X153639631Y-60545745D01*
X153639630Y-60545750D01*
X153619435Y-60724996D01*
X121500500Y-60724996D01*
X121500500Y-57987496D01*
X135044435Y-57987496D01*
X135044435Y-57987503D01*
X135064630Y-58166749D01*
X135064631Y-58166754D01*
X135124211Y-58337023D01*
X135201715Y-58460369D01*
X135220184Y-58489762D01*
X135347738Y-58617316D01*
X135500478Y-58713289D01*
X135670745Y-58772868D01*
X135670750Y-58772869D01*
X135849996Y-58793065D01*
X135850000Y-58793065D01*
X135850004Y-58793065D01*
X136029249Y-58772869D01*
X136029252Y-58772868D01*
X136029255Y-58772868D01*
X136199522Y-58713289D01*
X136352262Y-58617316D01*
X136479816Y-58489762D01*
X136575789Y-58337022D01*
X136635368Y-58166755D01*
X136635369Y-58166749D01*
X136655565Y-57987503D01*
X136655565Y-57987496D01*
X136635369Y-57808250D01*
X136635368Y-57808245D01*
X136589535Y-57677262D01*
X136575789Y-57637978D01*
X136575486Y-57637496D01*
X151069435Y-57637496D01*
X151069435Y-57637503D01*
X151089630Y-57816749D01*
X151089631Y-57816754D01*
X151149211Y-57987023D01*
X151172774Y-58024523D01*
X151245184Y-58139762D01*
X151372738Y-58267316D01*
X151525478Y-58363289D01*
X151632644Y-58400788D01*
X151695745Y-58422868D01*
X151695750Y-58422869D01*
X151874996Y-58443065D01*
X151875000Y-58443065D01*
X151875004Y-58443065D01*
X152054249Y-58422869D01*
X152054252Y-58422868D01*
X152054255Y-58422868D01*
X152224522Y-58363289D01*
X152377262Y-58267316D01*
X152504816Y-58139762D01*
X152600789Y-57987022D01*
X152660368Y-57816755D01*
X152660369Y-57816749D01*
X152676341Y-57674996D01*
X165644435Y-57674996D01*
X165644435Y-57675003D01*
X165664630Y-57854249D01*
X165664631Y-57854254D01*
X165724211Y-58024523D01*
X165796621Y-58139762D01*
X165820184Y-58177262D01*
X165947738Y-58304816D01*
X166100478Y-58400789D01*
X166221296Y-58443065D01*
X166270745Y-58460368D01*
X166270750Y-58460369D01*
X166449996Y-58480565D01*
X166450000Y-58480565D01*
X166450004Y-58480565D01*
X166629249Y-58460369D01*
X166629252Y-58460368D01*
X166629255Y-58460368D01*
X166799522Y-58400789D01*
X166952262Y-58304816D01*
X167079816Y-58177262D01*
X167175789Y-58024522D01*
X167235368Y-57854255D01*
X167235369Y-57854249D01*
X167255565Y-57675003D01*
X167255565Y-57674996D01*
X167235369Y-57495750D01*
X167235368Y-57495745D01*
X167187058Y-57357684D01*
X167175789Y-57325478D01*
X167079816Y-57172738D01*
X166952262Y-57045184D01*
X166799523Y-56949211D01*
X166629254Y-56889631D01*
X166629249Y-56889630D01*
X166499362Y-56874996D01*
X167369435Y-56874996D01*
X167369435Y-56875003D01*
X167389630Y-57054249D01*
X167389631Y-57054254D01*
X167449211Y-57224523D01*
X167512646Y-57325478D01*
X167545184Y-57377262D01*
X167672738Y-57504816D01*
X167825478Y-57600789D01*
X167931758Y-57637978D01*
X167995745Y-57660368D01*
X167995750Y-57660369D01*
X168174996Y-57680565D01*
X168175000Y-57680565D01*
X168175004Y-57680565D01*
X168354249Y-57660369D01*
X168354252Y-57660368D01*
X168354255Y-57660368D01*
X168524522Y-57600789D01*
X168677262Y-57504816D01*
X168804816Y-57377262D01*
X168900789Y-57224522D01*
X168960368Y-57054255D01*
X168961390Y-57045184D01*
X168980565Y-56875003D01*
X168980565Y-56874996D01*
X168960369Y-56695750D01*
X168960368Y-56695745D01*
X168900789Y-56525478D01*
X168804816Y-56372738D01*
X168677262Y-56245184D01*
X168524523Y-56149211D01*
X168354254Y-56089631D01*
X168354249Y-56089630D01*
X168175004Y-56069435D01*
X168174996Y-56069435D01*
X167995750Y-56089630D01*
X167995745Y-56089631D01*
X167825476Y-56149211D01*
X167672737Y-56245184D01*
X167545184Y-56372737D01*
X167449211Y-56525476D01*
X167389631Y-56695745D01*
X167389630Y-56695750D01*
X167369435Y-56874996D01*
X166499362Y-56874996D01*
X166450004Y-56869435D01*
X166449996Y-56869435D01*
X166270750Y-56889630D01*
X166270745Y-56889631D01*
X166100476Y-56949211D01*
X165947737Y-57045184D01*
X165820184Y-57172737D01*
X165724211Y-57325476D01*
X165664631Y-57495745D01*
X165664630Y-57495750D01*
X165644435Y-57674996D01*
X152676341Y-57674996D01*
X152680565Y-57637503D01*
X152680565Y-57637496D01*
X152660369Y-57458250D01*
X152660368Y-57458245D01*
X152600788Y-57287976D01*
X152529800Y-57175000D01*
X152504816Y-57135238D01*
X152377262Y-57007684D01*
X152284203Y-56949211D01*
X152224523Y-56911711D01*
X152054254Y-56852131D01*
X152054249Y-56852130D01*
X151875004Y-56831935D01*
X151874996Y-56831935D01*
X151695750Y-56852130D01*
X151695745Y-56852131D01*
X151525476Y-56911711D01*
X151372737Y-57007684D01*
X151245184Y-57135237D01*
X151149211Y-57287976D01*
X151089631Y-57458245D01*
X151089630Y-57458250D01*
X151069435Y-57637496D01*
X136575486Y-57637496D01*
X136479816Y-57485238D01*
X136352262Y-57357684D01*
X136346795Y-57354249D01*
X136199523Y-57261711D01*
X136029254Y-57202131D01*
X136029249Y-57202130D01*
X135850004Y-57181935D01*
X135849996Y-57181935D01*
X135670750Y-57202130D01*
X135670745Y-57202131D01*
X135500476Y-57261711D01*
X135347737Y-57357684D01*
X135220184Y-57485237D01*
X135124211Y-57637976D01*
X135064631Y-57808245D01*
X135064630Y-57808250D01*
X135044435Y-57987496D01*
X121500500Y-57987496D01*
X121500500Y-57174996D01*
X122344435Y-57174996D01*
X122344435Y-57175003D01*
X122364630Y-57354249D01*
X122364631Y-57354254D01*
X122424211Y-57524523D01*
X122495197Y-57637496D01*
X122520184Y-57677262D01*
X122647738Y-57804816D01*
X122800478Y-57900789D01*
X122970745Y-57960368D01*
X122970750Y-57960369D01*
X123149996Y-57980565D01*
X123150000Y-57980565D01*
X123150004Y-57980565D01*
X123329249Y-57960369D01*
X123329252Y-57960368D01*
X123329255Y-57960368D01*
X123499522Y-57900789D01*
X123652262Y-57804816D01*
X123779816Y-57677262D01*
X123875789Y-57524522D01*
X123935368Y-57354255D01*
X123935369Y-57354249D01*
X123955565Y-57175003D01*
X123955565Y-57174996D01*
X123935369Y-56995750D01*
X123935368Y-56995745D01*
X123898237Y-56889630D01*
X123875789Y-56825478D01*
X123779816Y-56672738D01*
X123652262Y-56545184D01*
X123601042Y-56513000D01*
X123499523Y-56449211D01*
X123329254Y-56389631D01*
X123329249Y-56389630D01*
X123150004Y-56369435D01*
X123149996Y-56369435D01*
X122970750Y-56389630D01*
X122970745Y-56389631D01*
X122800476Y-56449211D01*
X122647737Y-56545184D01*
X122520184Y-56672737D01*
X122424211Y-56825476D01*
X122364631Y-56995745D01*
X122364630Y-56995750D01*
X122344435Y-57174996D01*
X121500500Y-57174996D01*
X121500500Y-55926571D01*
X133499499Y-55926571D01*
X133524497Y-56052238D01*
X133524499Y-56052244D01*
X133573533Y-56170624D01*
X133573538Y-56170633D01*
X133644723Y-56277168D01*
X133644726Y-56277172D01*
X133735327Y-56367773D01*
X133735331Y-56367776D01*
X133841866Y-56438961D01*
X133841872Y-56438964D01*
X133841873Y-56438965D01*
X133960256Y-56488001D01*
X133960260Y-56488001D01*
X133960261Y-56488002D01*
X134085928Y-56513000D01*
X134085931Y-56513000D01*
X134214071Y-56513000D01*
X134298615Y-56496182D01*
X134339744Y-56488001D01*
X134458127Y-56438965D01*
X134564669Y-56367776D01*
X134655276Y-56277169D01*
X134726465Y-56170627D01*
X134775501Y-56052244D01*
X134800500Y-55926569D01*
X134800500Y-55798431D01*
X134800500Y-55798428D01*
X134775502Y-55672761D01*
X134775501Y-55672760D01*
X134775501Y-55672756D01*
X134726465Y-55554373D01*
X134726464Y-55554372D01*
X134726461Y-55554366D01*
X134655276Y-55447831D01*
X134655273Y-55447827D01*
X134564672Y-55357226D01*
X134564668Y-55357223D01*
X134458133Y-55286038D01*
X134458124Y-55286033D01*
X134339744Y-55236999D01*
X134339738Y-55236997D01*
X134214071Y-55212000D01*
X134214069Y-55212000D01*
X134085931Y-55212000D01*
X134085929Y-55212000D01*
X133960261Y-55236997D01*
X133960255Y-55236999D01*
X133841875Y-55286033D01*
X133841866Y-55286038D01*
X133735331Y-55357223D01*
X133735327Y-55357226D01*
X133644726Y-55447827D01*
X133644723Y-55447831D01*
X133573538Y-55554366D01*
X133573533Y-55554375D01*
X133524499Y-55672755D01*
X133524497Y-55672761D01*
X133499500Y-55798428D01*
X133499500Y-55798431D01*
X133499500Y-55926569D01*
X133499500Y-55926571D01*
X133499499Y-55926571D01*
X121500500Y-55926571D01*
X121500500Y-54024500D01*
X121520185Y-53957461D01*
X121572989Y-53911706D01*
X121624500Y-53900500D01*
X163781737Y-53900500D01*
X163848776Y-53920185D01*
G37*
G04 #@! TD.AperFunction*
M02*
