G04 #@! TF.GenerationSoftware,KiCad,Pcbnew,8.0.8*
G04 #@! TF.CreationDate,2025-07-12T12:58:50+02:00*
G04 #@! TF.ProjectId,main,6d61696e-2e6b-4696-9361-645f70636258,rev?*
G04 #@! TF.SameCoordinates,Original*
G04 #@! TF.FileFunction,Copper,L3,Inr*
G04 #@! TF.FilePolarity,Positive*
%FSLAX46Y46*%
G04 Gerber Fmt 4.6, Leading zero omitted, Abs format (unit mm)*
G04 Created by KiCad (PCBNEW 8.0.8) date 2025-07-12 12:58:50*
%MOMM*%
%LPD*%
G01*
G04 APERTURE LIST*
G04 #@! TA.AperFunction,ComponentPad*
%ADD10R,1.350000X1.350000*%
G04 #@! TD*
G04 #@! TA.AperFunction,ComponentPad*
%ADD11O,1.350000X1.350000*%
G04 #@! TD*
G04 #@! TA.AperFunction,ViaPad*
%ADD12C,0.600000*%
G04 #@! TD*
G04 #@! TA.AperFunction,ViaPad*
%ADD13C,1.400000*%
G04 #@! TD*
G04 #@! TA.AperFunction,ViaPad*
%ADD14C,1.000000*%
G04 #@! TD*
G04 #@! TA.AperFunction,Conductor*
%ADD15C,0.200000*%
G04 #@! TD*
G04 APERTURE END LIST*
D10*
X167075000Y-78950000D03*
D11*
X169075000Y-78950000D03*
D12*
X154800000Y-68850000D03*
X153825000Y-71250000D03*
X151675000Y-71700000D03*
X145525000Y-71600000D03*
X145525000Y-71600000D03*
X153625000Y-67525000D03*
X157537500Y-77637500D03*
X157725000Y-76600000D03*
X153020343Y-66745343D03*
X168175000Y-56875000D03*
X166450000Y-57675000D03*
X139425000Y-54600000D03*
X143250000Y-83600000D03*
X153050000Y-62950000D03*
X156750000Y-64475000D03*
X168250000Y-74675000D03*
X145845000Y-68240000D03*
X166625000Y-74650000D03*
X151250000Y-67475000D03*
X132375000Y-82200000D03*
X130575000Y-66150000D03*
X129111500Y-63375000D03*
X160225000Y-80425000D03*
X157600000Y-69625000D03*
X129925000Y-82250000D03*
X155925000Y-57462500D03*
D13*
X130575000Y-67975000D03*
D12*
X135175000Y-68383000D03*
D13*
X125550000Y-67875000D03*
D12*
X133675000Y-84525000D03*
X131125000Y-84575000D03*
X135375000Y-63375000D03*
X158175000Y-64450000D03*
X130175000Y-79625000D03*
X129025000Y-74975000D03*
X136375000Y-79450000D03*
X123150000Y-57175000D03*
X164325000Y-54775000D03*
X147075000Y-75750000D03*
X125525000Y-66350000D03*
X124400000Y-83300000D03*
X126650000Y-63300000D03*
D14*
X137183200Y-68383000D03*
D12*
X162133000Y-69450000D03*
X146750000Y-64850000D03*
X136725000Y-75125000D03*
X157949265Y-62174265D03*
X152175000Y-65725000D03*
X140325000Y-72375000D03*
X141100000Y-71650000D03*
X134125000Y-75125000D03*
X156800000Y-62475000D03*
X148475000Y-74875000D03*
X139275000Y-63200000D03*
X143925000Y-75350000D03*
X134100000Y-62900000D03*
X153737500Y-76062500D03*
X141275000Y-76648750D03*
X142650000Y-81050000D03*
X153600000Y-77250000D03*
X143300000Y-75950000D03*
X131651500Y-63051500D03*
X142550000Y-75308750D03*
X136712499Y-63350000D03*
D13*
X123010000Y-67875000D03*
D12*
X135850000Y-57987500D03*
X123025000Y-66375000D03*
D13*
X130630000Y-70415000D03*
D12*
X130500000Y-72100000D03*
X151875000Y-57637500D03*
X128125000Y-72150000D03*
D13*
X128090000Y-70415000D03*
X128090000Y-67875000D03*
D12*
X156150000Y-71500000D03*
X154425000Y-60725000D03*
D14*
X137250000Y-70900000D03*
D12*
X123025000Y-72050000D03*
D13*
X123010000Y-70415000D03*
D12*
X133887500Y-71787500D03*
D15*
X131750000Y-72100000D02*
X130500000Y-72100000D01*
X132650000Y-62050000D02*
X132650000Y-71200000D01*
X130500000Y-72100000D02*
X130525000Y-72125000D01*
X127175000Y-57100000D02*
X127700000Y-57100000D01*
X127700000Y-57100000D02*
X132650000Y-62050000D01*
X132650000Y-71200000D02*
X131750000Y-72100000D01*
X145700000Y-62350000D02*
X145700000Y-64875000D01*
X153225000Y-55225000D02*
X152825000Y-55225000D01*
X137875000Y-72700000D02*
X128675000Y-72700000D01*
X145700000Y-64875000D02*
X137875000Y-72700000D01*
X128675000Y-72700000D02*
X128125000Y-72150000D01*
X152825000Y-55225000D02*
X145700000Y-62350000D01*
G04 #@! TA.AperFunction,Conductor*
G36*
X138762027Y-53920185D02*
G01*
X138807782Y-53972989D01*
X138817726Y-54042147D01*
X138796805Y-54090532D01*
X138798889Y-54091842D01*
X138699211Y-54250476D01*
X138639631Y-54420745D01*
X138639630Y-54420750D01*
X138619435Y-54599996D01*
X138619435Y-54600003D01*
X138639630Y-54779249D01*
X138639631Y-54779254D01*
X138699211Y-54949523D01*
X138795184Y-55102262D01*
X138922738Y-55229816D01*
X138934170Y-55236999D01*
X139040888Y-55304055D01*
X139075478Y-55325789D01*
X139165314Y-55357224D01*
X139245745Y-55385368D01*
X139245750Y-55385369D01*
X139424996Y-55405565D01*
X139425000Y-55405565D01*
X139425004Y-55405565D01*
X139604249Y-55385369D01*
X139604252Y-55385368D01*
X139604255Y-55385368D01*
X139774522Y-55325789D01*
X139927262Y-55229816D01*
X140054816Y-55102262D01*
X140150789Y-54949522D01*
X140210368Y-54779255D01*
X140219241Y-54700506D01*
X140230565Y-54600003D01*
X140230565Y-54599996D01*
X140210369Y-54420750D01*
X140210368Y-54420745D01*
X140150788Y-54250476D01*
X140051111Y-54091842D01*
X140053409Y-54090397D01*
X140031659Y-54037151D01*
X140044401Y-53968453D01*
X140092261Y-53917550D01*
X140155012Y-53900500D01*
X170375500Y-53900500D01*
X170442539Y-53920185D01*
X170488294Y-53972989D01*
X170499500Y-54024500D01*
X170499500Y-78900712D01*
X170484644Y-78951304D01*
X170497193Y-78975479D01*
X170499500Y-78999287D01*
X170499500Y-84875500D01*
X170479815Y-84942539D01*
X170427011Y-84988294D01*
X170375500Y-84999500D01*
X121624500Y-84999500D01*
X121557461Y-84979815D01*
X121511706Y-84927011D01*
X121500500Y-84875500D01*
X121500500Y-83599996D01*
X142444435Y-83599996D01*
X142444435Y-83600003D01*
X142464630Y-83779249D01*
X142464631Y-83779254D01*
X142524211Y-83949523D01*
X142576536Y-84032797D01*
X142620184Y-84102262D01*
X142747738Y-84229816D01*
X142900478Y-84325789D01*
X143070745Y-84385368D01*
X143070750Y-84385369D01*
X143249996Y-84405565D01*
X143250000Y-84405565D01*
X143250004Y-84405565D01*
X143429249Y-84385369D01*
X143429252Y-84385368D01*
X143429255Y-84385368D01*
X143599522Y-84325789D01*
X143752262Y-84229816D01*
X143879816Y-84102262D01*
X143975789Y-83949522D01*
X144035368Y-83779255D01*
X144055565Y-83600000D01*
X144035368Y-83420745D01*
X143975789Y-83250478D01*
X143879816Y-83097738D01*
X143752262Y-82970184D01*
X143681608Y-82925789D01*
X143599523Y-82874211D01*
X143429254Y-82814631D01*
X143429249Y-82814630D01*
X143250004Y-82794435D01*
X143249996Y-82794435D01*
X143070750Y-82814630D01*
X143070745Y-82814631D01*
X142900476Y-82874211D01*
X142747737Y-82970184D01*
X142620184Y-83097737D01*
X142524211Y-83250476D01*
X142464631Y-83420745D01*
X142464630Y-83420750D01*
X142444435Y-83599996D01*
X121500500Y-83599996D01*
X121500500Y-82249996D01*
X129119435Y-82249996D01*
X129119435Y-82250003D01*
X129139630Y-82429249D01*
X129139631Y-82429254D01*
X129199211Y-82599523D01*
X129263767Y-82702262D01*
X129295184Y-82752262D01*
X129422738Y-82879816D01*
X129495902Y-82925788D01*
X129566557Y-82970184D01*
X129575478Y-82975789D01*
X129660573Y-83005565D01*
X129745745Y-83035368D01*
X129745750Y-83035369D01*
X129924996Y-83055565D01*
X129925000Y-83055565D01*
X129925004Y-83055565D01*
X130104249Y-83035369D01*
X130104252Y-83035368D01*
X130104255Y-83035368D01*
X130274522Y-82975789D01*
X130427262Y-82879816D01*
X130554816Y-82752262D01*
X130650789Y-82599522D01*
X130710368Y-82429255D01*
X130716002Y-82379254D01*
X130730565Y-82250003D01*
X130730565Y-82249996D01*
X130724931Y-82199996D01*
X131569435Y-82199996D01*
X131569435Y-82200003D01*
X131589630Y-82379249D01*
X131589631Y-82379254D01*
X131649211Y-82549523D01*
X131745184Y-82702262D01*
X131872738Y-82829816D01*
X132025478Y-82925789D01*
X132152352Y-82970184D01*
X132195745Y-82985368D01*
X132195750Y-82985369D01*
X132374996Y-83005565D01*
X132375000Y-83005565D01*
X132375004Y-83005565D01*
X132554249Y-82985369D01*
X132554252Y-82985368D01*
X132554255Y-82985368D01*
X132724522Y-82925789D01*
X132877262Y-82829816D01*
X133004816Y-82702262D01*
X133100789Y-82549522D01*
X133160368Y-82379255D01*
X133174931Y-82250003D01*
X133180565Y-82200003D01*
X133180565Y-82199996D01*
X133160369Y-82020750D01*
X133160368Y-82020745D01*
X133100788Y-81850476D01*
X133004815Y-81697737D01*
X132877262Y-81570184D01*
X132724523Y-81474211D01*
X132554254Y-81414631D01*
X132554249Y-81414630D01*
X132375004Y-81394435D01*
X132374996Y-81394435D01*
X132195750Y-81414630D01*
X132195745Y-81414631D01*
X132025476Y-81474211D01*
X131872737Y-81570184D01*
X131745184Y-81697737D01*
X131649211Y-81850476D01*
X131589631Y-82020745D01*
X131589630Y-82020750D01*
X131569435Y-82199996D01*
X130724931Y-82199996D01*
X130710369Y-82070750D01*
X130710368Y-82070745D01*
X130650788Y-81900476D01*
X130609878Y-81835368D01*
X130554816Y-81747738D01*
X130427262Y-81620184D01*
X130347688Y-81570184D01*
X130274523Y-81524211D01*
X130104254Y-81464631D01*
X130104249Y-81464630D01*
X129925004Y-81444435D01*
X129924996Y-81444435D01*
X129745750Y-81464630D01*
X129745745Y-81464631D01*
X129575476Y-81524211D01*
X129422737Y-81620184D01*
X129295184Y-81747737D01*
X129199211Y-81900476D01*
X129139631Y-82070745D01*
X129139630Y-82070750D01*
X129119435Y-82249996D01*
X121500500Y-82249996D01*
X121500500Y-81049996D01*
X141844435Y-81049996D01*
X141844435Y-81050003D01*
X141864630Y-81229249D01*
X141864631Y-81229254D01*
X141924211Y-81399523D01*
X141965122Y-81464632D01*
X142020184Y-81552262D01*
X142147738Y-81679816D01*
X142176259Y-81697737D01*
X142255833Y-81747737D01*
X142300478Y-81775789D01*
X142470745Y-81835368D01*
X142470750Y-81835369D01*
X142649996Y-81855565D01*
X142650000Y-81855565D01*
X142650004Y-81855565D01*
X142829249Y-81835369D01*
X142829252Y-81835368D01*
X142829255Y-81835368D01*
X142999522Y-81775789D01*
X143152262Y-81679816D01*
X143279816Y-81552262D01*
X143375789Y-81399522D01*
X143435368Y-81229255D01*
X143444209Y-81150788D01*
X143455565Y-81050003D01*
X143455565Y-81049996D01*
X143435369Y-80870750D01*
X143435368Y-80870745D01*
X143375788Y-80700476D01*
X143279815Y-80547737D01*
X143157074Y-80424996D01*
X159419435Y-80424996D01*
X159419435Y-80425003D01*
X159439630Y-80604249D01*
X159439631Y-80604254D01*
X159499211Y-80774523D01*
X159559672Y-80870745D01*
X159595184Y-80927262D01*
X159722738Y-81054816D01*
X159875478Y-81150789D01*
X160045745Y-81210368D01*
X160045750Y-81210369D01*
X160224996Y-81230565D01*
X160225000Y-81230565D01*
X160225004Y-81230565D01*
X160404249Y-81210369D01*
X160404252Y-81210368D01*
X160404255Y-81210368D01*
X160574522Y-81150789D01*
X160727262Y-81054816D01*
X160854816Y-80927262D01*
X160950789Y-80774522D01*
X161010368Y-80604255D01*
X161030565Y-80425000D01*
X161030022Y-80420184D01*
X161010369Y-80245750D01*
X161010368Y-80245745D01*
X160965877Y-80118598D01*
X160950789Y-80075478D01*
X160854816Y-79922738D01*
X160727262Y-79795184D01*
X160647909Y-79745323D01*
X160574523Y-79699211D01*
X160404254Y-79639631D01*
X160404249Y-79639630D01*
X160225004Y-79619435D01*
X160224996Y-79619435D01*
X160045750Y-79639630D01*
X160045745Y-79639631D01*
X159875476Y-79699211D01*
X159722737Y-79795184D01*
X159595184Y-79922737D01*
X159499211Y-80075476D01*
X159439631Y-80245745D01*
X159439630Y-80245750D01*
X159419435Y-80424996D01*
X143157074Y-80424996D01*
X143152262Y-80420184D01*
X142999523Y-80324211D01*
X142829254Y-80264631D01*
X142829249Y-80264630D01*
X142650004Y-80244435D01*
X142649996Y-80244435D01*
X142470750Y-80264630D01*
X142470745Y-80264631D01*
X142300476Y-80324211D01*
X142147737Y-80420184D01*
X142020184Y-80547737D01*
X141924211Y-80700476D01*
X141864631Y-80870745D01*
X141864630Y-80870750D01*
X141844435Y-81049996D01*
X121500500Y-81049996D01*
X121500500Y-76648746D01*
X140469435Y-76648746D01*
X140469435Y-76648753D01*
X140489630Y-76827999D01*
X140489631Y-76828004D01*
X140549211Y-76998273D01*
X140635273Y-77135239D01*
X140645184Y-77151012D01*
X140772738Y-77278566D01*
X140925478Y-77374539D01*
X141081847Y-77429255D01*
X141095745Y-77434118D01*
X141095750Y-77434119D01*
X141274996Y-77454315D01*
X141275000Y-77454315D01*
X141275004Y-77454315D01*
X141454249Y-77434119D01*
X141454252Y-77434118D01*
X141454255Y-77434118D01*
X141624522Y-77374539D01*
X141777262Y-77278566D01*
X141805832Y-77249996D01*
X152794435Y-77249996D01*
X152794435Y-77250003D01*
X152814630Y-77429249D01*
X152814631Y-77429254D01*
X152874211Y-77599523D01*
X152898074Y-77637500D01*
X152970184Y-77752262D01*
X153097738Y-77879816D01*
X153250478Y-77975789D01*
X153371856Y-78018261D01*
X153420745Y-78035368D01*
X153420750Y-78035369D01*
X153599996Y-78055565D01*
X153600000Y-78055565D01*
X153600004Y-78055565D01*
X153779249Y-78035369D01*
X153779252Y-78035368D01*
X153779255Y-78035368D01*
X153949522Y-77975789D01*
X154102262Y-77879816D01*
X154229816Y-77752262D01*
X154301928Y-77637496D01*
X156731935Y-77637496D01*
X156731935Y-77637503D01*
X156752130Y-77816749D01*
X156752131Y-77816754D01*
X156811711Y-77987023D01*
X156854779Y-78055565D01*
X156907684Y-78139762D01*
X157035238Y-78267316D01*
X157187978Y-78363289D01*
X157358245Y-78422868D01*
X157358250Y-78422869D01*
X157537496Y-78443065D01*
X157537500Y-78443065D01*
X157537504Y-78443065D01*
X157716749Y-78422869D01*
X157716752Y-78422868D01*
X157716755Y-78422868D01*
X157887022Y-78363289D01*
X158039762Y-78267316D01*
X158079923Y-78227155D01*
X165900000Y-78227155D01*
X165900000Y-78700000D01*
X166759314Y-78700000D01*
X166754920Y-78704394D01*
X166702259Y-78795606D01*
X166675000Y-78897339D01*
X166675000Y-79002661D01*
X166702259Y-79104394D01*
X166754920Y-79195606D01*
X166759314Y-79200000D01*
X165900000Y-79200000D01*
X165900000Y-79672844D01*
X165906401Y-79732372D01*
X165906403Y-79732379D01*
X165956645Y-79867086D01*
X165956649Y-79867093D01*
X166042809Y-79982187D01*
X166042812Y-79982190D01*
X166157906Y-80068350D01*
X166157913Y-80068354D01*
X166292620Y-80118596D01*
X166292627Y-80118598D01*
X166352155Y-80124999D01*
X166352172Y-80125000D01*
X166825000Y-80125000D01*
X166825000Y-79265686D01*
X166829394Y-79270080D01*
X166920606Y-79322741D01*
X167022339Y-79350000D01*
X167127661Y-79350000D01*
X167229394Y-79322741D01*
X167320606Y-79270080D01*
X167325000Y-79265686D01*
X167325000Y-80125000D01*
X167797828Y-80125000D01*
X167797844Y-80124999D01*
X167857372Y-80118598D01*
X167857379Y-80118596D01*
X167992086Y-80068354D01*
X167992093Y-80068350D01*
X168107186Y-79982191D01*
X168169413Y-79899067D01*
X168225347Y-79857196D01*
X168295038Y-79852212D01*
X168352216Y-79881739D01*
X168363568Y-79892088D01*
X168363575Y-79892092D01*
X168363576Y-79892093D01*
X168548786Y-80006770D01*
X168548792Y-80006773D01*
X168571664Y-80015633D01*
X168751931Y-80085470D01*
X168966074Y-80125500D01*
X168966076Y-80125500D01*
X169183924Y-80125500D01*
X169183926Y-80125500D01*
X169398069Y-80085470D01*
X169601210Y-80006772D01*
X169786432Y-79892088D01*
X169947427Y-79745322D01*
X170078712Y-79571472D01*
X170175817Y-79376459D01*
X170235435Y-79166923D01*
X170252029Y-78987845D01*
X170266556Y-78951260D01*
X170256523Y-78935647D01*
X170252029Y-78912153D01*
X170235435Y-78733081D01*
X170235435Y-78733077D01*
X170175817Y-78523541D01*
X170078712Y-78328528D01*
X169947427Y-78154678D01*
X169786432Y-78007912D01*
X169786428Y-78007909D01*
X169786423Y-78007906D01*
X169601213Y-77893229D01*
X169601207Y-77893226D01*
X169516113Y-77860260D01*
X169398069Y-77814530D01*
X169183926Y-77774500D01*
X168966074Y-77774500D01*
X168751931Y-77814530D01*
X168707753Y-77831645D01*
X168548792Y-77893226D01*
X168548786Y-77893229D01*
X168363565Y-78007913D01*
X168352214Y-78018261D01*
X168289408Y-78048875D01*
X168220021Y-78040674D01*
X168169414Y-78000932D01*
X168107187Y-77917809D01*
X167992093Y-77831649D01*
X167992086Y-77831645D01*
X167857379Y-77781403D01*
X167857372Y-77781401D01*
X167797844Y-77775000D01*
X167325000Y-77775000D01*
X167325000Y-78634314D01*
X167320606Y-78629920D01*
X167229394Y-78577259D01*
X167127661Y-78550000D01*
X167022339Y-78550000D01*
X166920606Y-78577259D01*
X166829394Y-78629920D01*
X166825000Y-78634314D01*
X166825000Y-77775000D01*
X166352155Y-77775000D01*
X166292627Y-77781401D01*
X166292620Y-77781403D01*
X166157913Y-77831645D01*
X166157906Y-77831649D01*
X166042812Y-77917809D01*
X166042809Y-77917812D01*
X165956649Y-78032906D01*
X165956645Y-78032913D01*
X165906403Y-78167620D01*
X165906401Y-78167627D01*
X165900000Y-78227155D01*
X158079923Y-78227155D01*
X158167316Y-78139762D01*
X158263289Y-77987022D01*
X158322868Y-77816755D01*
X158323119Y-77814530D01*
X158343065Y-77637503D01*
X158343065Y-77637496D01*
X158322869Y-77458250D01*
X158322866Y-77458237D01*
X158264608Y-77291746D01*
X158261046Y-77221967D01*
X158293968Y-77163110D01*
X158321840Y-77135238D01*
X158354816Y-77102262D01*
X158450789Y-76949522D01*
X158510368Y-76779255D01*
X158510369Y-76779249D01*
X158530565Y-76600003D01*
X158530565Y-76599996D01*
X158510369Y-76420750D01*
X158510368Y-76420745D01*
X158467847Y-76299228D01*
X158450789Y-76250478D01*
X158445307Y-76241754D01*
X158380010Y-76137834D01*
X158354816Y-76097738D01*
X158227262Y-75970184D01*
X158074523Y-75874211D01*
X157904254Y-75814631D01*
X157904249Y-75814630D01*
X157725004Y-75794435D01*
X157724996Y-75794435D01*
X157545750Y-75814630D01*
X157545745Y-75814631D01*
X157375476Y-75874211D01*
X157222737Y-75970184D01*
X157095184Y-76097737D01*
X156999211Y-76250476D01*
X156939631Y-76420745D01*
X156939630Y-76420750D01*
X156919435Y-76599996D01*
X156919435Y-76600003D01*
X156939630Y-76779249D01*
X156939631Y-76779254D01*
X156997892Y-76945753D01*
X157001453Y-77015532D01*
X156968533Y-77074388D01*
X156907683Y-77135239D01*
X156811711Y-77287976D01*
X156752131Y-77458245D01*
X156752130Y-77458250D01*
X156731935Y-77637496D01*
X154301928Y-77637496D01*
X154325789Y-77599522D01*
X154385368Y-77429255D01*
X154391533Y-77374538D01*
X154405565Y-77250003D01*
X154405565Y-77249996D01*
X154385369Y-77070750D01*
X154385368Y-77070745D01*
X154360009Y-76998273D01*
X154325789Y-76900478D01*
X154264877Y-76803538D01*
X154245878Y-76736303D01*
X154266246Y-76669467D01*
X154282182Y-76649895D01*
X154367316Y-76564762D01*
X154463289Y-76412022D01*
X154522868Y-76241755D01*
X154522869Y-76241749D01*
X154543065Y-76062503D01*
X154543065Y-76062496D01*
X154522869Y-75883250D01*
X154522868Y-75883245D01*
X154498859Y-75814631D01*
X154463289Y-75712978D01*
X154367316Y-75560238D01*
X154239762Y-75432684D01*
X154087023Y-75336711D01*
X153916754Y-75277131D01*
X153916749Y-75277130D01*
X153737504Y-75256935D01*
X153737496Y-75256935D01*
X153558250Y-75277130D01*
X153558245Y-75277131D01*
X153387976Y-75336711D01*
X153235237Y-75432684D01*
X153107684Y-75560237D01*
X153011711Y-75712976D01*
X152952131Y-75883245D01*
X152952130Y-75883250D01*
X152931935Y-76062496D01*
X152931935Y-76062503D01*
X152952130Y-76241749D01*
X152952131Y-76241754D01*
X153011711Y-76412023D01*
X153072621Y-76508960D01*
X153091621Y-76576197D01*
X153071253Y-76643032D01*
X153055309Y-76662613D01*
X152970183Y-76747739D01*
X152874211Y-76900476D01*
X152814631Y-77070745D01*
X152814630Y-77070750D01*
X152794435Y-77249996D01*
X141805832Y-77249996D01*
X141904816Y-77151012D01*
X142000789Y-76998272D01*
X142060368Y-76828005D01*
X142065861Y-76779254D01*
X142080565Y-76648753D01*
X142080565Y-76648746D01*
X142060369Y-76469500D01*
X142060368Y-76469495D01*
X142000892Y-76299522D01*
X142000789Y-76299228D01*
X141904816Y-76146488D01*
X141777262Y-76018934D01*
X141624523Y-75922961D01*
X141454254Y-75863381D01*
X141454249Y-75863380D01*
X141275004Y-75843185D01*
X141274996Y-75843185D01*
X141095750Y-75863380D01*
X141095745Y-75863381D01*
X140925476Y-75922961D01*
X140772737Y-76018934D01*
X140645184Y-76146487D01*
X140549211Y-76299226D01*
X140489631Y-76469495D01*
X140489630Y-76469500D01*
X140469435Y-76648746D01*
X121500500Y-76648746D01*
X121500500Y-75124996D01*
X133319435Y-75124996D01*
X133319435Y-75125003D01*
X133339630Y-75304249D01*
X133339631Y-75304254D01*
X133399211Y-75474523D01*
X133433598Y-75529249D01*
X133495184Y-75627262D01*
X133622738Y-75754816D01*
X133685791Y-75794435D01*
X133717934Y-75814632D01*
X133775478Y-75850789D01*
X133945745Y-75910368D01*
X133945750Y-75910369D01*
X134124996Y-75930565D01*
X134125000Y-75930565D01*
X134125004Y-75930565D01*
X134304249Y-75910369D01*
X134304252Y-75910368D01*
X134304255Y-75910368D01*
X134474522Y-75850789D01*
X134627262Y-75754816D01*
X134754816Y-75627262D01*
X134850789Y-75474522D01*
X134910368Y-75304255D01*
X134913424Y-75277131D01*
X134930565Y-75125003D01*
X134930565Y-75124996D01*
X135919435Y-75124996D01*
X135919435Y-75125003D01*
X135939630Y-75304249D01*
X135939631Y-75304254D01*
X135999211Y-75474523D01*
X136033598Y-75529249D01*
X136095184Y-75627262D01*
X136222738Y-75754816D01*
X136285791Y-75794435D01*
X136317934Y-75814632D01*
X136375478Y-75850789D01*
X136545745Y-75910368D01*
X136545750Y-75910369D01*
X136724996Y-75930565D01*
X136725000Y-75930565D01*
X136725004Y-75930565D01*
X136904249Y-75910369D01*
X136904252Y-75910368D01*
X136904255Y-75910368D01*
X137074522Y-75850789D01*
X137227262Y-75754816D01*
X137354816Y-75627262D01*
X137450789Y-75474522D01*
X137508797Y-75308746D01*
X141744435Y-75308746D01*
X141744435Y-75308753D01*
X141764630Y-75487999D01*
X141764631Y-75488004D01*
X141824211Y-75658273D01*
X141909768Y-75794435D01*
X141920184Y-75811012D01*
X142047738Y-75938566D01*
X142200478Y-76034539D01*
X142370745Y-76094118D01*
X142430314Y-76100829D01*
X142494726Y-76127894D01*
X142533470Y-76183093D01*
X142539428Y-76200118D01*
X142574210Y-76299521D01*
X142650384Y-76420750D01*
X142670184Y-76452262D01*
X142797738Y-76579816D01*
X142861983Y-76620184D01*
X142940416Y-76669467D01*
X142950478Y-76675789D01*
X143069796Y-76717540D01*
X143120745Y-76735368D01*
X143120750Y-76735369D01*
X143299996Y-76755565D01*
X143300000Y-76755565D01*
X143300004Y-76755565D01*
X143479249Y-76735369D01*
X143479252Y-76735368D01*
X143479255Y-76735368D01*
X143649522Y-76675789D01*
X143802262Y-76579816D01*
X143929816Y-76452262D01*
X144025789Y-76299522D01*
X144060571Y-76200117D01*
X144101292Y-76143341D01*
X144136657Y-76124029D01*
X144274522Y-76075789D01*
X144427262Y-75979816D01*
X144554816Y-75852262D01*
X144650789Y-75699522D01*
X144710368Y-75529255D01*
X144715016Y-75488004D01*
X144730565Y-75350003D01*
X144730565Y-75349996D01*
X144710369Y-75170750D01*
X144710368Y-75170745D01*
X144650789Y-75000478D01*
X144650188Y-74999522D01*
X144599540Y-74918916D01*
X144571943Y-74874996D01*
X147669435Y-74874996D01*
X147669435Y-74875003D01*
X147689630Y-75054249D01*
X147689631Y-75054254D01*
X147749211Y-75224523D01*
X147802135Y-75308750D01*
X147845184Y-75377262D01*
X147972738Y-75504816D01*
X148125478Y-75600789D01*
X148289755Y-75658272D01*
X148295745Y-75660368D01*
X148295750Y-75660369D01*
X148474996Y-75680565D01*
X148475000Y-75680565D01*
X148475004Y-75680565D01*
X148654249Y-75660369D01*
X148654252Y-75660368D01*
X148654255Y-75660368D01*
X148824522Y-75600789D01*
X148977262Y-75504816D01*
X149104816Y-75377262D01*
X149200789Y-75224522D01*
X149260368Y-75054255D01*
X149266427Y-75000478D01*
X149280565Y-74875003D01*
X149280565Y-74874996D01*
X149260369Y-74695750D01*
X149260368Y-74695745D01*
X149244360Y-74649996D01*
X165819435Y-74649996D01*
X165819435Y-74650003D01*
X165839630Y-74829249D01*
X165839631Y-74829254D01*
X165899211Y-74999523D01*
X165980882Y-75129500D01*
X165995184Y-75152262D01*
X166122738Y-75279816D01*
X166275478Y-75375789D01*
X166346924Y-75400789D01*
X166445745Y-75435368D01*
X166445750Y-75435369D01*
X166624996Y-75455565D01*
X166625000Y-75455565D01*
X166625004Y-75455565D01*
X166804249Y-75435369D01*
X166804252Y-75435368D01*
X166804255Y-75435368D01*
X166974522Y-75375789D01*
X167127262Y-75279816D01*
X167254816Y-75152262D01*
X167324652Y-75041117D01*
X167376985Y-74994828D01*
X167446039Y-74984179D01*
X167509887Y-75012554D01*
X167534638Y-75041119D01*
X167620179Y-75177256D01*
X167620184Y-75177262D01*
X167747738Y-75304816D01*
X167900478Y-75400789D01*
X167991629Y-75432684D01*
X168070745Y-75460368D01*
X168070750Y-75460369D01*
X168249996Y-75480565D01*
X168250000Y-75480565D01*
X168250004Y-75480565D01*
X168429249Y-75460369D01*
X168429252Y-75460368D01*
X168429255Y-75460368D01*
X168599522Y-75400789D01*
X168752262Y-75304816D01*
X168879816Y-75177262D01*
X168975789Y-75024522D01*
X169035368Y-74854255D01*
X169035369Y-74854249D01*
X169055565Y-74675003D01*
X169055565Y-74674996D01*
X169035369Y-74495750D01*
X169035368Y-74495745D01*
X168992326Y-74372738D01*
X168975789Y-74325478D01*
X168960080Y-74300478D01*
X168925337Y-74245184D01*
X168879816Y-74172738D01*
X168752262Y-74045184D01*
X168712475Y-74020184D01*
X168599523Y-73949211D01*
X168429254Y-73889631D01*
X168429249Y-73889630D01*
X168250004Y-73869435D01*
X168249996Y-73869435D01*
X168070750Y-73889630D01*
X168070745Y-73889631D01*
X167900476Y-73949211D01*
X167747737Y-74045184D01*
X167620182Y-74172739D01*
X167550347Y-74283881D01*
X167498012Y-74330171D01*
X167428959Y-74340819D01*
X167365111Y-74312444D01*
X167340360Y-74283880D01*
X167270525Y-74172739D01*
X167254816Y-74147738D01*
X167127262Y-74020184D01*
X166974523Y-73924211D01*
X166804254Y-73864631D01*
X166804249Y-73864630D01*
X166625004Y-73844435D01*
X166624996Y-73844435D01*
X166445750Y-73864630D01*
X166445745Y-73864631D01*
X166275476Y-73924211D01*
X166122737Y-74020184D01*
X165995184Y-74147737D01*
X165899211Y-74300476D01*
X165839631Y-74470745D01*
X165839630Y-74470750D01*
X165819435Y-74649996D01*
X149244360Y-74649996D01*
X149220903Y-74582961D01*
X149200789Y-74525478D01*
X149199471Y-74523381D01*
X149104815Y-74372737D01*
X148977262Y-74245184D01*
X148824523Y-74149211D01*
X148654254Y-74089631D01*
X148654249Y-74089630D01*
X148475004Y-74069435D01*
X148474996Y-74069435D01*
X148295750Y-74089630D01*
X148295745Y-74089631D01*
X148125476Y-74149211D01*
X147972737Y-74245184D01*
X147845184Y-74372737D01*
X147749211Y-74525476D01*
X147689631Y-74695745D01*
X147689630Y-74695750D01*
X147669435Y-74874996D01*
X144571943Y-74874996D01*
X144554816Y-74847738D01*
X144427262Y-74720184D01*
X144355357Y-74675003D01*
X144274523Y-74624211D01*
X144104254Y-74564631D01*
X144104249Y-74564630D01*
X143925004Y-74544435D01*
X143924996Y-74544435D01*
X143745750Y-74564630D01*
X143745745Y-74564631D01*
X143575476Y-74624211D01*
X143422737Y-74720184D01*
X143345806Y-74797116D01*
X143284483Y-74830601D01*
X143214791Y-74825617D01*
X143170444Y-74797116D01*
X143052262Y-74678934D01*
X142899523Y-74582961D01*
X142729254Y-74523381D01*
X142729249Y-74523380D01*
X142550004Y-74503185D01*
X142549996Y-74503185D01*
X142370750Y-74523380D01*
X142370745Y-74523381D01*
X142200476Y-74582961D01*
X142047737Y-74678934D01*
X141920184Y-74806487D01*
X141824211Y-74959226D01*
X141764631Y-75129495D01*
X141764630Y-75129500D01*
X141744435Y-75308746D01*
X137508797Y-75308746D01*
X137510368Y-75304255D01*
X137513424Y-75277131D01*
X137530565Y-75125003D01*
X137530565Y-75124996D01*
X137510369Y-74945750D01*
X137510368Y-74945745D01*
X137476074Y-74847738D01*
X137450789Y-74775478D01*
X137354816Y-74622738D01*
X137227262Y-74495184D01*
X137188368Y-74470745D01*
X137074523Y-74399211D01*
X136904254Y-74339631D01*
X136904249Y-74339630D01*
X136725004Y-74319435D01*
X136724996Y-74319435D01*
X136545750Y-74339630D01*
X136545745Y-74339631D01*
X136375476Y-74399211D01*
X136222737Y-74495184D01*
X136095184Y-74622737D01*
X135999211Y-74775476D01*
X135939631Y-74945745D01*
X135939630Y-74945750D01*
X135919435Y-75124996D01*
X134930565Y-75124996D01*
X134910369Y-74945750D01*
X134910368Y-74945745D01*
X134876074Y-74847738D01*
X134850789Y-74775478D01*
X134754816Y-74622738D01*
X134627262Y-74495184D01*
X134588368Y-74470745D01*
X134474523Y-74399211D01*
X134304254Y-74339631D01*
X134304249Y-74339630D01*
X134125004Y-74319435D01*
X134124996Y-74319435D01*
X133945750Y-74339630D01*
X133945745Y-74339631D01*
X133775476Y-74399211D01*
X133622737Y-74495184D01*
X133495184Y-74622737D01*
X133399211Y-74775476D01*
X133339631Y-74945745D01*
X133339630Y-74945750D01*
X133319435Y-75124996D01*
X121500500Y-75124996D01*
X121500500Y-67874999D01*
X121804357Y-67874999D01*
X121804357Y-67875000D01*
X121824884Y-68096535D01*
X121824885Y-68096537D01*
X121885769Y-68310523D01*
X121885775Y-68310538D01*
X121984938Y-68509683D01*
X121984943Y-68509691D01*
X122119020Y-68687238D01*
X122283437Y-68837123D01*
X122283439Y-68837125D01*
X122472595Y-68954245D01*
X122472596Y-68954245D01*
X122472599Y-68954247D01*
X122666524Y-69029374D01*
X122721924Y-69071946D01*
X122745515Y-69137713D01*
X122729804Y-69205793D01*
X122679780Y-69254572D01*
X122666533Y-69260622D01*
X122564958Y-69299973D01*
X122472601Y-69335752D01*
X122472595Y-69335754D01*
X122283439Y-69452874D01*
X122283437Y-69452876D01*
X122119020Y-69602761D01*
X121984943Y-69780308D01*
X121984938Y-69780316D01*
X121885775Y-69979461D01*
X121885769Y-69979476D01*
X121824885Y-70193462D01*
X121824884Y-70193464D01*
X121804357Y-70414999D01*
X121804357Y-70415000D01*
X121824884Y-70636535D01*
X121824885Y-70636537D01*
X121885769Y-70850523D01*
X121885775Y-70850538D01*
X121984938Y-71049683D01*
X121984943Y-71049691D01*
X122119020Y-71227238D01*
X122283437Y-71377123D01*
X122283439Y-71377125D01*
X122334937Y-71409011D01*
X122381573Y-71461039D01*
X122392677Y-71530020D01*
X122374654Y-71580410D01*
X122299211Y-71700476D01*
X122239631Y-71870745D01*
X122239630Y-71870750D01*
X122219435Y-72049996D01*
X122219435Y-72050003D01*
X122239630Y-72229249D01*
X122239631Y-72229254D01*
X122299211Y-72399523D01*
X122362045Y-72499522D01*
X122395184Y-72552262D01*
X122522738Y-72679816D01*
X122675478Y-72775789D01*
X122686984Y-72779815D01*
X122845745Y-72835368D01*
X122845750Y-72835369D01*
X123024996Y-72855565D01*
X123025000Y-72855565D01*
X123025004Y-72855565D01*
X123204249Y-72835369D01*
X123204252Y-72835368D01*
X123204255Y-72835368D01*
X123374522Y-72775789D01*
X123527262Y-72679816D01*
X123654816Y-72552262D01*
X123750789Y-72399522D01*
X123810368Y-72229255D01*
X123810759Y-72225788D01*
X123830565Y-72050003D01*
X123830565Y-72049996D01*
X123810369Y-71870750D01*
X123810368Y-71870745D01*
X123795696Y-71828814D01*
X123750789Y-71700478D01*
X123666941Y-71567035D01*
X123647942Y-71499801D01*
X123668310Y-71432965D01*
X123706659Y-71395638D01*
X123736562Y-71377124D01*
X123900981Y-71227236D01*
X124035058Y-71049689D01*
X124134229Y-70850528D01*
X124195115Y-70636536D01*
X124215643Y-70415000D01*
X124195115Y-70193464D01*
X124134229Y-69979472D01*
X124131765Y-69974523D01*
X124035061Y-69780316D01*
X124035056Y-69780308D01*
X123900979Y-69602761D01*
X123736562Y-69452876D01*
X123736560Y-69452874D01*
X123547404Y-69335754D01*
X123547395Y-69335750D01*
X123453956Y-69299552D01*
X123353475Y-69260625D01*
X123298075Y-69218054D01*
X123274484Y-69152288D01*
X123290195Y-69084207D01*
X123340219Y-69035428D01*
X123353466Y-69029377D01*
X123547401Y-68954247D01*
X123736562Y-68837124D01*
X123900981Y-68687236D01*
X124035058Y-68509689D01*
X124134229Y-68310528D01*
X124195115Y-68096536D01*
X124215643Y-67875000D01*
X124210856Y-67823344D01*
X124195115Y-67653464D01*
X124195114Y-67653462D01*
X124182800Y-67610184D01*
X124134229Y-67439472D01*
X124131721Y-67434435D01*
X124035061Y-67240316D01*
X124035056Y-67240308D01*
X123900979Y-67062761D01*
X123746966Y-66922360D01*
X123710684Y-66862649D01*
X123712445Y-66792801D01*
X123725508Y-66764754D01*
X123750789Y-66724522D01*
X123810368Y-66554255D01*
X123810750Y-66550866D01*
X123830565Y-66375003D01*
X123830565Y-66374996D01*
X123810369Y-66195750D01*
X123810368Y-66195745D01*
X123794360Y-66149996D01*
X123750789Y-66025478D01*
X123654816Y-65872738D01*
X123527262Y-65745184D01*
X123495143Y-65725002D01*
X123374523Y-65649211D01*
X123204254Y-65589631D01*
X123204249Y-65589630D01*
X123025004Y-65569435D01*
X123024996Y-65569435D01*
X122845750Y-65589630D01*
X122845745Y-65589631D01*
X122675476Y-65649211D01*
X122522737Y-65745184D01*
X122395184Y-65872737D01*
X122299211Y-66025476D01*
X122239631Y-66195745D01*
X122239630Y-66195750D01*
X122219435Y-66374996D01*
X122219435Y-66375003D01*
X122239630Y-66554249D01*
X122239633Y-66554262D01*
X122299209Y-66724519D01*
X122313859Y-66747835D01*
X122332858Y-66815072D01*
X122312489Y-66881907D01*
X122287392Y-66908705D01*
X122287674Y-66909014D01*
X122283778Y-66912565D01*
X122283612Y-66912743D01*
X122283445Y-66912868D01*
X122119020Y-67062761D01*
X121984943Y-67240308D01*
X121984938Y-67240316D01*
X121885775Y-67439461D01*
X121885769Y-67439476D01*
X121824885Y-67653462D01*
X121824884Y-67653464D01*
X121804357Y-67874999D01*
X121500500Y-67874999D01*
X121500500Y-63374996D01*
X128305935Y-63374996D01*
X128305935Y-63375003D01*
X128326130Y-63554249D01*
X128326131Y-63554254D01*
X128385711Y-63724523D01*
X128456301Y-63836866D01*
X128481684Y-63877262D01*
X128609238Y-64004816D01*
X128614802Y-64008312D01*
X128704434Y-64064632D01*
X128761978Y-64100789D01*
X128860799Y-64135368D01*
X128932245Y-64160368D01*
X128932250Y-64160369D01*
X129111496Y-64180565D01*
X129111500Y-64180565D01*
X129111504Y-64180565D01*
X129290749Y-64160369D01*
X129290752Y-64160368D01*
X129290755Y-64160368D01*
X129461022Y-64100789D01*
X129613762Y-64004816D01*
X129741316Y-63877262D01*
X129837289Y-63724522D01*
X129896868Y-63554255D01*
X129897401Y-63549523D01*
X129917065Y-63375003D01*
X129917065Y-63374996D01*
X129896869Y-63195750D01*
X129896868Y-63195745D01*
X129873600Y-63129249D01*
X129837289Y-63025478D01*
X129821580Y-63000478D01*
X129789209Y-62948959D01*
X129741316Y-62872738D01*
X129613762Y-62745184D01*
X129573975Y-62720184D01*
X129461023Y-62649211D01*
X129290754Y-62589631D01*
X129290749Y-62589630D01*
X129111504Y-62569435D01*
X129111496Y-62569435D01*
X128932250Y-62589630D01*
X128932245Y-62589631D01*
X128761976Y-62649211D01*
X128609237Y-62745184D01*
X128481684Y-62872737D01*
X128385711Y-63025476D01*
X128326131Y-63195745D01*
X128326130Y-63195750D01*
X128305935Y-63374996D01*
X121500500Y-63374996D01*
X121500500Y-57020943D01*
X126574500Y-57020943D01*
X126574500Y-57179057D01*
X126613734Y-57325478D01*
X126615423Y-57331783D01*
X126615426Y-57331790D01*
X126694475Y-57468709D01*
X126694479Y-57468714D01*
X126694480Y-57468716D01*
X126806284Y-57580520D01*
X126806286Y-57580521D01*
X126806290Y-57580524D01*
X126912345Y-57641754D01*
X126943216Y-57659577D01*
X127095943Y-57700500D01*
X127399903Y-57700500D01*
X127466942Y-57720185D01*
X127487584Y-57736819D01*
X131789955Y-62039190D01*
X131823440Y-62100513D01*
X131818456Y-62170205D01*
X131776584Y-62226138D01*
X131711120Y-62250555D01*
X131688391Y-62250091D01*
X131651504Y-62245935D01*
X131651496Y-62245935D01*
X131472250Y-62266130D01*
X131472245Y-62266131D01*
X131301976Y-62325711D01*
X131149237Y-62421684D01*
X131021684Y-62549237D01*
X130925711Y-62701976D01*
X130866131Y-62872245D01*
X130866130Y-62872250D01*
X130845935Y-63051496D01*
X130845935Y-63051503D01*
X130866130Y-63230749D01*
X130866131Y-63230754D01*
X130925711Y-63401023D01*
X131006285Y-63529255D01*
X131021684Y-63553762D01*
X131149238Y-63681316D01*
X131301978Y-63777289D01*
X131408278Y-63814485D01*
X131472245Y-63836868D01*
X131472250Y-63836869D01*
X131651496Y-63857065D01*
X131651500Y-63857065D01*
X131651504Y-63857065D01*
X131830749Y-63836869D01*
X131830751Y-63836868D01*
X131830755Y-63836868D01*
X131830758Y-63836866D01*
X131830762Y-63836866D01*
X131884545Y-63818047D01*
X131954324Y-63814485D01*
X132014951Y-63849213D01*
X132047179Y-63911207D01*
X132049500Y-63935088D01*
X132049500Y-70128316D01*
X132029815Y-70195355D01*
X131977011Y-70241110D01*
X131907853Y-70251054D01*
X131844297Y-70222029D01*
X131806523Y-70163251D01*
X131806234Y-70162250D01*
X131754230Y-69979476D01*
X131754229Y-69979472D01*
X131751765Y-69974523D01*
X131655061Y-69780316D01*
X131655056Y-69780308D01*
X131520979Y-69602761D01*
X131356562Y-69452876D01*
X131356560Y-69452874D01*
X131167404Y-69335754D01*
X131167398Y-69335751D01*
X131075042Y-69299973D01*
X131019641Y-69257400D01*
X130996050Y-69191633D01*
X131011761Y-69123553D01*
X131061785Y-69074774D01*
X131075040Y-69068720D01*
X131112401Y-69054247D01*
X131301562Y-68937124D01*
X131465981Y-68787236D01*
X131600058Y-68609689D01*
X131699229Y-68410528D01*
X131760115Y-68196536D01*
X131780643Y-67975000D01*
X131780230Y-67970548D01*
X131760115Y-67753464D01*
X131760114Y-67753462D01*
X131755640Y-67737738D01*
X131699229Y-67539472D01*
X131694867Y-67530711D01*
X131600061Y-67340316D01*
X131600056Y-67340308D01*
X131465979Y-67162761D01*
X131301562Y-67012876D01*
X131301560Y-67012874D01*
X131152196Y-66920393D01*
X131105560Y-66868366D01*
X131094456Y-66799384D01*
X131122409Y-66735349D01*
X131129770Y-66727307D01*
X131204816Y-66652262D01*
X131300789Y-66499522D01*
X131360368Y-66329255D01*
X131360369Y-66329249D01*
X131380565Y-66150003D01*
X131380565Y-66149996D01*
X131360369Y-65970750D01*
X131360368Y-65970745D01*
X131326074Y-65872738D01*
X131300789Y-65800478D01*
X131204816Y-65647738D01*
X131077262Y-65520184D01*
X131013017Y-65479816D01*
X130924523Y-65424211D01*
X130754254Y-65364631D01*
X130754249Y-65364630D01*
X130575004Y-65344435D01*
X130574996Y-65344435D01*
X130395750Y-65364630D01*
X130395745Y-65364631D01*
X130225476Y-65424211D01*
X130072737Y-65520184D01*
X129945184Y-65647737D01*
X129849211Y-65800476D01*
X129789631Y-65970745D01*
X129789630Y-65970750D01*
X129769435Y-66149996D01*
X129769435Y-66150003D01*
X129789630Y-66329249D01*
X129789631Y-66329254D01*
X129849211Y-66499523D01*
X129945184Y-66652262D01*
X130020207Y-66727285D01*
X130053692Y-66788608D01*
X130048708Y-66858300D01*
X130006836Y-66914233D01*
X129997803Y-66920393D01*
X129848439Y-67012874D01*
X129848437Y-67012876D01*
X129684020Y-67162761D01*
X129549943Y-67340308D01*
X129549938Y-67340316D01*
X129461019Y-67518888D01*
X129413515Y-67570125D01*
X129345852Y-67587546D01*
X129279512Y-67565620D01*
X129235557Y-67511308D01*
X129230759Y-67497569D01*
X129214229Y-67439472D01*
X129211721Y-67434435D01*
X129115061Y-67240316D01*
X129115056Y-67240308D01*
X128980979Y-67062761D01*
X128816562Y-66912876D01*
X128816560Y-66912874D01*
X128627404Y-66795754D01*
X128627398Y-66795752D01*
X128619781Y-66792801D01*
X128419940Y-66715382D01*
X128201243Y-66674500D01*
X127978757Y-66674500D01*
X127760060Y-66715382D01*
X127632627Y-66764750D01*
X127552601Y-66795752D01*
X127552595Y-66795754D01*
X127363439Y-66912874D01*
X127363437Y-66912876D01*
X127199020Y-67062761D01*
X127064943Y-67240308D01*
X127064938Y-67240316D01*
X126965775Y-67439461D01*
X126965769Y-67439476D01*
X126904885Y-67653462D01*
X126904884Y-67653464D01*
X126884357Y-67874999D01*
X126884357Y-67875000D01*
X126904884Y-68096535D01*
X126904885Y-68096537D01*
X126965769Y-68310523D01*
X126965775Y-68310538D01*
X127064938Y-68509683D01*
X127064943Y-68509691D01*
X127199020Y-68687238D01*
X127363437Y-68837123D01*
X127363439Y-68837125D01*
X127552595Y-68954245D01*
X127552596Y-68954245D01*
X127552599Y-68954247D01*
X127746524Y-69029374D01*
X127801924Y-69071946D01*
X127825515Y-69137713D01*
X127809804Y-69205793D01*
X127759780Y-69254572D01*
X127746533Y-69260622D01*
X127644958Y-69299973D01*
X127552601Y-69335752D01*
X127552595Y-69335754D01*
X127363439Y-69452874D01*
X127363437Y-69452876D01*
X127199020Y-69602761D01*
X127064943Y-69780308D01*
X127064938Y-69780316D01*
X126965775Y-69979461D01*
X126965769Y-69979476D01*
X126904885Y-70193462D01*
X126904884Y-70193464D01*
X126884357Y-70414999D01*
X126884357Y-70415000D01*
X126904884Y-70636535D01*
X126904885Y-70636537D01*
X126965769Y-70850523D01*
X126965775Y-70850538D01*
X127064938Y-71049683D01*
X127064943Y-71049691D01*
X127199020Y-71227238D01*
X127363437Y-71377123D01*
X127363439Y-71377125D01*
X127478834Y-71448574D01*
X127525470Y-71500602D01*
X127536574Y-71569583D01*
X127508621Y-71633618D01*
X127501242Y-71641678D01*
X127495186Y-71647734D01*
X127399211Y-71800476D01*
X127339631Y-71970745D01*
X127339630Y-71970750D01*
X127319435Y-72149996D01*
X127319435Y-72150003D01*
X127339630Y-72329249D01*
X127339631Y-72329254D01*
X127399211Y-72499523D01*
X127433598Y-72554249D01*
X127495184Y-72652262D01*
X127622738Y-72779816D01*
X127775478Y-72875789D01*
X127945745Y-72935368D01*
X128032669Y-72945161D01*
X128097080Y-72972226D01*
X128106465Y-72980700D01*
X128190139Y-73064374D01*
X128190149Y-73064385D01*
X128194479Y-73068715D01*
X128194480Y-73068716D01*
X128306284Y-73180520D01*
X128306286Y-73180521D01*
X128306290Y-73180524D01*
X128443209Y-73259573D01*
X128443216Y-73259577D01*
X128555019Y-73289534D01*
X128595942Y-73300500D01*
X128595943Y-73300500D01*
X137788331Y-73300500D01*
X137788347Y-73300501D01*
X137795943Y-73300501D01*
X137954054Y-73300501D01*
X137954057Y-73300501D01*
X138106785Y-73259577D01*
X138156904Y-73230639D01*
X138243716Y-73180520D01*
X138355520Y-73068716D01*
X138355520Y-73068714D01*
X138365728Y-73058507D01*
X138365730Y-73058504D01*
X139328564Y-72095669D01*
X139389885Y-72062186D01*
X139459577Y-72067170D01*
X139515510Y-72109042D01*
X139539927Y-72174506D01*
X139539463Y-72197235D01*
X139519435Y-72374996D01*
X139519435Y-72375003D01*
X139539630Y-72554249D01*
X139539631Y-72554254D01*
X139599211Y-72724523D01*
X139668860Y-72835368D01*
X139695184Y-72877262D01*
X139822738Y-73004816D01*
X139975478Y-73100789D01*
X140145745Y-73160368D01*
X140145750Y-73160369D01*
X140324996Y-73180565D01*
X140325000Y-73180565D01*
X140325004Y-73180565D01*
X140504249Y-73160369D01*
X140504252Y-73160368D01*
X140504255Y-73160368D01*
X140674522Y-73100789D01*
X140827262Y-73004816D01*
X140954816Y-72877262D01*
X141050789Y-72724522D01*
X141110368Y-72554255D01*
X141110691Y-72551384D01*
X141111418Y-72549653D01*
X141111918Y-72547466D01*
X141112300Y-72547553D01*
X141137752Y-72486972D01*
X141195343Y-72447412D01*
X141220030Y-72442041D01*
X141279252Y-72435369D01*
X141306633Y-72425788D01*
X141449522Y-72375789D01*
X141602262Y-72279816D01*
X141729816Y-72152262D01*
X141825789Y-71999522D01*
X141885368Y-71829255D01*
X141885418Y-71828811D01*
X141899932Y-71699996D01*
X150869435Y-71699996D01*
X150869435Y-71700003D01*
X150889630Y-71879249D01*
X150889631Y-71879254D01*
X150949211Y-72049523D01*
X151012347Y-72150003D01*
X151045184Y-72202262D01*
X151172738Y-72329816D01*
X151325478Y-72425789D01*
X151403563Y-72453112D01*
X151495745Y-72485368D01*
X151495750Y-72485369D01*
X151674996Y-72505565D01*
X151675000Y-72505565D01*
X151675004Y-72505565D01*
X151854249Y-72485369D01*
X151854252Y-72485368D01*
X151854255Y-72485368D01*
X152024522Y-72425789D01*
X152177262Y-72329816D01*
X152304816Y-72202262D01*
X152400789Y-72049522D01*
X152460368Y-71879255D01*
X152460369Y-71879249D01*
X152480565Y-71700003D01*
X152480565Y-71699996D01*
X152460369Y-71520750D01*
X152460368Y-71520745D01*
X152453108Y-71499996D01*
X155344435Y-71499996D01*
X155344435Y-71500003D01*
X155364630Y-71679249D01*
X155364631Y-71679254D01*
X155424211Y-71849523D01*
X155500383Y-71970749D01*
X155520184Y-72002262D01*
X155647738Y-72129816D01*
X155800478Y-72225789D01*
X155954878Y-72279816D01*
X155970745Y-72285368D01*
X155970750Y-72285369D01*
X156149996Y-72305565D01*
X156150000Y-72305565D01*
X156150004Y-72305565D01*
X156329249Y-72285369D01*
X156329252Y-72285368D01*
X156329255Y-72285368D01*
X156499522Y-72225789D01*
X156652262Y-72129816D01*
X156779816Y-72002262D01*
X156875789Y-71849522D01*
X156935368Y-71679255D01*
X156938664Y-71650003D01*
X156955565Y-71500003D01*
X156955565Y-71499996D01*
X156935369Y-71320750D01*
X156935368Y-71320745D01*
X156928276Y-71300476D01*
X156875789Y-71150478D01*
X156874067Y-71147738D01*
X156795656Y-71022947D01*
X156779816Y-70997738D01*
X156652262Y-70870184D01*
X156643426Y-70864632D01*
X156499523Y-70774211D01*
X156329254Y-70714631D01*
X156329249Y-70714630D01*
X156150004Y-70694435D01*
X156149996Y-70694435D01*
X155970750Y-70714630D01*
X155970745Y-70714631D01*
X155800476Y-70774211D01*
X155647737Y-70870184D01*
X155520184Y-70997737D01*
X155424211Y-71150476D01*
X155364631Y-71320745D01*
X155364630Y-71320750D01*
X155344435Y-71499996D01*
X152453108Y-71499996D01*
X152431657Y-71438694D01*
X152400789Y-71350478D01*
X152382106Y-71320745D01*
X152304815Y-71197737D01*
X152177262Y-71070184D01*
X152024523Y-70974211D01*
X151854254Y-70914631D01*
X151854249Y-70914630D01*
X151675004Y-70894435D01*
X151674996Y-70894435D01*
X151495750Y-70914630D01*
X151495745Y-70914631D01*
X151325476Y-70974211D01*
X151172737Y-71070184D01*
X151045184Y-71197737D01*
X150949211Y-71350476D01*
X150889631Y-71520745D01*
X150889630Y-71520750D01*
X150869435Y-71699996D01*
X141899932Y-71699996D01*
X141905565Y-71650003D01*
X141905565Y-71649996D01*
X141885369Y-71470750D01*
X141885368Y-71470745D01*
X141863766Y-71409011D01*
X141825789Y-71300478D01*
X141816212Y-71285237D01*
X141736065Y-71157684D01*
X141729816Y-71147738D01*
X141602262Y-71020184D01*
X141598761Y-71017984D01*
X141449523Y-70924211D01*
X141279254Y-70864631D01*
X141279249Y-70864630D01*
X141100004Y-70844435D01*
X141099996Y-70844435D01*
X140920750Y-70864630D01*
X140920742Y-70864632D01*
X140878004Y-70879587D01*
X140808225Y-70883148D01*
X140747598Y-70848419D01*
X140715371Y-70786425D01*
X140721777Y-70716850D01*
X140749367Y-70674866D01*
X141799237Y-69624996D01*
X156794435Y-69624996D01*
X156794435Y-69625003D01*
X156814630Y-69804249D01*
X156814631Y-69804254D01*
X156874211Y-69974523D01*
X156957205Y-70106606D01*
X156970184Y-70127262D01*
X157097738Y-70254816D01*
X157250478Y-70350789D01*
X157420745Y-70410368D01*
X157420750Y-70410369D01*
X157599996Y-70430565D01*
X157600000Y-70430565D01*
X157600004Y-70430565D01*
X157779249Y-70410369D01*
X157779252Y-70410368D01*
X157779255Y-70410368D01*
X157949522Y-70350789D01*
X158102262Y-70254816D01*
X158229816Y-70127262D01*
X158325789Y-69974522D01*
X158385368Y-69804255D01*
X158385369Y-69804249D01*
X158405565Y-69625003D01*
X158405565Y-69624996D01*
X158385369Y-69445750D01*
X158385368Y-69445745D01*
X158325788Y-69275476D01*
X158273106Y-69191633D01*
X158229816Y-69122738D01*
X158102262Y-68995184D01*
X158055479Y-68965788D01*
X157949523Y-68899211D01*
X157779254Y-68839631D01*
X157779249Y-68839630D01*
X157600004Y-68819435D01*
X157599996Y-68819435D01*
X157420750Y-68839630D01*
X157420745Y-68839631D01*
X157250476Y-68899211D01*
X157097737Y-68995184D01*
X156970184Y-69122737D01*
X156874211Y-69275476D01*
X156814631Y-69445745D01*
X156814630Y-69445750D01*
X156794435Y-69624996D01*
X141799237Y-69624996D01*
X143184237Y-68239996D01*
X145039435Y-68239996D01*
X145039435Y-68240003D01*
X145059630Y-68419249D01*
X145059631Y-68419254D01*
X145119211Y-68589523D01*
X145180609Y-68687236D01*
X145215184Y-68742262D01*
X145342738Y-68869816D01*
X145389520Y-68899211D01*
X145449859Y-68937125D01*
X145495478Y-68965789D01*
X145665745Y-69025368D01*
X145665750Y-69025369D01*
X145844996Y-69045565D01*
X145845000Y-69045565D01*
X145845004Y-69045565D01*
X146024249Y-69025369D01*
X146024252Y-69025368D01*
X146024255Y-69025368D01*
X146194522Y-68965789D01*
X146347262Y-68869816D01*
X146474816Y-68742262D01*
X146570789Y-68589522D01*
X146630368Y-68419255D01*
X146631350Y-68410538D01*
X146650565Y-68240003D01*
X146650565Y-68239996D01*
X146630369Y-68060750D01*
X146630368Y-68060745D01*
X146601156Y-67977262D01*
X146570789Y-67890478D01*
X146474816Y-67737738D01*
X146347262Y-67610184D01*
X146283509Y-67570125D01*
X146194523Y-67514211D01*
X146082454Y-67474996D01*
X150444435Y-67474996D01*
X150444435Y-67475003D01*
X150464630Y-67654249D01*
X150464631Y-67654254D01*
X150524211Y-67824523D01*
X150565654Y-67890478D01*
X150620184Y-67977262D01*
X150747738Y-68104816D01*
X150838080Y-68161582D01*
X150893707Y-68196535D01*
X150900478Y-68200789D01*
X151012525Y-68239996D01*
X151070745Y-68260368D01*
X151070750Y-68260369D01*
X151249996Y-68280565D01*
X151250000Y-68280565D01*
X151250004Y-68280565D01*
X151429249Y-68260369D01*
X151429252Y-68260368D01*
X151429255Y-68260368D01*
X151599522Y-68200789D01*
X151752262Y-68104816D01*
X151879816Y-67977262D01*
X151975789Y-67824522D01*
X152035368Y-67654255D01*
X152035457Y-67653464D01*
X152055565Y-67475003D01*
X152055565Y-67474996D01*
X152035369Y-67295750D01*
X152035368Y-67295745D01*
X152018523Y-67247605D01*
X151975789Y-67125478D01*
X151879816Y-66972738D01*
X151752262Y-66845184D01*
X151673595Y-66795754D01*
X151599523Y-66749211D01*
X151429254Y-66689631D01*
X151429249Y-66689630D01*
X151250004Y-66669435D01*
X151249996Y-66669435D01*
X151070750Y-66689630D01*
X151070745Y-66689631D01*
X150900476Y-66749211D01*
X150747737Y-66845184D01*
X150620184Y-66972737D01*
X150524211Y-67125476D01*
X150464631Y-67295745D01*
X150464630Y-67295750D01*
X150444435Y-67474996D01*
X146082454Y-67474996D01*
X146024254Y-67454631D01*
X146024249Y-67454630D01*
X145845004Y-67434435D01*
X145844996Y-67434435D01*
X145665750Y-67454630D01*
X145665745Y-67454631D01*
X145495476Y-67514211D01*
X145342737Y-67610184D01*
X145215184Y-67737737D01*
X145119211Y-67890476D01*
X145059631Y-68060745D01*
X145059630Y-68060750D01*
X145039435Y-68239996D01*
X143184237Y-68239996D01*
X145699237Y-65724996D01*
X151369435Y-65724996D01*
X151369435Y-65725003D01*
X151389630Y-65904249D01*
X151389631Y-65904254D01*
X151449211Y-66074523D01*
X151525384Y-66195750D01*
X151545184Y-66227262D01*
X151672738Y-66354816D01*
X151825478Y-66450789D01*
X151964749Y-66499522D01*
X151995745Y-66510368D01*
X151995750Y-66510369D01*
X152114954Y-66523800D01*
X152179368Y-66550866D01*
X152218923Y-66608461D01*
X152224291Y-66660903D01*
X152214778Y-66745338D01*
X152214778Y-66745346D01*
X152234973Y-66924592D01*
X152234974Y-66924597D01*
X152294554Y-67094866D01*
X152376083Y-67224617D01*
X152390527Y-67247605D01*
X152518081Y-67375159D01*
X152670821Y-67471132D01*
X152793934Y-67514211D01*
X152841088Y-67530711D01*
X152841093Y-67530712D01*
X153020339Y-67550908D01*
X153020343Y-67550908D01*
X153020347Y-67550908D01*
X153199592Y-67530712D01*
X153199595Y-67530711D01*
X153199598Y-67530711D01*
X153369865Y-67471132D01*
X153522605Y-67375159D01*
X153650159Y-67247605D01*
X153746132Y-67094865D01*
X153805711Y-66924598D01*
X153812047Y-66868366D01*
X153825908Y-66745346D01*
X153825908Y-66745339D01*
X153805712Y-66566093D01*
X153805711Y-66566088D01*
X153782419Y-66499523D01*
X153746132Y-66395821D01*
X153650159Y-66243081D01*
X153542336Y-66135258D01*
X163132500Y-66135258D01*
X163132500Y-66364741D01*
X163153214Y-66522072D01*
X163162452Y-66592238D01*
X163200798Y-66735349D01*
X163221842Y-66813887D01*
X163309650Y-67025876D01*
X163309657Y-67025890D01*
X163424392Y-67224617D01*
X163564081Y-67406661D01*
X163564089Y-67406670D01*
X163726330Y-67568911D01*
X163726338Y-67568918D01*
X163908382Y-67708607D01*
X163908385Y-67708608D01*
X163908388Y-67708611D01*
X164107112Y-67823344D01*
X164107117Y-67823346D01*
X164107123Y-67823349D01*
X164198480Y-67861190D01*
X164319113Y-67911158D01*
X164540762Y-67970548D01*
X164768266Y-68000500D01*
X164768273Y-68000500D01*
X164997727Y-68000500D01*
X164997734Y-68000500D01*
X165225238Y-67970548D01*
X165446887Y-67911158D01*
X165658888Y-67823344D01*
X165857612Y-67708611D01*
X166039661Y-67568919D01*
X166039665Y-67568914D01*
X166039670Y-67568911D01*
X166201911Y-67406670D01*
X166201914Y-67406665D01*
X166201919Y-67406661D01*
X166341611Y-67224612D01*
X166456344Y-67025888D01*
X166544158Y-66813887D01*
X166603548Y-66592238D01*
X166633500Y-66364734D01*
X166633500Y-66135266D01*
X166603548Y-65907762D01*
X166544158Y-65686113D01*
X166486018Y-65545750D01*
X166456349Y-65474123D01*
X166456346Y-65474117D01*
X166456344Y-65474112D01*
X166341611Y-65275388D01*
X166341608Y-65275385D01*
X166341607Y-65275382D01*
X166240764Y-65143962D01*
X166201919Y-65093339D01*
X166201918Y-65093338D01*
X166201911Y-65093330D01*
X166039670Y-64931089D01*
X166039661Y-64931081D01*
X165857617Y-64791392D01*
X165658890Y-64676657D01*
X165658876Y-64676650D01*
X165446887Y-64588842D01*
X165394865Y-64574903D01*
X165225238Y-64529452D01*
X165187215Y-64524446D01*
X164997741Y-64499500D01*
X164997734Y-64499500D01*
X164768266Y-64499500D01*
X164768258Y-64499500D01*
X164551715Y-64528009D01*
X164540762Y-64529452D01*
X164447076Y-64554554D01*
X164319112Y-64588842D01*
X164107123Y-64676650D01*
X164107109Y-64676657D01*
X163908382Y-64791392D01*
X163726338Y-64931081D01*
X163564081Y-65093338D01*
X163424392Y-65275382D01*
X163309657Y-65474109D01*
X163309650Y-65474123D01*
X163221842Y-65686112D01*
X163162453Y-65907759D01*
X163162451Y-65907770D01*
X163132500Y-66135258D01*
X153542336Y-66135258D01*
X153522605Y-66115527D01*
X153457346Y-66074522D01*
X153369866Y-66019554D01*
X153199597Y-65959974D01*
X153199593Y-65959973D01*
X153080387Y-65946542D01*
X153015973Y-65919475D01*
X152976418Y-65861880D01*
X152971051Y-65809438D01*
X152980565Y-65725002D01*
X152980565Y-65724996D01*
X152960369Y-65545750D01*
X152960368Y-65545745D01*
X152935306Y-65474123D01*
X152900789Y-65375478D01*
X152893973Y-65364631D01*
X152828461Y-65260369D01*
X152804816Y-65222738D01*
X152677262Y-65095184D01*
X152572337Y-65029255D01*
X152524523Y-64999211D01*
X152354254Y-64939631D01*
X152354249Y-64939630D01*
X152175004Y-64919435D01*
X152174996Y-64919435D01*
X151995750Y-64939630D01*
X151995745Y-64939631D01*
X151825476Y-64999211D01*
X151672737Y-65095184D01*
X151545184Y-65222737D01*
X151449211Y-65375476D01*
X151389631Y-65545745D01*
X151389630Y-65545750D01*
X151369435Y-65724996D01*
X145699237Y-65724996D01*
X146008398Y-65415835D01*
X146069719Y-65382352D01*
X146139411Y-65387336D01*
X146183758Y-65415836D01*
X146247738Y-65479816D01*
X146352663Y-65545745D01*
X146390365Y-65569435D01*
X146400478Y-65575789D01*
X146570745Y-65635368D01*
X146570750Y-65635369D01*
X146749996Y-65655565D01*
X146750000Y-65655565D01*
X146750004Y-65655565D01*
X146929249Y-65635369D01*
X146929252Y-65635368D01*
X146929255Y-65635368D01*
X147099522Y-65575789D01*
X147252262Y-65479816D01*
X147379816Y-65352262D01*
X147475789Y-65199522D01*
X147535368Y-65029255D01*
X147545466Y-64939631D01*
X147555565Y-64850003D01*
X147555565Y-64849996D01*
X147535369Y-64670750D01*
X147535368Y-64670745D01*
X147475788Y-64500476D01*
X147459778Y-64474996D01*
X155944435Y-64474996D01*
X155944435Y-64475003D01*
X155964630Y-64654249D01*
X155964631Y-64654254D01*
X156024211Y-64824523D01*
X156096538Y-64939630D01*
X156120184Y-64977262D01*
X156247738Y-65104816D01*
X156338080Y-65161582D01*
X156398461Y-65199522D01*
X156400478Y-65200789D01*
X156463202Y-65222737D01*
X156570745Y-65260368D01*
X156570750Y-65260369D01*
X156749996Y-65280565D01*
X156750000Y-65280565D01*
X156750004Y-65280565D01*
X156929249Y-65260369D01*
X156929252Y-65260368D01*
X156929255Y-65260368D01*
X157099522Y-65200789D01*
X157252262Y-65104816D01*
X157379816Y-64977262D01*
X157475789Y-64824522D01*
X157535368Y-64654255D01*
X157535369Y-64654249D01*
X157555565Y-64475003D01*
X157555565Y-64474996D01*
X157535369Y-64295750D01*
X157535368Y-64295745D01*
X157487998Y-64160369D01*
X157475789Y-64125478D01*
X157379816Y-63972738D01*
X157252262Y-63845184D01*
X157227804Y-63829816D01*
X157099523Y-63749211D01*
X156929254Y-63689631D01*
X156929249Y-63689630D01*
X156750004Y-63669435D01*
X156749996Y-63669435D01*
X156570750Y-63689630D01*
X156570745Y-63689631D01*
X156400476Y-63749211D01*
X156247737Y-63845184D01*
X156120184Y-63972737D01*
X156024211Y-64125476D01*
X155964631Y-64295745D01*
X155964630Y-64295750D01*
X155944435Y-64474996D01*
X147459778Y-64474996D01*
X147379815Y-64347737D01*
X147252262Y-64220184D01*
X147099523Y-64124211D01*
X146929254Y-64064631D01*
X146929249Y-64064630D01*
X146750004Y-64044435D01*
X146749996Y-64044435D01*
X146570750Y-64064630D01*
X146570742Y-64064632D01*
X146465454Y-64101474D01*
X146395675Y-64105035D01*
X146335048Y-64070306D01*
X146302821Y-64008312D01*
X146300500Y-63984432D01*
X146300500Y-62949996D01*
X152244435Y-62949996D01*
X152244435Y-62950003D01*
X152264630Y-63129249D01*
X152264631Y-63129254D01*
X152324211Y-63299523D01*
X152385673Y-63397338D01*
X152420184Y-63452262D01*
X152547738Y-63579816D01*
X152620902Y-63625788D01*
X152690365Y-63669435D01*
X152700478Y-63675789D01*
X152785573Y-63705565D01*
X152870745Y-63735368D01*
X152870750Y-63735369D01*
X153049996Y-63755565D01*
X153050000Y-63755565D01*
X153050004Y-63755565D01*
X153229249Y-63735369D01*
X153229252Y-63735368D01*
X153229255Y-63735368D01*
X153399522Y-63675789D01*
X153552262Y-63579816D01*
X153679816Y-63452262D01*
X153775789Y-63299522D01*
X153835368Y-63129255D01*
X153841002Y-63079254D01*
X153855565Y-62950003D01*
X153855565Y-62949996D01*
X153835369Y-62770750D01*
X153835368Y-62770745D01*
X153792841Y-62649211D01*
X153775789Y-62600478D01*
X153768973Y-62589631D01*
X153727601Y-62523787D01*
X153696943Y-62474996D01*
X155994435Y-62474996D01*
X155994435Y-62475003D01*
X156014630Y-62654249D01*
X156014631Y-62654254D01*
X156074211Y-62824523D01*
X156121637Y-62900000D01*
X156170184Y-62977262D01*
X156297738Y-63104816D01*
X156388080Y-63161582D01*
X156442450Y-63195745D01*
X156450478Y-63200789D01*
X156536099Y-63230749D01*
X156620745Y-63260368D01*
X156620750Y-63260369D01*
X156799996Y-63280565D01*
X156800000Y-63280565D01*
X156800004Y-63280565D01*
X156979249Y-63260369D01*
X156979252Y-63260368D01*
X156979255Y-63260368D01*
X157149522Y-63200789D01*
X157302262Y-63104816D01*
X157429816Y-62977262D01*
X157447602Y-62948955D01*
X157499931Y-62902667D01*
X157568984Y-62892016D01*
X157593549Y-62897887D01*
X157770002Y-62959631D01*
X157770008Y-62959632D01*
X157770010Y-62959633D01*
X157770011Y-62959633D01*
X157770015Y-62959634D01*
X157949261Y-62979830D01*
X157949265Y-62979830D01*
X157949269Y-62979830D01*
X158128514Y-62959634D01*
X158128517Y-62959633D01*
X158128520Y-62959633D01*
X158298787Y-62900054D01*
X158451527Y-62804081D01*
X158579081Y-62676527D01*
X158675054Y-62523787D01*
X158734633Y-62353520D01*
X158734634Y-62353514D01*
X158754830Y-62174268D01*
X158754830Y-62174261D01*
X158734634Y-61995015D01*
X158734633Y-61995010D01*
X158690707Y-61869478D01*
X158675054Y-61824743D01*
X158579081Y-61672003D01*
X158451527Y-61544449D01*
X158397289Y-61510369D01*
X158298788Y-61448476D01*
X158128519Y-61388896D01*
X158128514Y-61388895D01*
X157949269Y-61368700D01*
X157949261Y-61368700D01*
X157770015Y-61388895D01*
X157770010Y-61388896D01*
X157599741Y-61448476D01*
X157447002Y-61544449D01*
X157319447Y-61672004D01*
X157319443Y-61672009D01*
X157301661Y-61700309D01*
X157249326Y-61746599D01*
X157180272Y-61757246D01*
X157155715Y-61751377D01*
X156979257Y-61689632D01*
X156979249Y-61689630D01*
X156800004Y-61669435D01*
X156799996Y-61669435D01*
X156620750Y-61689630D01*
X156620745Y-61689631D01*
X156450476Y-61749211D01*
X156297737Y-61845184D01*
X156170184Y-61972737D01*
X156074211Y-62125476D01*
X156014631Y-62295745D01*
X156014630Y-62295750D01*
X155994435Y-62474996D01*
X153696943Y-62474996D01*
X153679816Y-62447738D01*
X153552262Y-62320184D01*
X153473899Y-62270945D01*
X153399523Y-62224211D01*
X153229254Y-62164631D01*
X153229249Y-62164630D01*
X153050004Y-62144435D01*
X153049996Y-62144435D01*
X152870750Y-62164630D01*
X152870745Y-62164631D01*
X152700476Y-62224211D01*
X152547737Y-62320184D01*
X152420184Y-62447737D01*
X152324211Y-62600476D01*
X152264631Y-62770745D01*
X152264630Y-62770750D01*
X152244435Y-62949996D01*
X146300500Y-62949996D01*
X146300500Y-62650096D01*
X146320185Y-62583057D01*
X146336814Y-62562420D01*
X148174238Y-60724996D01*
X153619435Y-60724996D01*
X153619435Y-60725003D01*
X153639630Y-60904249D01*
X153639631Y-60904254D01*
X153699211Y-61074523D01*
X153795184Y-61227262D01*
X153922738Y-61354816D01*
X154075478Y-61450789D01*
X154245745Y-61510368D01*
X154245750Y-61510369D01*
X154424996Y-61530565D01*
X154425000Y-61530565D01*
X154425004Y-61530565D01*
X154604249Y-61510369D01*
X154604252Y-61510368D01*
X154604255Y-61510368D01*
X154774522Y-61450789D01*
X154927262Y-61354816D01*
X155054816Y-61227262D01*
X155150789Y-61074522D01*
X155210368Y-60904255D01*
X155230565Y-60725000D01*
X155210368Y-60545745D01*
X155150789Y-60375478D01*
X155054816Y-60222738D01*
X154927262Y-60095184D01*
X154774523Y-59999211D01*
X154604254Y-59939631D01*
X154604249Y-59939630D01*
X154425004Y-59919435D01*
X154424996Y-59919435D01*
X154245750Y-59939630D01*
X154245745Y-59939631D01*
X154075476Y-59999211D01*
X153922737Y-60095184D01*
X153795184Y-60222737D01*
X153699211Y-60375476D01*
X153639631Y-60545745D01*
X153639630Y-60545750D01*
X153619435Y-60724996D01*
X148174238Y-60724996D01*
X150948602Y-57950631D01*
X151009923Y-57917148D01*
X151079615Y-57922132D01*
X151135548Y-57964004D01*
X151147997Y-57984504D01*
X151149206Y-57987016D01*
X151245184Y-58139762D01*
X151372738Y-58267316D01*
X151525478Y-58363289D01*
X151632644Y-58400788D01*
X151695745Y-58422868D01*
X151695750Y-58422869D01*
X151874996Y-58443065D01*
X151875000Y-58443065D01*
X151875004Y-58443065D01*
X152054249Y-58422869D01*
X152054252Y-58422868D01*
X152054255Y-58422868D01*
X152224522Y-58363289D01*
X152377262Y-58267316D01*
X152504816Y-58139762D01*
X152600789Y-57987022D01*
X152660368Y-57816755D01*
X152660901Y-57812023D01*
X152680565Y-57637503D01*
X152680565Y-57637496D01*
X152660847Y-57462496D01*
X155119435Y-57462496D01*
X155119435Y-57462503D01*
X155139630Y-57641749D01*
X155139631Y-57641754D01*
X155199211Y-57812023D01*
X155265266Y-57917148D01*
X155295184Y-57964762D01*
X155422738Y-58092316D01*
X155498248Y-58139762D01*
X155557928Y-58177262D01*
X155575478Y-58188289D01*
X155745745Y-58247868D01*
X155745750Y-58247869D01*
X155924996Y-58268065D01*
X155925000Y-58268065D01*
X155925004Y-58268065D01*
X156104249Y-58247869D01*
X156104252Y-58247868D01*
X156104255Y-58247868D01*
X156274522Y-58188289D01*
X156427262Y-58092316D01*
X156554816Y-57964762D01*
X156650789Y-57812022D01*
X156698736Y-57674996D01*
X165644435Y-57674996D01*
X165644435Y-57675003D01*
X165664630Y-57854249D01*
X165664631Y-57854254D01*
X165724211Y-58024523D01*
X165796621Y-58139762D01*
X165820184Y-58177262D01*
X165947738Y-58304816D01*
X166100478Y-58400789D01*
X166221296Y-58443065D01*
X166270745Y-58460368D01*
X166270750Y-58460369D01*
X166449996Y-58480565D01*
X166450000Y-58480565D01*
X166450004Y-58480565D01*
X166629249Y-58460369D01*
X166629252Y-58460368D01*
X166629255Y-58460368D01*
X166799522Y-58400789D01*
X166952262Y-58304816D01*
X167079816Y-58177262D01*
X167175789Y-58024522D01*
X167235368Y-57854255D01*
X167235369Y-57854249D01*
X167255565Y-57675003D01*
X167255565Y-57674996D01*
X167235369Y-57495750D01*
X167235368Y-57495745D01*
X167187058Y-57357684D01*
X167175789Y-57325478D01*
X167079816Y-57172738D01*
X166952262Y-57045184D01*
X166913683Y-57020943D01*
X166799523Y-56949211D01*
X166629254Y-56889631D01*
X166629249Y-56889630D01*
X166499362Y-56874996D01*
X167369435Y-56874996D01*
X167369435Y-56875003D01*
X167389630Y-57054249D01*
X167389631Y-57054254D01*
X167449211Y-57224523D01*
X167516608Y-57331784D01*
X167545184Y-57377262D01*
X167672738Y-57504816D01*
X167825478Y-57600789D01*
X167942552Y-57641755D01*
X167995745Y-57660368D01*
X167995750Y-57660369D01*
X168174996Y-57680565D01*
X168175000Y-57680565D01*
X168175004Y-57680565D01*
X168354249Y-57660369D01*
X168354252Y-57660368D01*
X168354255Y-57660368D01*
X168524522Y-57600789D01*
X168677262Y-57504816D01*
X168804816Y-57377262D01*
X168900789Y-57224522D01*
X168960368Y-57054255D01*
X168961390Y-57045184D01*
X168980565Y-56875003D01*
X168980565Y-56874996D01*
X168960369Y-56695750D01*
X168960368Y-56695745D01*
X168916144Y-56569360D01*
X168900789Y-56525478D01*
X168804816Y-56372738D01*
X168677262Y-56245184D01*
X168524523Y-56149211D01*
X168354254Y-56089631D01*
X168354249Y-56089630D01*
X168175004Y-56069435D01*
X168174996Y-56069435D01*
X167995750Y-56089630D01*
X167995745Y-56089631D01*
X167825476Y-56149211D01*
X167672737Y-56245184D01*
X167545184Y-56372737D01*
X167449211Y-56525476D01*
X167389631Y-56695745D01*
X167389630Y-56695750D01*
X167369435Y-56874996D01*
X166499362Y-56874996D01*
X166450004Y-56869435D01*
X166449996Y-56869435D01*
X166270750Y-56889630D01*
X166270745Y-56889631D01*
X166100476Y-56949211D01*
X165947737Y-57045184D01*
X165820184Y-57172737D01*
X165724211Y-57325476D01*
X165664631Y-57495745D01*
X165664630Y-57495750D01*
X165644435Y-57674996D01*
X156698736Y-57674996D01*
X156710368Y-57641755D01*
X156710847Y-57637503D01*
X156730565Y-57462503D01*
X156730565Y-57462496D01*
X156710369Y-57283250D01*
X156710368Y-57283245D01*
X156681985Y-57202131D01*
X156650789Y-57112978D01*
X156554816Y-56960238D01*
X156427262Y-56832684D01*
X156369265Y-56796242D01*
X156274523Y-56736711D01*
X156104254Y-56677131D01*
X156104249Y-56677130D01*
X155925004Y-56656935D01*
X155924996Y-56656935D01*
X155745750Y-56677130D01*
X155745745Y-56677131D01*
X155575476Y-56736711D01*
X155422737Y-56832684D01*
X155295184Y-56960237D01*
X155199211Y-57112976D01*
X155139631Y-57283245D01*
X155139630Y-57283250D01*
X155119435Y-57462496D01*
X152660847Y-57462496D01*
X152660369Y-57458250D01*
X152660368Y-57458245D01*
X152600788Y-57287976D01*
X152504815Y-57135237D01*
X152377262Y-57007684D01*
X152224516Y-56911706D01*
X152222004Y-56910497D01*
X152220662Y-56909285D01*
X152218626Y-56908006D01*
X152218850Y-56907649D01*
X152170148Y-56863670D01*
X152151840Y-56796242D01*
X152172893Y-56729620D01*
X152188127Y-56711107D01*
X153037417Y-55861819D01*
X153098740Y-55828334D01*
X153125098Y-55825500D01*
X153304055Y-55825500D01*
X153304057Y-55825500D01*
X153456784Y-55784577D01*
X153593716Y-55705520D01*
X153705520Y-55593716D01*
X153784577Y-55456784D01*
X153825500Y-55304057D01*
X153825500Y-55145943D01*
X153784577Y-54993216D01*
X153759351Y-54949523D01*
X153705524Y-54856290D01*
X153705518Y-54856282D01*
X153593717Y-54744481D01*
X153593709Y-54744475D01*
X153456790Y-54665426D01*
X153456786Y-54665424D01*
X153456784Y-54665423D01*
X153304057Y-54624500D01*
X153304056Y-54624500D01*
X152911670Y-54624500D01*
X152911654Y-54624499D01*
X152904058Y-54624499D01*
X152745943Y-54624499D01*
X152669579Y-54644961D01*
X152593214Y-54665423D01*
X152593209Y-54665426D01*
X152456290Y-54744475D01*
X152456282Y-54744481D01*
X145219481Y-61981282D01*
X145219479Y-61981285D01*
X145169361Y-62068094D01*
X145169359Y-62068096D01*
X145140425Y-62118209D01*
X145140424Y-62118210D01*
X145140423Y-62118215D01*
X145099499Y-62270943D01*
X145099499Y-62270945D01*
X145099499Y-62439046D01*
X145099500Y-62439059D01*
X145099500Y-64574903D01*
X145079815Y-64641942D01*
X145063181Y-64662584D01*
X138414675Y-71311089D01*
X138353352Y-71344574D01*
X138283660Y-71339590D01*
X138227727Y-71297718D01*
X138203310Y-71232254D01*
X138208334Y-71187412D01*
X138219538Y-71150478D01*
X138236024Y-71096132D01*
X138255341Y-70900000D01*
X138236024Y-70703868D01*
X138178814Y-70515273D01*
X138178811Y-70515269D01*
X138178811Y-70515266D01*
X138085913Y-70341467D01*
X138085909Y-70341460D01*
X137960883Y-70189116D01*
X137808539Y-70064090D01*
X137808532Y-70064086D01*
X137634733Y-69971188D01*
X137634727Y-69971186D01*
X137446132Y-69913976D01*
X137446129Y-69913975D01*
X137250000Y-69894659D01*
X137053870Y-69913975D01*
X136865266Y-69971188D01*
X136691467Y-70064086D01*
X136691460Y-70064090D01*
X136539116Y-70189116D01*
X136414090Y-70341460D01*
X136414086Y-70341467D01*
X136321188Y-70515266D01*
X136263975Y-70703870D01*
X136244659Y-70900000D01*
X136263975Y-71096129D01*
X136263976Y-71096132D01*
X136305268Y-71232254D01*
X136321188Y-71284733D01*
X136414086Y-71458532D01*
X136414090Y-71458539D01*
X136539116Y-71610883D01*
X136691460Y-71735909D01*
X136691467Y-71735913D01*
X136865266Y-71828811D01*
X136865269Y-71828811D01*
X136865273Y-71828814D01*
X136957663Y-71856840D01*
X137016099Y-71895137D01*
X137044555Y-71958949D01*
X137033995Y-72028016D01*
X136987771Y-72080410D01*
X136921665Y-72099500D01*
X134796668Y-72099500D01*
X134729629Y-72079815D01*
X134683874Y-72027011D01*
X134673448Y-71961617D01*
X134693065Y-71787503D01*
X134693065Y-71787496D01*
X134672869Y-71608250D01*
X134672868Y-71608245D01*
X134645496Y-71530020D01*
X134613289Y-71437978D01*
X134606997Y-71427965D01*
X134551468Y-71339590D01*
X134517316Y-71285238D01*
X134389762Y-71157684D01*
X134373933Y-71147738D01*
X134237023Y-71061711D01*
X134066754Y-71002131D01*
X134066749Y-71002130D01*
X133887504Y-70981935D01*
X133887496Y-70981935D01*
X133708250Y-71002130D01*
X133708245Y-71002131D01*
X133537976Y-71061711D01*
X133440472Y-71122978D01*
X133373235Y-71141978D01*
X133306400Y-71121610D01*
X133261186Y-71068342D01*
X133250500Y-71017984D01*
X133250500Y-63481158D01*
X133270185Y-63414119D01*
X133322989Y-63368364D01*
X133392147Y-63358420D01*
X133455703Y-63387445D01*
X133465229Y-63397368D01*
X133465260Y-63397338D01*
X133470184Y-63402262D01*
X133597738Y-63529816D01*
X133750478Y-63625789D01*
X133875211Y-63669435D01*
X133920745Y-63685368D01*
X133920750Y-63685369D01*
X134099996Y-63705565D01*
X134100000Y-63705565D01*
X134100004Y-63705565D01*
X134279249Y-63685369D01*
X134279252Y-63685368D01*
X134279255Y-63685368D01*
X134449522Y-63625789D01*
X134602262Y-63529816D01*
X134729816Y-63402262D01*
X134762657Y-63349996D01*
X135906934Y-63349996D01*
X135906934Y-63350003D01*
X135927129Y-63529249D01*
X135927130Y-63529254D01*
X135986710Y-63699523D01*
X136035574Y-63777289D01*
X136082683Y-63852262D01*
X136210237Y-63979816D01*
X136255588Y-64008312D01*
X136345220Y-64064632D01*
X136362977Y-64075789D01*
X136501359Y-64124211D01*
X136533244Y-64135368D01*
X136533249Y-64135369D01*
X136712495Y-64155565D01*
X136712499Y-64155565D01*
X136712503Y-64155565D01*
X136891748Y-64135369D01*
X136891751Y-64135368D01*
X136891754Y-64135368D01*
X137062021Y-64075789D01*
X137214761Y-63979816D01*
X137342315Y-63852262D01*
X137438288Y-63699522D01*
X137497867Y-63529255D01*
X137497868Y-63529249D01*
X137518064Y-63350003D01*
X137518064Y-63349996D01*
X137501163Y-63199996D01*
X138469435Y-63199996D01*
X138469435Y-63200003D01*
X138489630Y-63379249D01*
X138489631Y-63379254D01*
X138549211Y-63549523D01*
X138624557Y-63669435D01*
X138645184Y-63702262D01*
X138772738Y-63829816D01*
X138925478Y-63925789D01*
X139079878Y-63979816D01*
X139095745Y-63985368D01*
X139095750Y-63985369D01*
X139274996Y-64005565D01*
X139275000Y-64005565D01*
X139275004Y-64005565D01*
X139454249Y-63985369D01*
X139454252Y-63985368D01*
X139454255Y-63985368D01*
X139624522Y-63925789D01*
X139777262Y-63829816D01*
X139904816Y-63702262D01*
X140000789Y-63549522D01*
X140060368Y-63379255D01*
X140060847Y-63375003D01*
X140080565Y-63200003D01*
X140080565Y-63199996D01*
X140060369Y-63020750D01*
X140060368Y-63020745D01*
X140018136Y-62900053D01*
X140000789Y-62850478D01*
X139999067Y-62847738D01*
X139961582Y-62788080D01*
X139904816Y-62697738D01*
X139777262Y-62570184D01*
X139768426Y-62564632D01*
X139624523Y-62474211D01*
X139454254Y-62414631D01*
X139454249Y-62414630D01*
X139275004Y-62394435D01*
X139274996Y-62394435D01*
X139095750Y-62414630D01*
X139095745Y-62414631D01*
X138925476Y-62474211D01*
X138772737Y-62570184D01*
X138645184Y-62697737D01*
X138549211Y-62850476D01*
X138489631Y-63020745D01*
X138489630Y-63020750D01*
X138469435Y-63199996D01*
X137501163Y-63199996D01*
X137497868Y-63170750D01*
X137497867Y-63170745D01*
X137445381Y-63020750D01*
X137438288Y-63000478D01*
X137423700Y-62977262D01*
X137370137Y-62892016D01*
X137342315Y-62847738D01*
X137214761Y-62720184D01*
X137062022Y-62624211D01*
X136891753Y-62564631D01*
X136891748Y-62564630D01*
X136712503Y-62544435D01*
X136712495Y-62544435D01*
X136533249Y-62564630D01*
X136533244Y-62564631D01*
X136362975Y-62624211D01*
X136210236Y-62720184D01*
X136082683Y-62847737D01*
X135986710Y-63000476D01*
X135927130Y-63170745D01*
X135927129Y-63170750D01*
X135906934Y-63349996D01*
X134762657Y-63349996D01*
X134825789Y-63249522D01*
X134885368Y-63079255D01*
X134888495Y-63051503D01*
X134905565Y-62900003D01*
X134905565Y-62899996D01*
X134885369Y-62720750D01*
X134885368Y-62720745D01*
X134878800Y-62701976D01*
X134825789Y-62550478D01*
X134729816Y-62397738D01*
X134602262Y-62270184D01*
X134563670Y-62245935D01*
X134449523Y-62174211D01*
X134279254Y-62114631D01*
X134279249Y-62114630D01*
X134100004Y-62094435D01*
X134099996Y-62094435D01*
X133920750Y-62114630D01*
X133920745Y-62114631D01*
X133750476Y-62174211D01*
X133597737Y-62270184D01*
X133465260Y-62402662D01*
X133463989Y-62401391D01*
X133414245Y-62436299D01*
X133344433Y-62439140D01*
X133284167Y-62403788D01*
X133252581Y-62341465D01*
X133250500Y-62318841D01*
X133250500Y-61970944D01*
X133250500Y-61970943D01*
X133241061Y-61935717D01*
X133209577Y-61818215D01*
X133164266Y-61739735D01*
X133130520Y-61681284D01*
X133018716Y-61569480D01*
X133018715Y-61569479D01*
X133014385Y-61565149D01*
X133014374Y-61565139D01*
X129436731Y-57987496D01*
X135044435Y-57987496D01*
X135044435Y-57987503D01*
X135064630Y-58166749D01*
X135064631Y-58166754D01*
X135124211Y-58337023D01*
X135201715Y-58460369D01*
X135220184Y-58489762D01*
X135347738Y-58617316D01*
X135500478Y-58713289D01*
X135670745Y-58772868D01*
X135670750Y-58772869D01*
X135849996Y-58793065D01*
X135850000Y-58793065D01*
X135850004Y-58793065D01*
X136029249Y-58772869D01*
X136029252Y-58772868D01*
X136029255Y-58772868D01*
X136199522Y-58713289D01*
X136352262Y-58617316D01*
X136479816Y-58489762D01*
X136575789Y-58337022D01*
X136635368Y-58166755D01*
X136635369Y-58166749D01*
X136655565Y-57987503D01*
X136655565Y-57987496D01*
X136635369Y-57808250D01*
X136635368Y-57808245D01*
X136590691Y-57680565D01*
X136575789Y-57637978D01*
X136479816Y-57485238D01*
X136352262Y-57357684D01*
X136311052Y-57331790D01*
X136199523Y-57261711D01*
X136029254Y-57202131D01*
X136029249Y-57202130D01*
X135850004Y-57181935D01*
X135849996Y-57181935D01*
X135670750Y-57202130D01*
X135670745Y-57202131D01*
X135500476Y-57261711D01*
X135347737Y-57357684D01*
X135220184Y-57485237D01*
X135124211Y-57637976D01*
X135064631Y-57808245D01*
X135064630Y-57808250D01*
X135044435Y-57987496D01*
X129436731Y-57987496D01*
X128187590Y-56738355D01*
X128187588Y-56738352D01*
X128068717Y-56619481D01*
X128068716Y-56619480D01*
X127981904Y-56569360D01*
X127981904Y-56569359D01*
X127981900Y-56569358D01*
X127931785Y-56540423D01*
X127779057Y-56499499D01*
X127620943Y-56499499D01*
X127613347Y-56499499D01*
X127613331Y-56499500D01*
X127095943Y-56499500D01*
X126943216Y-56540423D01*
X126943209Y-56540426D01*
X126806290Y-56619475D01*
X126806282Y-56619481D01*
X126694481Y-56731282D01*
X126694475Y-56731290D01*
X126615426Y-56868209D01*
X126615423Y-56868216D01*
X126574500Y-57020943D01*
X121500500Y-57020943D01*
X121500500Y-55926571D01*
X133499499Y-55926571D01*
X133524497Y-56052238D01*
X133524499Y-56052244D01*
X133573533Y-56170624D01*
X133573538Y-56170633D01*
X133644723Y-56277168D01*
X133644726Y-56277172D01*
X133735327Y-56367773D01*
X133735331Y-56367776D01*
X133841866Y-56438961D01*
X133841872Y-56438964D01*
X133841873Y-56438965D01*
X133960256Y-56488001D01*
X133960260Y-56488001D01*
X133960261Y-56488002D01*
X134085928Y-56513000D01*
X134085931Y-56513000D01*
X134214071Y-56513000D01*
X134298615Y-56496182D01*
X134339744Y-56488001D01*
X134458127Y-56438965D01*
X134564669Y-56367776D01*
X134655276Y-56277169D01*
X134726465Y-56170627D01*
X134775501Y-56052244D01*
X134800500Y-55926569D01*
X134800500Y-55798431D01*
X134800500Y-55798428D01*
X134775502Y-55672761D01*
X134775501Y-55672760D01*
X134775501Y-55672756D01*
X134726465Y-55554373D01*
X134726464Y-55554372D01*
X134726461Y-55554366D01*
X134655276Y-55447831D01*
X134655273Y-55447827D01*
X134564672Y-55357226D01*
X134564668Y-55357223D01*
X134458133Y-55286038D01*
X134458124Y-55286033D01*
X134339744Y-55236999D01*
X134339738Y-55236997D01*
X134214071Y-55212000D01*
X134214069Y-55212000D01*
X134085931Y-55212000D01*
X134085929Y-55212000D01*
X133960261Y-55236997D01*
X133960255Y-55236999D01*
X133841875Y-55286033D01*
X133841866Y-55286038D01*
X133735331Y-55357223D01*
X133735327Y-55357226D01*
X133644726Y-55447827D01*
X133644723Y-55447831D01*
X133573538Y-55554366D01*
X133573533Y-55554375D01*
X133524499Y-55672755D01*
X133524497Y-55672761D01*
X133499500Y-55798428D01*
X133499500Y-55798431D01*
X133499500Y-55926569D01*
X133499500Y-55926571D01*
X133499499Y-55926571D01*
X121500500Y-55926571D01*
X121500500Y-54024500D01*
X121520185Y-53957461D01*
X121572989Y-53911706D01*
X121624500Y-53900500D01*
X138694988Y-53900500D01*
X138762027Y-53920185D01*
G37*
G04 #@! TD.AperFunction*
M02*
